<?xml version="1.0" standalone="no"?>
<!DOCTYPE svg PUBLIC "-//W3C//DTD SVG 1.1//EN" "http://www.w3.org/Graphics/SVG/1.1/DTD/svg11.dtd" >
<svg xmlns="http://www.w3.org/2000/svg" xmlns:xlink="http://www.w3.org/1999/xlink" version="1.1">
<metadata>
Created by FontForge 20190801 at Fri Feb  8 12:51:49 2008
 By Unknown
Copyright (c) 2007 Monotype Imaging Inc. Soho is designed by Sebastian Lester. All rights reserved.
</metadata>
<defs>
<font id="SohoGothicPro-Bold" horiz-adv-x="673" >
  <font-face 
    font-family="Soho Gothic Pro"
    font-weight="700"
    font-stretch="normal"
    units-per-em="1000"
    panose-1="2 11 8 3 3 5 4 2 2 4"
    ascent="790"
    descent="-210"
    x-height="570"
    cap-height="743"
    bbox="-80 -290 1545 1166"
    underline-thickness="50"
    underline-position="-100"
    stemh="146"
    stemv="174"
    unicode-range="U+0020-FE6A"
  />
<missing-glyph horiz-adv-x="500" 
d="M12 0v665h475v-665h-475zM88 618l162 -243l161 243h-323zM60 575v-484c0 -1 161 242 161 242zM440 575l-162 -242l162 -243v485zM411 48l-161 242l-162 -242h323z" />
    <glyph glyph-name="f_i" unicode="fi" horiz-adv-x="741" 
d="M293 0h-174v446l-96 10v114h96v47c0 118 45 178 172 178c52 0 106 -9 136 -17v-98c-26 1 -57 3 -82 3c-48 0 -52 -18 -52 -68v-45h376v-570h-174v446h-202v-446zM673 648h-181v131h181v-131z" />
    <glyph glyph-name="f_l" unicode="fl" horiz-adv-x="745" 
d="M293 0h-174v446l-96 11v113h96v45c0 143 69 180 196 180c63 0 149 -11 184 -16h174v-779h-174v678c-32 2 -89 5 -135 5c-52 0 -71 -8 -71 -68v-45h132v-124h-132v-446z" />
    <glyph glyph-name="f_f" unicode="ff" horiz-adv-x="834" 
d="M670 0h-174v446h-203v-446h-174v446l-95 11v113h95v47c0 115 46 178 173 178c52 0 106 -9 136 -17v-98c-27 1 -58 3 -82 3c-49 0 -53 -19 -53 -68v-45h203v47c0 115 46 178 173 178c52 0 106 -9 136 -17v-98c-27 1 -58 3 -82 3c-49 0 -53 -18 -53 -68v-45h133v-124h-133
v-446z" />
    <glyph glyph-name="f_f_i" unicode="ffi" horiz-adv-x="1117" 
d="M1045 0h-174v446h-202v-446h-173v446h-203v-446h-174v446l-95 11v113h95v47c0 116 46 178 173 178c52 0 106 -9 136 -17v-98c-27 1 -58 3 -82 3c-48 0 -53 -18 -53 -68v-45h203v47c0 116 45 178 172 178c52 0 106 -9 136 -17v-98c-27 1 -57 3 -82 3
c-48 0 -53 -18 -53 -68v-45h376v-570zM1049 648h-182v131h182v-131z" />
    <glyph glyph-name="f_f_l" unicode="ffl" horiz-adv-x="1120" 
d="M1049 0h-175v678c-31 2 -87 5 -133 5c-53 0 -72 -8 -72 -68v-45h133v-124h-133v-446h-174v446h-202v-446h-174v446l-95 11v113h95v47c0 116 46 178 173 178c52 0 106 -9 136 -17v-98c-27 1 -58 3 -82 3c-49 0 -53 -18 -53 -68v-45h202v45c0 143 69 180 197 180
c61 0 147 -11 182 -16h175v-779z" />
    <glyph glyph-name="f_b" unicode="fb" horiz-adv-x="1079" 
d="M293 0h-174v446l-96 11v113h96v44c0 141 69 181 198 181c59 0 122 -6 177 -16h174v-215c38 16 80 22 117 22c170 0 247 -82 247 -260v-70c0 -197 -98 -271 -287 -271c-75 0 -129 4 -251 15v677c-37 3 -83 6 -131 6c-51 0 -70 -8 -70 -69v-44h132v-124h-132v-446zM667 121
c19 -1 47 -3 81 -3c80 0 111 29 111 139v70c0 96 -23 126 -98 126c-21 0 -65 -3 -94 -17v-315z" />
    <glyph glyph-name="f_f_b" unicode="ffb" horiz-adv-x="1458" 
d="M671 0h-173v446h-205v-446h-174v446l-95 10v114h95v47c0 115 44 178 173 178c51 0 101 -8 135 -17v-98c-32 1 -57 3 -80 3c-50 0 -54 -18 -54 -68v-45h205v45c0 140 70 180 196 180c59 0 140 -10 179 -16h174v-214c33 14 76 21 117 21c170 0 247 -82 247 -260v-70
c0 -197 -98 -271 -287 -271c-75 0 -150 5 -251 15v678c-30 2 -83 5 -131 5c-50 0 -71 -8 -71 -68v-45h133v-124h-133v-446zM1238 257v70c0 96 -23 126 -98 126c-20 0 -65 -3 -94 -17v-315c16 -1 47 -3 81 -3c80 0 111 29 111 139z" />
    <glyph glyph-name="f_f_h" unicode="ffh" horiz-adv-x="1477" 
d="M1410 0h-175v359c0 74 -18 95 -74 95c-44 0 -89 -15 -114 -27v-427h-175v678c-32 2 -83 5 -129 5c-53 0 -74 -8 -74 -68v-45h133v-124h-133v-446h-173v446h-203v-446h-174v446l-95 11v113h95v47c0 115 44 178 173 178c51 0 106 -9 135 -17v-98c-26 1 -57 3 -81 3
c-49 0 -53 -18 -53 -68v-45h203v45c0 143 71 180 200 180c58 0 139 -10 176 -16h175v-234c42 22 106 39 170 39c158 0 193 -91 193 -223v-361z" />
    <glyph glyph-name="f_f_k" unicode="ffk" horiz-adv-x="1428" 
d="M1419 0h-198l-176 264v-264h-174v678c-32 2 -83 5 -128 5c-53 0 -74 -8 -74 -68v-45h133v-124h-133v-446h-174v446h-202v-446h-174v446l-95 10v114h95v47c0 115 46 178 173 178c52 0 106 -9 136 -17v-98c-27 1 -58 3 -82 3c-49 0 -53 -18 -53 -68v-45h202v45
c0 143 72 180 200 180c64 0 139 -10 176 -16h174v-461l179 252h187l-198 -274z" />
    <glyph glyph-name="f_h" unicode="fh" horiz-adv-x="1100" 
d="M1033 0h-174v359c0 74 -19 95 -75 95c-44 0 -89 -15 -115 -27v-427h-174v678c-32 2 -83 5 -129 5c-53 0 -73 -8 -73 -68v-45h133v-124h-133v-446h-174v446l-95 11v113h95v45c0 143 72 180 200 180c64 0 139 -10 176 -16h174v-234c44 22 107 40 171 40
c158 0 193 -92 193 -224v-361z" />
    <glyph glyph-name="f_j" unicode="fj" horiz-adv-x="745" 
d="M293 0h-174v446l-95 11v113h95v47c0 115 46 178 173 178c51 0 106 -9 135 -17v-98c-26 1 -57 3 -81 3c-48 0 -53 -18 -53 -68v-45h380v-605c0 -136 -52 -183 -182 -183c-47 0 -87 5 -100 9v110c19 -1 36 -2 56 -2c44 0 52 15 52 66v481h-206v-446zM676 648h-182v131h182
v-131z" />
    <glyph glyph-name="f_f_j" unicode="ffj" horiz-adv-x="1121" 
d="M669 0h-174v446h-202v-446h-174v446l-96 11v113h96v47c0 115 46 178 172 178c52 0 106 -9 136 -17v-98c-27 1 -58 3 -82 3c-48 0 -52 -20 -52 -68v-45h202v47c0 115 46 178 173 178c52 0 105 -9 135 -17v-98c-27 1 -57 3 -82 3c-48 0 -52 -18 -52 -68v-45h380v-605
c0 -136 -52 -183 -182 -183c-48 0 -86 5 -100 9v110c18 -1 35 -2 56 -2c44 0 51 15 51 66v481h-205v-446zM1053 648h-183v131h183v-131z" />
    <glyph glyph-name="f_k" unicode="fk" horiz-adv-x="1051" 
d="M1042 0h-197l-176 264v-264h-173v678c-33 2 -84 5 -130 5c-53 0 -73 -8 -73 -68v-45h133v-124h-133v-446h-174v446l-95 11v113h95v45c0 143 72 180 200 180c64 0 140 -10 177 -16h173v-461l179 252h187l-198 -274z" />
    <glyph glyph-name=".notdef" horiz-adv-x="500" 
d="M12 0v665h475v-665h-475zM88 618l162 -243l161 243h-323zM60 575v-484c0 -1 161 242 161 242zM440 575l-162 -242l162 -243v485zM411 48l-161 242l-162 -242h323z" />
    <glyph glyph-name="space" unicode=" " horiz-adv-x="202" 
 />
    <glyph glyph-name="exclam" unicode="!" horiz-adv-x="330" 
d="M68 780h194l-17 -557h-160zM254 165v-165h-179v165h179z" />
    <glyph glyph-name="quotedbl" unicode="&#x22;" horiz-adv-x="482" 
d="M20 508l39 262h153l-69 -262h-123zM462 770l-70 -262h-122l39 262h153z" />
    <glyph glyph-name="numbersign" unicode="#" horiz-adv-x="769" 
d="M704 178h-131l-20 -178h-144l20 178h-137l-19 -178h-145l21 178h-86v109h97l17 158h-114v108h127l21 190h144l-21 -190h136l22 190h144l-21 -190h89v-108h-101l-18 -158h119v-109zM458 445h-136l-18 -158h137z" />
    <glyph glyph-name="dollar" unicode="$" 
d="M263 -127v112c-79 4 -151 13 -186 22v122c64 -5 132 -12 234 -12c80 0 115 25 115 81c0 42 -18 63 -87 93l-108 46c-106 45 -173 94 -173 217c0 121 70 183 205 200v107h147v-104c76 -4 145 -16 178 -23v-120c-69 6 -148 12 -231 12c-76 0 -116 -15 -116 -66
c0 -38 16 -59 84 -87l106 -43c123 -52 181 -105 181 -222c0 -129 -73 -200 -202 -219v-116h-147z" />
    <glyph glyph-name="percent" unicode="%" horiz-adv-x="1153" 
d="M1105 205c0 -139 -63 -215 -197 -215c-133 0 -196 76 -196 215v38c0 138 63 214 196 214c134 0 197 -76 197 -214v-38zM975 205v38c0 98 -27 118 -67 118s-66 -20 -66 -118v-38c0 -98 26 -119 66 -119s67 21 67 119zM895 745l-497 -745h-146l497 745h146zM440 508
c0 -132 -53 -216 -196 -216c-144 0 -196 87 -196 216v36c0 130 52 215 196 215c143 0 196 -83 196 -215v-36zM310 508v36c0 95 -19 120 -66 120s-66 -27 -66 -120v-36c0 -96 19 -120 66 -120s66 24 66 120z" />
    <glyph glyph-name="ampersand" unicode="&#x26;" horiz-adv-x="817" 
d="M765 0h-168l-43 40c-47 -32 -121 -55 -223 -55c-157 0 -282 46 -282 202v7c0 94 51 146 143 196l-8 9c-63 61 -99 112 -99 183v5c0 121 93 172 261 172c87 0 187 -13 248 -25v-116c-70 6 -159 10 -236 10c-59 0 -96 -11 -96 -59v-3c0 -40 17 -61 64 -105l244 -235
c17 37 22 85 22 134l-47 8v84h231v-84l-47 -8c0 -89 -21 -167 -63 -228l99 -95v-37zM465 127l-170 161c-45 -24 -66 -49 -66 -95v-6c0 -63 55 -89 118 -89c51 0 91 10 118 29z" />
    <glyph glyph-name="quoteright" unicode="&#x2019;" horiz-adv-x="256" 
d="M236 779l-95 -256h-121l60 256h156z" />
    <glyph glyph-name="parenleft" unicode="(" horiz-adv-x="399" 
d="M363 -201h-159c-67 91 -149 256 -149 468v7c0 213 82 378 149 469h159c-84 -132 -137 -277 -137 -469v-7c0 -192 53 -337 137 -468z" />
    <glyph glyph-name="parenright" unicode=")" horiz-adv-x="399" 
d="M343 267c0 -212 -81 -377 -149 -468h-158c84 131 136 276 136 468v7c0 192 -52 337 -136 469h158c68 -91 149 -256 149 -469v-7z" />
    <glyph glyph-name="asterisk" unicode="*" horiz-adv-x="550" 
d="M496 577l-61 -19c-22 -7 -47 -12 -74 -16c20 -16 37 -35 51 -53l37 -49l-99 -72l-38 49c-14 19 -26 40 -38 63c-11 -24 -24 -44 -37 -62l-38 -50l-99 72l38 50c12 18 30 36 49 53c-26 3 -51 8 -72 15l-61 19l38 116l60 -19c22 -7 46 -17 69 -29c-5 25 -8 49 -8 71v62h123
v-62c0 -22 -3 -47 -9 -72c24 13 48 23 70 30l61 19z" />
    <glyph glyph-name="plus" unicode="+" horiz-adv-x="677" 
d="M603 320h-199v-194h-131v194h-200v131h200v194h131v-194h199v-131z" />
    <glyph glyph-name="comma" unicode="," horiz-adv-x="349" 
d="M304 165l-135 -259h-141l94 259h182z" />
    <glyph glyph-name="hyphen" unicode="-" horiz-adv-x="376" 
d="M318 234h-261v121h261v-121z" />
    <glyph glyph-name="period" unicode="." horiz-adv-x="302" 
d="M238 0h-175v164h175v-164z" />
    <glyph glyph-name="slash" unicode="/" horiz-adv-x="495" 
d="M475 743l-278 -743h-178l279 743h177z" />
    <glyph glyph-name="zero" unicode="0" horiz-adv-x="706" 
d="M657 326c0 -221 -96 -343 -304 -343s-304 122 -304 343v90c0 221 96 343 304 343s304 -122 304 -343v-90zM469 326v90c0 162 -44 203 -116 203c-71 0 -116 -41 -116 -203v-90c0 -162 45 -203 116 -203c72 0 116 41 116 203z" />
    <glyph glyph-name="one" unicode="1" horiz-adv-x="606" 
d="M556 0h-505v125l160 8v453l-160 -43v132l211 71h135v-613l159 -8v-125z" />
    <glyph glyph-name="two" unicode="2" horiz-adv-x="651" 
d="M589 0h-537v92c0 183 58 246 224 334c118 61 137 85 137 133c0 51 -32 68 -133 68c-72 0 -169 -6 -214 -11v112c68 20 167 31 245 31c203 0 292 -59 292 -190c0 -101 -52 -164 -206 -242c-141 -71 -162 -96 -162 -180v-10h354v-137z" />
    <glyph glyph-name="three" unicode="3" horiz-adv-x="652" 
d="M602 205c0 -162 -97 -222 -296 -222c-97 0 -205 19 -247 33v114c51 -5 145 -13 228 -13c88 0 129 15 129 96v17c0 54 -14 88 -110 88h-202v122h203c94 0 109 36 109 90v10c0 69 -29 86 -130 86c-84 0 -164 -6 -225 -11v113c35 12 147 31 245 31c188 0 296 -50 296 -205
v-12c0 -65 -24 -128 -88 -162c66 -32 88 -94 88 -157v-18z" />
    <glyph glyph-name="four" unicode="4" horiz-adv-x="710" 
d="M668 169h-99v-169h-187v169h-341v128l369 446h159v-446h99v-128zM391 297v249l-202 -249h202z" />
    <glyph glyph-name="five" unicode="5" horiz-adv-x="641" 
d="M592 220c0 -174 -114 -237 -300 -237c-111 0 -208 19 -246 29v116c47 -4 127 -14 208 -14c111 0 149 24 149 104v20c0 73 -29 96 -145 96h-204l34 409h480v-134h-330l-13 -148h71c226 0 296 -68 296 -221v-20z" />
    <glyph glyph-name="six" unicode="6" horiz-adv-x="688" 
d="M639 230c0 -190 -139 -247 -291 -247c-205 0 -299 88 -299 308v166c0 189 56 302 305 302c104 0 208 -18 248 -28v-117c-70 6 -141 12 -226 12c-130 0 -143 -47 -143 -143v-25c36 9 95 15 132 15c156 0 274 -36 274 -212v-31zM455 229v29c0 84 -36 101 -109 101
c-28 0 -73 -3 -113 -12v-86c0 -120 41 -151 116 -151c62 0 106 36 106 119z" />
    <glyph glyph-name="seven" unicode="7" horiz-adv-x="636" 
d="M597 595l-327 -595h-198l341 609h-372v134h556v-148z" />
    <glyph glyph-name="eight" unicode="8" horiz-adv-x="714" 
d="M663 213c0 -207 -140 -230 -304 -230h-5c-164 0 -303 23 -303 230v7c0 78 27 127 82 163c-49 32 -80 79 -80 158v9c0 175 133 209 301 209h5c169 0 301 -34 301 -209v-9c0 -79 -30 -126 -79 -158c55 -36 82 -85 82 -163v-7zM479 215v7c0 74 -19 104 -80 104h-84
c-62 0 -80 -30 -80 -104v-7c0 -93 46 -110 119 -110h5c74 0 120 17 120 110zM477 535v9c0 74 -46 92 -118 92h-5c-72 0 -118 -18 -118 -92v-9c0 -58 17 -93 79 -93h84c62 0 78 35 78 93z" />
    <glyph glyph-name="nine" unicode="9" horiz-adv-x="688" 
d="M639 288c0 -187 -57 -305 -306 -305c-103 0 -208 18 -248 28v117c58 -5 142 -13 230 -13c127 0 139 49 139 143v26c-35 -9 -95 -15 -132 -15c-155 0 -273 36 -273 212v31c0 188 139 247 291 247c204 0 299 -85 299 -303v-168zM454 394v87c0 120 -40 151 -115 151
c-63 0 -107 -36 -107 -119v-29c0 -84 36 -101 109 -101c28 0 74 3 113 11z" />
    <glyph glyph-name="colon" unicode=":" horiz-adv-x="314" 
d="M244 0h-175v165h175v-165zM244 406h-175v164h175v-164z" />
    <glyph glyph-name="semicolon" unicode=";" horiz-adv-x="328" 
d="M272 165l-126 -259h-140l79 259h187zM262 406h-176v164h176v-164z" />
    <glyph glyph-name="less" unicode="&#x3c;" horiz-adv-x="677" 
d="M573 121h-191l-279 265l279 265h191l-277 -265z" />
    <glyph glyph-name="equal" unicode="=" horiz-adv-x="677" 
d="M582 314v-131h-488v131h488zM582 454h-488v132h488v-132z" />
    <glyph glyph-name="greater" unicode="&#x3e;" horiz-adv-x="677" 
d="M573 386l-280 -265h-190l277 265l-277 265h190z" />
    <glyph glyph-name="question" unicode="?" horiz-adv-x="541" 
d="M291 0h-175v164h175v-164zM32 646v114c57 20 135 31 217 31c156 0 237 -49 237 -166v-8c0 -67 -25 -116 -103 -190c-94 -92 -104 -121 -104 -177v-26h-152v26c0 84 6 130 77 206c63 68 79 97 79 133v6c0 47 -31 59 -97 59c-46 0 -105 -4 -154 -8z" />
    <glyph glyph-name="at" unicode="@" horiz-adv-x="882" 
d="M837 369c0 -190 -96 -324 -381 -324c-158 0 -230 45 -230 160c0 22 2 57 5 81c16 151 91 207 223 207c68 0 132 -10 182 -22l-33 -316c96 25 138 102 138 215c0 150 -94 222 -263 222c-183 0 -288 -96 -325 -286c-8 -40 -13 -85 -13 -132c0 -151 78 -220 268 -220
c76 0 164 6 189 9v-60c-27 -5 -113 -16 -188 -16c-249 0 -364 97 -364 287c0 52 6 104 15 147c46 228 188 344 425 344c216 0 352 -101 352 -296zM495 393c-13 2 -33 3 -47 3c-50 0 -81 -17 -90 -119c-3 -36 -4 -57 -4 -73c0 -52 23 -68 82 -68c13 0 21 0 34 1z" />
    <glyph glyph-name="A" unicode="A" horiz-adv-x="748" 
d="M727 0h-196l-53 187h-211l-54 -187h-192l207 743h290zM453 321l-54 197c-9 36 -17 76 -23 114h-7c-6 -38 -13 -78 -23 -114l-53 -197h160z" />
    <glyph glyph-name="B" unicode="B" horiz-adv-x="711" 
d="M664 218c0 -189 -144 -227 -352 -227c-84 0 -137 2 -239 9v743c108 7 161 9 241 9c219 0 346 -39 346 -209v-9c0 -63 -26 -122 -87 -153c66 -30 91 -93 91 -152v-11zM483 219v11c0 60 -27 93 -126 93h-104v-197c27 -1 46 -1 74 -1c106 0 156 15 156 94zM481 528v8
c0 73 -52 82 -152 82c-28 0 -47 0 -76 -1v-179h103c102 0 125 32 125 90z" />
    <glyph glyph-name="C" unicode="C" horiz-adv-x="616" 
d="M584 3c-37 -9 -140 -20 -201 -20c-212 0 -334 78 -334 346v86c0 268 122 344 334 344c61 0 164 -11 201 -21v-133c-50 4 -122 9 -183 9c-110 0 -163 -37 -163 -199v-86c0 -163 53 -201 164 -201c61 0 132 4 182 8v-133z" />
    <glyph glyph-name="D" unicode="D" horiz-adv-x="738" 
d="M689 335c0 -238 -105 -344 -360 -344c-97 0 -160 2 -256 9v743c95 7 154 9 256 9c250 0 360 -106 360 -340v-77zM505 335v77c0 158 -49 199 -174 199h-76v-480h76c125 0 174 46 174 204z" />
    <glyph glyph-name="E" unicode="E" horiz-adv-x="628" 
d="M579 0h-506v743h506v-136h-319v-162h298v-129h-298v-181h319v-135z" />
    <glyph glyph-name="F" unicode="F" horiz-adv-x="619" 
d="M580 606h-320v-162h298v-129h-298v-315h-187v743h507v-137z" />
    <glyph glyph-name="G" unicode="G" horiz-adv-x="705" 
d="M644 7c-52 -10 -156 -24 -267 -24c-177 0 -328 62 -328 345v88c0 298 170 343 332 343c110 0 225 -18 260 -27v-127c-52 3 -165 9 -225 9c-116 0 -182 -24 -182 -198v-88c0 -159 48 -200 151 -200c30 0 61 0 85 2v271h174v-394z" />
    <glyph glyph-name="H" unicode="H" horiz-adv-x="800" 
d="M727 0h-187v313h-279v-313h-188v743h188v-288h279v288h187v-743z" />
    <glyph glyph-name="I" unicode="I" horiz-adv-x="333" 
d="M260 0h-187v743h187v-743z" />
    <glyph glyph-name="J" unicode="J" horiz-adv-x="333" 
d="M260 -23c0 -137 -61 -192 -198 -192c-33 0 -77 4 -99 9v114c20 -1 37 -2 53 -2c51 0 57 17 57 64v773h187v-766z" />
    <glyph glyph-name="K" unicode="K" horiz-adv-x="738" 
d="M731 0h-226l-241 345v-345h-188v743h188v-344l254 344h216l-277 -367z" />
    <glyph glyph-name="L" unicode="L" horiz-adv-x="579" 
d="M552 0h-479v743h188v-603h291v-140z" />
    <glyph glyph-name="M" unicode="M" horiz-adv-x="896" 
d="M823 0h-180v369c0 44 1 78 4 121h-2c-15 -34 -32 -66 -48 -95l-95 -174h-109l-93 174c-16 29 -33 63 -48 95h-2c2 -43 3 -77 3 -121v-369h-180v743h183l144 -264c16 -28 32 -60 46 -91h2c15 31 31 64 47 92l145 263h183v-743z" />
    <glyph glyph-name="N" unicode="N" horiz-adv-x="776" 
d="M703 0h-194l-215 386c-18 32 -37 69 -52 102h-2c1 -39 3 -80 3 -120v-368h-170v743h191l217 -379c18 -32 38 -72 53 -105h2c-2 35 -3 82 -3 127v357h170v-743z" />
    <glyph glyph-name="O" unicode="O" horiz-adv-x="745" 
d="M696 333c0 -257 -131 -350 -324 -350c-192 0 -323 93 -323 350v76c0 258 132 350 323 350c192 0 324 -92 324 -350v-76zM512 334v75c0 155 -50 205 -140 205c-88 0 -139 -50 -139 -205v-75c0 -158 52 -206 139 -206c88 0 140 48 140 206z" />
    <glyph glyph-name="P" unicode="P" horiz-adv-x="691" 
d="M660 500c0 -208 -156 -246 -331 -246c-25 0 -47 0 -76 1v-255h-180v743c82 6 153 9 238 9c193 0 349 -37 349 -242v-10zM479 500v10c-1 86 -52 102 -155 102c-24 0 -50 -1 -71 -1v-216h71c104 0 155 20 155 105z" />
    <glyph glyph-name="Q" unicode="Q" horiz-adv-x="745" 
d="M696 331c0 -212 -93 -316 -239 -340v-35c0 -31 7 -36 57 -36h82v-102c-29 -8 -93 -17 -148 -17c-99 0 -164 29 -164 151v40c-145 25 -235 130 -235 339v79c0 258 135 349 323 349c189 0 324 -91 324 -349v-79zM512 331v80c0 155 -52 203 -140 203
c-87 0 -139 -48 -139 -203v-80c0 -155 52 -203 139 -203c88 0 140 48 140 203z" />
    <glyph glyph-name="R" unicode="R" horiz-adv-x="718" 
d="M706 0h-189l-152 265h-112v-265h-180v743c74 4 148 9 240 9c187 0 345 -36 345 -240v-7c0 -110 -44 -169 -118 -205zM477 502v7c0 84 -48 103 -158 103c-24 0 -42 0 -66 -1v-216h68c111 0 156 26 156 107z" />
    <glyph glyph-name="S" unicode="S" horiz-adv-x="646" 
d="M601 209c0 -154 -105 -226 -285 -226c-99 0 -203 12 -251 24v122c64 -5 133 -12 230 -12c84 0 119 25 119 81c0 42 -18 59 -88 89l-108 46c-106 45 -172 98 -172 221c0 147 102 205 290 205c99 0 183 -15 227 -25v-120c-69 6 -134 12 -217 12c-76 0 -116 -15 -116 -66
c0 -38 16 -53 84 -81l105 -43c124 -51 182 -110 182 -227z" />
    <glyph glyph-name="T" unicode="T" horiz-adv-x="670" 
d="M644 607h-215v-607h-188v607h-215v136h618v-136z" />
    <glyph glyph-name="U" unicode="U" horiz-adv-x="763" 
d="M695 301c0 -214 -114 -318 -313 -318s-314 104 -314 318v442h185v-437c0 -132 28 -182 129 -182s130 50 130 182v437h183v-442z" />
    <glyph glyph-name="V" unicode="V" horiz-adv-x="749" 
d="M721 743l-205 -743h-284l-204 743h191l129 -498c10 -42 19 -95 26 -135h2c8 41 17 93 27 135l129 498h189z" />
    <glyph glyph-name="W" unicode="W" horiz-adv-x="995" 
d="M958 743l-124 -743h-227l-87 353c-8 33 -15 71 -21 102h-3c-6 -31 -13 -69 -21 -102l-86 -353h-228l-124 743h186l61 -406c7 -48 13 -99 18 -142h4c10 44 19 90 29 132l67 276h193l67 -278c10 -41 20 -87 29 -130h4c4 44 10 91 17 142l62 406h184z" />
    <glyph glyph-name="X" unicode="X" horiz-adv-x="735" 
d="M711 0h-200l-160 238l-154 -238h-173l241 379l-237 364h199l156 -230l147 230h173l-235 -370z" />
    <glyph glyph-name="Y" unicode="Y" horiz-adv-x="706" 
d="M692 743l-248 -475v-268h-182v268l-248 475h191l100 -197c16 -34 34 -77 47 -114h5c12 37 33 80 49 114l100 197h186z" />
    <glyph glyph-name="Z" unicode="Z" horiz-adv-x="658" 
d="M607 0h-556v142l331 462h-322v139h538v-144l-330 -460h339v-139z" />
    <glyph glyph-name="bracketleft" unicode="[" horiz-adv-x="437" 
d="M389 -202h-308v945h308v-130h-134v-686h134v-129z" />
    <glyph glyph-name="backslash" unicode="\" horiz-adv-x="511" 
d="M482 0h-176l-278 743h175z" />
    <glyph glyph-name="bracketright" unicode="]" horiz-adv-x="437" 
d="M355 -202h-308v129h134v686h-134v130h308v-945z" />
    <glyph glyph-name="asciicircum" unicode="^" horiz-adv-x="677" 
d="M619 428h-164l-117 249l-117 -249h-164l157 317h248z" />
    <glyph glyph-name="underscore" unicode="_" horiz-adv-x="612" 
d="M602 -138h-593v90h593v-90z" />
    <glyph glyph-name="quoteleft" unicode="&#x2018;" horiz-adv-x="256" 
d="M236 779l-60 -256h-156l96 256h120z" />
    <glyph glyph-name="a" unicode="a" horiz-adv-x="609" 
d="M547 0h-159v37c-37 -25 -103 -52 -179 -52c-108 0 -167 55 -167 163v23c0 152 116 170 278 170h53v31c0 70 -15 84 -105 84c-51 0 -120 -3 -184 -10v104c32 12 124 35 220 35c178 0 243 -58 243 -213v-372zM379 123v128h-58c-79 0 -113 -9 -113 -74v-23
c0 -45 27 -58 65 -58c45 0 89 17 106 27z" />
    <glyph glyph-name="b" unicode="b" horiz-adv-x="653" 
d="M606 256c0 -197 -98 -271 -287 -271c-80 0 -141 4 -251 16v778h175v-214c33 14 75 21 116 21c169 0 247 -82 247 -260v-70zM433 257v70c0 96 -23 126 -98 126c-21 0 -66 -3 -94 -17v-315c18 -1 47 -3 80 -3c80 0 112 29 112 139z" />
    <glyph glyph-name="c" unicode="c" horiz-adv-x="533" 
d="M492 7c-33 -8 -100 -22 -191 -22c-175 0 -254 92 -254 268v64c0 180 79 268 254 268c91 0 158 -14 191 -22v-119c-76 5 -125 8 -158 8c-76 0 -114 -23 -114 -135v-64c0 -112 39 -136 114 -136c33 0 82 3 158 8v-118z" />
    <glyph glyph-name="d" unicode="d" horiz-adv-x="654" 
d="M585 0h-161v29c-39 -24 -93 -44 -161 -44c-136 0 -216 83 -216 262v70c0 200 99 268 259 268c41 0 73 -4 105 -9v203h174v-779zM413 137v309c-31 5 -64 8 -86 8c-71 0 -106 -21 -106 -137v-70c0 -96 25 -130 98 -130c33 0 65 8 94 20z" />
    <glyph glyph-name="e" unicode="e" horiz-adv-x="637" 
d="M594 238h-375v-8c0 -75 10 -116 133 -116c58 0 118 4 214 11v-115c-44 -11 -124 -25 -222 -25c-209 0 -297 73 -297 282v31c0 199 95 287 275 287c214 0 272 -136 272 -300v-47zM423 333v8c0 63 -13 120 -102 120c-86 0 -101 -58 -101 -120v-8h203z" />
    <glyph glyph-name="f" unicode="f" horiz-adv-x="457" 
d="M426 446h-133v-446h-174v446l-95 9v115h95v47c0 115 45 178 173 178c52 0 101 -8 135 -17v-98c-32 1 -57 3 -80 3c-50 0 -54 -18 -54 -68v-45h133v-124z" />
    <glyph glyph-name="g" unicode="g" horiz-adv-x="655" 
d="M587 -15c0 -127 -60 -201 -269 -201c-109 0 -216 18 -236 23v104c65 -3 153 -8 222 -8c98 0 109 25 109 82v19c-19 -3 -60 -8 -91 -8c-175 0 -273 78 -273 265v58c0 184 91 266 304 266c83 0 167 -7 234 -15v-585zM414 132v317c-11 2 -42 5 -78 5
c-90 0 -114 -42 -114 -135v-58c0 -99 30 -134 113 -134c30 0 67 3 79 5z" />
    <glyph glyph-name="h" unicode="h" 
d="M606 0h-174v359c0 74 -19 95 -75 95c-44 0 -89 -15 -115 -27v-427h-174v779h174v-234c44 22 107 40 171 40c158 0 193 -92 193 -224v-361z" />
    <glyph glyph-name="i" unicode="i" horiz-adv-x="318" 
d="M246 0h-174v570h174v-570zM250 648h-181v131h181v-131z" />
    <glyph glyph-name="j" unicode="j" horiz-adv-x="318" 
d="M246 -35c0 -139 -52 -183 -184 -183c-40 0 -82 4 -98 8v110c19 0 37 -1 56 -1c45 0 52 15 52 66v605h174v-605zM250 648h-181v131h181v-131z" />
    <glyph glyph-name="k" unicode="k" horiz-adv-x="624" 
d="M615 0h-197l-176 264v-264h-174v779h174v-461l179 252h186l-198 -274z" />
    <glyph glyph-name="l" unicode="l" horiz-adv-x="317" 
d="M246 0h-174v779h174v-779z" />
    <glyph glyph-name="m" unicode="m" horiz-adv-x="962" 
d="M897 0h-174v371c0 54 -1 84 -60 84c-27 0 -64 -11 -96 -28c3 -18 3 -38 3 -56v-371h-174v371c0 54 -2 84 -56 84c-33 0 -70 -15 -98 -29v-426h-174v570h164v-45c47 37 109 60 172 60c70 0 110 -23 135 -62c64 44 127 62 180 62c157 0 178 -99 178 -210v-375z" />
    <glyph glyph-name="n" unicode="n" horiz-adv-x="671" 
d="M606 0h-174v361c0 69 -13 93 -68 93c-32 0 -76 -13 -122 -32v-422h-174v570h164v-46c58 36 122 61 187 61c172 0 187 -100 187 -224v-361z" />
    <glyph glyph-name="o" unicode="o" horiz-adv-x="642" 
d="M595 253c0 -187 -100 -268 -275 -268c-173 0 -273 81 -273 268v63c0 188 100 269 273 269c175 0 275 -81 275 -269v-63zM421 253v63c0 101 -30 136 -101 136c-70 0 -100 -35 -100 -136v-63c0 -101 30 -136 100 -136c71 0 101 35 101 136z" />
    <glyph glyph-name="p" unicode="p" horiz-adv-x="654" 
d="M607 263c0 -207 -102 -277 -265 -277c-33 0 -76 4 -100 9v-198h-174v773h161v-36c53 36 113 51 169 51c128 0 209 -70 209 -271v-51zM433 263v51c0 109 -27 138 -93 138c-29 0 -57 -5 -100 -24v-303c31 -5 59 -9 86 -9c71 0 107 24 107 147z" />
    <glyph glyph-name="q" unicode="q" horiz-adv-x="652" 
d="M584 -203h-173v210c-41 -16 -83 -22 -124 -22c-165 0 -240 78 -240 272v48c0 220 100 280 292 280c78 0 136 -4 245 -16v-772zM411 136v312c-18 2 -55 4 -77 4c-79 0 -114 -15 -114 -148v-47c0 -107 20 -139 89 -139c23 0 60 3 102 18z" />
    <glyph glyph-name="r" unicode="r" horiz-adv-x="435" 
d="M418 439c-63 0 -131 -11 -176 -26v-413h-174v570h162v-47c56 51 126 62 188 62v-146z" />
    <glyph glyph-name="s" unicode="s" horiz-adv-x="543" 
d="M507 167c0 -122 -80 -181 -252 -181c-80 0 -172 13 -204 22v106c25 -1 117 -11 195 -11c70 0 93 16 93 51c0 34 -18 41 -90 68l-46 17c-106 41 -161 90 -161 184c0 125 89 162 235 162c84 0 166 -12 202 -23v-109c-68 6 -126 10 -186 10c-56 0 -84 -2 -84 -36
c0 -30 18 -37 78 -60l50 -18c127 -46 170 -92 170 -182z" />
    <glyph glyph-name="t" unicode="t" horiz-adv-x="452" 
d="M421 1c-15 -4 -69 -16 -127 -16c-121 0 -174 48 -174 174v287l-99 9v115h99v144h174v-144h128v-124h-128v-285c0 -47 3 -57 47 -57c27 0 66 2 80 4v-107z" />
    <glyph glyph-name="u" unicode="u" 
d="M605 0h-164v46c-60 -35 -125 -61 -200 -61c-156 0 -174 109 -174 224v361h174v-361c0 -69 12 -93 68 -93c33 0 75 13 122 32v422h174v-570z" />
    <glyph glyph-name="v" unicode="v" horiz-adv-x="620" 
d="M602 570l-168 -570h-248l-168 570h179l79 -310c13 -53 24 -108 35 -154c10 46 21 101 34 154l78 310h179z" />
    <glyph glyph-name="w" unicode="w" horiz-adv-x="936" 
d="M908 570l-120 -570h-215l-76 244c-13 43 -22 79 -27 114h-4c-5 -35 -14 -71 -28 -114l-76 -244h-214l-120 570h176l52 -282c9 -51 16 -97 18 -136h4c10 41 21 90 35 136l63 199h184l63 -199c15 -46 25 -95 36 -136h4c2 39 7 85 17 137l52 281h176z" />
    <glyph glyph-name="x" unicode="x" horiz-adv-x="615" 
d="M215 570l102 -155l101 155h178l-192 -285l189 -285h-193l-108 163l-106 -163h-178l198 293l-184 277h193z" />
    <glyph glyph-name="y" unicode="y" horiz-adv-x="637" 
d="M616 570l-181 -574c-48 -151 -103 -212 -238 -212c-62 0 -122 5 -161 13v111c49 -2 73 -2 108 -2c42 0 62 16 77 69l9 31l-207 564h187l84 -293c14 -48 22 -99 36 -151c10 52 20 101 33 152l76 292h177z" />
    <glyph glyph-name="z" unicode="z" horiz-adv-x="548" 
d="M505 0h-465v128l269 317h-260v125h455v-130l-267 -317h268v-123z" />
    <glyph glyph-name="braceleft" unicode="{" horiz-adv-x="462" 
d="M414 -203h-64c-193 0 -245 43 -245 187v133c0 63 -17 80 -60 106v95c43 25 60 43 60 105v133c0 145 52 187 245 187h63v-130h-61c-64 0 -73 -6 -73 -57v-133c0 -83 -22 -119 -80 -153c57 -35 80 -70 80 -153v-133c0 -51 9 -58 73 -58h62v-129z" />
    <glyph glyph-name="bar" unicode="|" horiz-adv-x="336" 
d="M254 -203h-173v946h173v-946z" />
    <glyph glyph-name="braceright" unicode="}" horiz-adv-x="462" 
d="M417 223c-42 -26 -59 -43 -59 -106v-133c0 -144 -52 -187 -246 -187h-63v129h61c65 0 73 7 73 58v133c0 83 23 118 80 153c-57 34 -80 70 -80 153v133c0 50 -8 57 -73 57h-61v130h63c194 0 246 -42 246 -187v-133c0 -62 17 -80 59 -105v-95z" />
    <glyph glyph-name="asciitilde" unicode="~" horiz-adv-x="677" 
d="M602 488c0 -114 -39 -167 -132 -167c-49 0 -82 7 -125 32l-61 37c-22 13 -35 22 -55 22c-29 0 -36 -17 -36 -53v-32h-120v32c0 120 55 168 141 168c41 0 72 -12 112 -36l60 -36c24 -13 39 -20 62 -20c31 0 35 20 35 53v32h119v-32z" />
    <glyph glyph-name="exclamdown" unicode="&#xa1;" horiz-adv-x="330" 
d="M262 -206h-194l17 557h160zM254 574v-165h-179v165h179z" />
    <glyph glyph-name="cent" unicode="&#xa2;" horiz-adv-x="542" 
d="M493 563v-118c-57 5 -114 7 -157 7c-77 0 -114 -23 -114 -135v-64c0 -112 37 -136 114 -136c40 0 95 3 157 7v-117c-20 -6 -65 -15 -122 -19v-109h-144v114c-121 24 -178 114 -178 260v64c0 146 57 235 178 260v113h144v-109c59 -4 106 -14 122 -18z" />
    <glyph glyph-name="sterling" unicode="&#xa3;" horiz-adv-x="659" 
d="M606 739v-125c-35 2 -123 8 -188 8c-97 0 -109 -26 -109 -124v-55h208v-121h-208v-101c0 -35 -10 -63 -26 -88h323v-133h-525v109c34 33 46 72 46 112v101h-75v121h75v54c0 183 69 263 262 263c84 0 163 -9 217 -21z" />
    <glyph glyph-name="fraction" unicode="&#x2044;" horiz-adv-x="556" 
d="M600 745l-497 -745h-147l496 745h148z" />
    <glyph glyph-name="yen" unicode="&#xa5;" horiz-adv-x="748" 
d="M700 205h-237v-205h-181v205h-237v99h220l-49 88h-171v100h119l-133 251h193l101 -197c16 -34 34 -77 47 -114h4c13 37 33 80 49 114l100 197h189l-133 -251h119v-100h-171l-50 -88h221v-99z" />
    <glyph glyph-name="florin" unicode="&#x192;" horiz-adv-x="662" 
d="M613 743l-12 -99c-35 2 -53 3 -72 3c-45 0 -64 -8 -72 -65l-18 -130h147l-15 -120h-149l-43 -322c-18 -135 -95 -171 -196 -171c-58 0 -101 8 -134 15l13 100c32 -2 52 -3 74 -3c40 0 60 6 69 64l43 317h-132l16 120h132l19 135c18 136 95 172 199 172
c54 0 99 -8 131 -16z" />
    <glyph glyph-name="section" unicode="&#xa7;" horiz-adv-x="687" 
d="M84 -195v123c70 -5 163 -11 234 -11c91 0 115 29 115 81c0 45 -12 67 -104 103l-113 44c-101 37 -151 95 -151 196c0 37 10 80 32 113c-21 30 -31 64 -31 112c0 129 93 191 286 191c103 0 207 -17 242 -25v-120c-53 4 -150 12 -232 12c-84 0 -114 -19 -114 -67
c0 -40 14 -63 83 -90l112 -43c139 -50 179 -112 179 -206c0 -34 -7 -72 -34 -112c22 -30 33 -67 33 -107c0 -145 -100 -217 -286 -217c-83 0 -186 11 -251 23zM477 172v26c0 58 -7 80 -90 111l-112 42c-42 16 -60 29 -76 48v-34c0 -66 6 -81 86 -110l114 -43
c34 -11 55 -25 78 -40z" />
    <glyph glyph-name="currency" unicode="&#xa4;" horiz-adv-x="665" 
d="M606 183l-77 -75l-80 77c-35 -20 -76 -31 -115 -31c-41 0 -81 10 -117 32l-82 -79l-76 74l81 79c-21 34 -32 75 -32 114s10 78 32 112l-82 80l77 73l81 -78c36 21 78 31 118 31c41 0 81 -9 116 -31l80 76l76 -74l-79 -77c21 -35 33 -74 33 -113s-11 -79 -33 -114z
M456 374c0 66 -57 119 -122 119c-67 0 -123 -53 -123 -119c0 -68 58 -120 123 -120c64 0 122 53 122 120z" />
    <glyph glyph-name="quotesingle" unicode="'" horiz-adv-x="232" 
d="M212 770l-69 -262h-123l39 262h153z" />
    <glyph glyph-name="quotedblleft" unicode="&#x201c;" horiz-adv-x="480" 
d="M460 779l-61 -256h-156l96 256h121zM115 779h121l-60 -256h-156z" />
    <glyph glyph-name="guillemotleft" unicode="&#xab;" horiz-adv-x="773" 
d="M726 70h-180l-154 222l154 221h180l-150 -221zM230 292l150 -222h-180l-154 222l154 221h180z" />
    <glyph glyph-name="guilsinglleft" unicode="&#x2039;" horiz-adv-x="425" 
d="M378 70h-180l-152 222l152 221h180l-148 -221z" />
    <glyph glyph-name="guilsinglright" unicode="&#x203a;" horiz-adv-x="425" 
d="M379 292l-153 -222h-179l148 222l-148 221h179z" />
    <glyph glyph-name="endash" unicode="&#x2013;" horiz-adv-x="474" 
d="M416 234h-359v122h359v-122z" />
    <glyph glyph-name="dagger" unicode="&#x2020;" horiz-adv-x="539" 
d="M480 452h-127v-582h-174v582h-120v132h120v194h174v-194h127v-132z" />
    <glyph glyph-name="daggerdbl" unicode="&#x2021;" horiz-adv-x="539" 
d="M480 214h-127v-344h-174v344h-120v132h120v116h-120v132h120v183h174v-183h127v-132h-127v-116h127v-132z" />
    <glyph glyph-name="periodcentered" unicode="&#xb7;" horiz-adv-x="302" 
d="M233 286h-165v165h165v-165z" />
    <glyph glyph-name="paragraph" unicode="&#xb6;" horiz-adv-x="753" 
d="M522 -196h-107v440h-49c-174 0 -312 48 -312 245v10c0 199 138 244 317 244h320v-939h-106v834h-64z" />
    <glyph glyph-name="bullet" unicode="&#x2022;" horiz-adv-x="513" 
d="M447 367c0 -102 -86 -184 -191 -184s-190 82 -190 184c0 103 85 185 190 185s191 -82 191 -185z" />
    <glyph glyph-name="quotesinglbase" unicode="&#x201a;" horiz-adv-x="256" 
d="M236 157l-95 -256h-121l60 256h156z" />
    <glyph glyph-name="quotedblbase" unicode="&#x201e;" horiz-adv-x="480" 
d="M460 157l-95 -256h-121l61 256h155zM80 157h156l-95 -256h-121z" />
    <glyph glyph-name="quotedblright" unicode="&#x201d;" horiz-adv-x="480" 
d="M20 523l61 256h156l-96 -256h-121zM365 523h-121l60 256h156z" />
    <glyph glyph-name="guillemotright" unicode="&#xbb;" horiz-adv-x="773" 
d="M727 292l-154 -222h-179l148 222l-148 221h179zM226 513l155 -221l-155 -222h-179l150 222l-150 221h179z" />
    <glyph glyph-name="ellipsis" unicode="&#x2026;" horiz-adv-x="942" 
d="M238 0h-175v164h175v-164zM558 0h-174v164h174v-164zM879 0h-175v164h175v-164z" />
    <glyph glyph-name="perthousand" unicode="&#x2030;" horiz-adv-x="1593" 
d="M1545 202c0 -138 -64 -212 -196 -212c-133 0 -197 74 -197 212v37c0 139 64 212 197 212c132 0 196 -73 196 -212v-37zM1415 202v37c0 96 -27 117 -66 117c-41 0 -67 -21 -67 -117v-37c0 -96 26 -117 67 -117c39 0 66 21 66 117zM1099 202c0 -138 -65 -212 -197 -212
s-196 74 -196 212v37c0 139 64 212 196 212s197 -73 197 -212v-37zM969 202v37c0 96 -27 117 -67 117s-66 -21 -66 -117v-37c0 -96 26 -117 66 -117s67 21 67 117zM892 745l-496 -745h-147l497 745h146zM440 511c0 -131 -55 -212 -196 -212c-142 0 -196 84 -196 212v36
c0 129 54 212 196 212c141 0 196 -80 196 -212v-36zM310 511v36c0 94 -19 118 -66 118s-66 -27 -66 -118v-36c0 -93 19 -117 66 -117s66 24 66 117z" />
    <glyph glyph-name="questiondown" unicode="&#xbf;" horiz-adv-x="541" 
d="M509 -185c-56 -20 -135 -31 -217 -31c-156 0 -237 50 -237 167v7c0 67 25 117 103 191c94 92 105 121 105 177v26h151v-26c0 -84 -6 -131 -76 -206c-63 -69 -79 -97 -79 -134v-6c0 -46 30 -58 96 -58c46 0 105 4 154 8v-115zM425 412h-175v164h175v-164z" />
    <glyph glyph-name="grave" unicode="`" horiz-adv-x="485" 
d="M374 631h-162l-167 146h198z" />
    <glyph glyph-name="acute" unicode="&#xb4;" horiz-adv-x="485" 
d="M433 777l-167 -146h-163l132 146h198z" />
    <glyph glyph-name="circumflex" unicode="&#x2c6;" horiz-adv-x="545" 
d="M511 631h-152l-87 82l-86 -82h-153l135 146h208z" />
    <glyph glyph-name="tilde" unicode="&#x2dc;" horiz-adv-x="516" 
d="M487 766c0 -101 -50 -139 -119 -139c-31 0 -63 8 -105 30l-47 26c-22 13 -37 21 -54 21c-24 0 -31 -17 -31 -48v-24h-98v24c0 101 52 139 122 139c34 0 58 -7 99 -29l48 -26c21 -12 37 -21 57 -21c24 0 30 15 30 47v24h98v-24z" />
    <glyph glyph-name="macron" unicode="&#xaf;" horiz-adv-x="503" 
d="M456 653h-409v99h409v-99z" />
    <glyph glyph-name="breve" unicode="&#x2d8;" horiz-adv-x="513" 
d="M464 788c-13 -114 -107 -159 -208 -159c-100 0 -194 45 -207 159h101c8 -60 51 -77 106 -77c57 0 99 17 108 77h100z" />
    <glyph glyph-name="dotaccent" unicode="&#x2d9;" horiz-adv-x="426" 
d="M303 651h-180v127h180v-127z" />
    <glyph glyph-name="dieresis" unicode="&#xa8;" horiz-adv-x="508" 
d="M451 645h-139v127h139v-127zM197 772v-127h-140v127h140z" />
    <glyph glyph-name="ring" unicode="&#x2da;" horiz-adv-x="445" 
d="M365 738c0 -79 -60 -121 -141 -121c-82 0 -144 42 -144 121c0 80 62 122 144 122c81 0 141 -42 141 -122zM279 739c0 34 -24 48 -55 48c-33 0 -56 -14 -56 -48s23 -48 56 -48c31 0 55 14 55 48z" />
    <glyph glyph-name="cedilla" unicode="&#xb8;" horiz-adv-x="454" 
d="M347 -63l-131 -140h-159l105 140h185z" />
    <glyph glyph-name="hungarumlaut" unicode="&#x2dd;" horiz-adv-x="621" 
d="M675 776l-167 -146h-150l132 146h185zM216 776h184l-166 -146h-150z" />
    <glyph glyph-name="ogonek" unicode="&#x2db;" horiz-adv-x="458" 
d="M380 -200c-23 -7 -75 -17 -135 -17c-97 0 -151 33 -151 99c0 52 50 101 158 128l128 -10c-115 -42 -137 -67 -137 -89c0 -23 14 -35 53 -35c29 0 58 3 84 5v-81z" />
    <glyph glyph-name="caron" unicode="&#x2c7;" horiz-adv-x="545" 
d="M33 777h153l86 -82l87 82h152l-135 -146h-208z" />
    <glyph glyph-name="emdash" unicode="&#x2014;" horiz-adv-x="650" 
d="M592 234h-535v122h535v-122z" />
    <glyph glyph-name="AE" unicode="&#xc6;" horiz-adv-x="1031" 
d="M984 0h-506v187h-195l-53 -187h-190l201 743h743v-136h-319v-162h298v-129h-298v-181h319v-135zM478 320v310h-90c-9 -35 -16 -74 -25 -109l-54 -201h169z" />
    <glyph glyph-name="ordfeminine" unicode="&#xaa;" horiz-adv-x="458" 
d="M388 412h-113v25c-24 -16 -68 -34 -118 -34c-68 0 -110 36 -110 104v13c0 99 83 107 185 107h32v17c0 41 -9 50 -66 50c-39 0 -88 -4 -123 -7v71c27 10 85 23 150 23c116 0 163 -36 163 -137v-232zM269 498v69h-36c-49 0 -70 -4 -70 -42v-13c0 -27 18 -30 41 -30
c26 0 54 9 65 16z" />
    <glyph glyph-name="Lslash" unicode="&#x141;" horiz-adv-x="579" 
d="M8 220v108l65 51v364h188v-255l96 75v-108l-96 -75v-239h291v-141h-479v273z" />
    <glyph glyph-name="Oslash" unicode="&#xd8;" horiz-adv-x="745" 
d="M696 333c0 -257 -131 -350 -324 -350c-73 0 -137 14 -189 44l-20 -27h-137l78 103c-35 55 -55 130 -55 230v76c0 258 132 350 323 350c74 0 140 -14 192 -46l23 30h138l-82 -109c34 -54 53 -128 53 -225v-76zM233 334c0 -21 1 -40 3 -57l229 304c-23 23 -54 33 -93 33
c-88 0 -139 -50 -139 -205v-75zM512 334v75c0 18 -1 34 -2 49l-228 -300c23 -22 53 -30 90 -30c88 0 140 48 140 206z" />
    <glyph glyph-name="OE" unicode="&#x152;" horiz-adv-x="1016" 
d="M970 135v-135h-442c-54 -9 -105 -17 -164 -17c-185 0 -318 89 -318 348v79c0 258 133 349 318 349c55 0 111 -7 163 -16h443v-136h-319v-162h297v-129h-297v-181h319zM467 134v473c-38 5 -61 7 -93 7c-93 0 -144 -48 -144 -204v-79c0 -155 52 -204 144 -204
c31 0 49 1 93 7z" />
    <glyph glyph-name="ordmasculine" unicode="&#xba;" horiz-adv-x="463" 
d="M415 576c0 -122 -68 -173 -184 -173c-115 0 -184 51 -184 173v32c0 123 69 173 184 173c116 0 184 -50 184 -173v-32zM293 576v32c0 62 -18 81 -62 81c-43 0 -62 -19 -62 -81v-32c0 -61 18 -81 62 -81s62 20 62 81z" />
    <glyph glyph-name="ae" unicode="&#xe6;" horiz-adv-x="963" 
d="M893 9c-45 -11 -136 -23 -231 -23c-101 0 -176 20 -220 67c-74 -51 -143 -67 -233 -67c-108 0 -167 54 -167 162v23c0 152 116 170 278 170h53v31c0 66 -13 84 -104 84c-54 0 -115 -3 -185 -9v103c32 12 123 35 220 35c95 0 142 -16 175 -45c41 28 94 44 169 44
c213 0 272 -138 272 -284v-62h-374v-8c0 -74 9 -121 132 -121c67 0 157 4 215 11v-111zM750 333v8c0 63 -13 120 -102 120c-87 0 -101 -58 -101 -120v-8h203zM379 123v128h-58c-79 0 -113 -9 -113 -74v-23c0 -45 26 -58 65 -58c44 0 88 17 106 27z" />
    <glyph glyph-name="dotlessi" unicode="&#x131;" horiz-adv-x="318" 
d="M246 0h-174v570h174v-570z" />
    <glyph glyph-name="lslash" unicode="&#x142;" horiz-adv-x="352" 
d="M263 0h-174v266l-77 -68v132l77 68v381h174v-228l77 68v-132l-77 -68v-419z" />
    <glyph glyph-name="oslash" unicode="&#xf8;" horiz-adv-x="642" 
d="M595 253c0 -187 -100 -268 -275 -268c-67 0 -123 13 -167 38l-30 -38h-100l72 90c-31 42 -48 101 -48 178v63c0 188 100 269 273 269c64 0 118 -11 160 -34l28 34h100l-68 -83c36 -44 55 -105 55 -186v-63zM421 253v63c0 13 -1 25 -2 36l-170 -211c16 -17 39 -24 71 -24
c71 0 101 35 101 136zM220 229l165 204c-16 13 -37 19 -65 19c-70 0 -100 -35 -100 -136v-87z" />
    <glyph glyph-name="oe" unicode="&#x153;" horiz-adv-x="1014" 
d="M968 238h-374v-8c0 -74 8 -121 132 -121c66 0 156 4 214 11v-111c-44 -11 -136 -23 -231 -23c-98 0 -163 23 -202 60c-44 -40 -106 -61 -188 -61c-173 0 -273 81 -273 268v63c0 188 100 269 273 269c83 0 147 -21 189 -62c42 41 107 62 188 62c213 0 272 -139 272 -285
v-62zM798 333v8c0 63 -14 121 -102 121c-86 0 -101 -57 -102 -112v-17h204zM420 253v63c0 101 -30 137 -101 137c-70 0 -100 -36 -100 -137v-63c0 -101 30 -136 100 -136c71 0 101 35 101 136z" />
    <glyph glyph-name="germandbls" unicode="&#xdf;" horiz-adv-x="704" 
d="M654 217c0 -137 -76 -228 -248 -228c-32 0 -61 3 -91 7v124h43c89 0 124 33 124 106v17c0 65 -36 101 -127 101h-40v110h40c87 0 117 36 117 99v9c0 54 -23 92 -111 92c-86 0 -117 -36 -117 -145v-509h-174v509c0 174 74 278 295 278c209 0 272 -105 272 -215v-10
c0 -66 -27 -125 -91 -157c75 -34 108 -104 108 -170v-18z" />
    <glyph glyph-name="one.superior" unicode="&#xb9;" horiz-adv-x="407" 
d="M353 338h-291v85l80 4v246l-81 -26v96l118 44h93v-360l81 -4v-85z" />
    <glyph glyph-name="logicalnot" unicode="&#xac;" horiz-adv-x="677" 
d="M582 183h-136v271h-352v132h488v-403z" />
    <glyph glyph-name="mu" unicode="&#xb5;" horiz-adv-x="711" 
d="M620 0h-164v46c-52 -28 -100 -46 -147 -51c-20 -1 -37 0 -53 3v-200h-174v772h174v-361c0 -69 12 -93 68 -93c33 0 75 13 122 32v422h174v-570z" />
    <glyph glyph-name="trademark" unicode="&#x2122;" horiz-adv-x="974" 
d="M900 335h-117v189c0 23 1 47 3 70h-1c-10 -19 -19 -38 -30 -53l-50 -72h-60l-49 72c-10 14 -21 35 -30 53h-1c2 -23 3 -47 3 -70v-189h-116v414h115l82 -125c10 -14 18 -29 26 -47h1c9 18 16 32 26 47l82 125h116v-414zM393 664h-117v-329h-120v329h-117v85h354v-85z" />
    <glyph glyph-name="Eth" unicode="&#xd0;" horiz-adv-x="738" 
d="M689 335c0 -238 -105 -344 -360 -344c-88 0 -170 2 -256 9v318h-50v126h50v299c86 7 168 9 256 9c250 0 360 -106 360 -340v-77zM505 335v77c0 158 -49 199 -174 199h-76v-167h110v-126h-110v-187h76c125 0 174 46 174 204z" />
    <glyph glyph-name="onehalf" unicode="&#xbd;" horiz-adv-x="1093" 
d="M843 745l-496 -745h-148l497 745h147zM353 302h-291v85l80 4v246l-81 -26v96l118 44h93v-360l81 -4v-85zM704 364v75c36 10 110 18 165 18c127 0 183 -36 183 -119c0 -63 -34 -99 -131 -143c-86 -39 -98 -53 -98 -100v-4h220v-91h-346v55c0 112 39 154 140 204
c78 38 85 47 85 75c0 27 -18 37 -75 37c-50 0 -121 -5 -143 -7z" />
    <glyph glyph-name="plusminus" unicode="&#xb1;" horiz-adv-x="677" 
d="M598 0h-520v107h520v-107zM600 370h-195v-186h-132v186h-197v131h197v185h132v-185h195v-131z" />
    <glyph glyph-name="Thorn" unicode="&#xde;" horiz-adv-x="697" 
d="M253 0h-180v754h180v-112c29 1 58 1 79 1c181 0 334 -38 334 -242v-12c0 -204 -155 -244 -331 -244c-27 0 -47 0 -82 1v-146zM485 390v12c-1 84 -50 102 -155 102c-28 0 -59 -1 -77 -1v-216c19 -1 48 -1 78 -1c104 0 154 20 154 104z" />
    <glyph glyph-name="onequarter" unicode="&#xbc;" horiz-adv-x="1002" 
d="M843 745l-496 -745h-148l497 745h147zM353 302h-291v85l80 4v246l-81 -26v96l118 44h93v-360l81 -4v-85zM895 0h-128v98h-213v82l236 267h105v-265h60v-84h-60v-98zM774 182v136l-119 -136h119z" />
    <glyph glyph-name="divide" unicode="&#xf7;" horiz-adv-x="677" 
d="M423 75h-170v153h170v-153zM591 452v-132h-506v132h506zM423 541h-170v154h170v-154z" />
    <glyph glyph-name="brokenbar" unicode="&#xa6;" horiz-adv-x="336" 
d="M254 353h-173v389h173v-389zM254 187v-390h-173v390h173z" />
    <glyph glyph-name="degree" unicode="&#xb0;" horiz-adv-x="432" 
d="M387 595c0 -91 -76 -164 -171 -164s-171 73 -171 164s76 165 171 165s171 -74 171 -165zM298 595c0 47 -37 80 -83 80c-45 0 -81 -33 -81 -80c0 -45 36 -79 81 -79c46 0 83 34 83 79z" />
    <glyph glyph-name="thorn" unicode="&#xfe;" horiz-adv-x="654" 
d="M242 -203h-174v982h163v-244c55 35 108 50 165 50c130 0 211 -73 211 -263v-68c0 -197 -102 -269 -264 -269c-34 0 -70 4 -101 9v-197zM433 254v68c0 98 -27 130 -93 130c-29 0 -57 -5 -100 -24v-304c31 -5 64 -8 86 -8c71 0 107 25 107 138z" />
    <glyph glyph-name="threequarters" unicode="&#xbe;" horiz-adv-x="1061" 
d="M878 745l-498 -745h-147l497 745h148zM212 292c-63 0 -137 11 -160 20v74c22 -2 97 -6 145 -6c53 0 76 8 76 53c0 39 -9 56 -67 56h-126v81h127c57 0 66 20 66 55c0 36 -17 47 -76 47c-52 0 -106 -5 -145 -7v74c25 9 97 20 160 20c119 0 189 -30 189 -130
c0 -38 -15 -78 -55 -98c41 -19 55 -58 55 -95c0 -106 -60 -144 -189 -144zM950 0h-128v98h-213v82l236 267h105v-265h60v-84h-60v-98zM829 182v136l-119 -136h119z" />
    <glyph glyph-name="two.superior" unicode="&#xb2;" horiz-adv-x="454" 
d="M57 702v75c36 10 110 18 165 18c127 0 183 -36 183 -119c0 -63 -34 -99 -131 -143c-86 -39 -98 -53 -98 -100v-4h220v-91h-346v55c0 112 39 154 140 204c78 38 85 47 85 75c0 27 -18 37 -75 37c-50 0 -121 -5 -143 -7z" />
    <glyph glyph-name="registered" unicode="&#xae;" horiz-adv-x="668" 
d="M610 474c0 -178 -111 -292 -277 -292c-168 0 -278 114 -278 292c0 179 110 293 278 293c166 0 277 -114 277 -293zM534 474c0 139 -77 224 -201 224c-126 0 -203 -85 -203 -224c0 -140 77 -225 203 -225c124 0 201 85 201 225zM475 329h-88l-64 107h-29v-107h-78v303
c42 3 64 3 98 3c79 0 140 -16 140 -98v-4c0 -44 -21 -71 -54 -83zM376 534v3c0 32 -19 38 -59 38h-23v-83h24c40 0 58 8 58 42z" />
    <glyph glyph-name="minus" unicode="&#x2212;" horiz-adv-x="677" 
d="M591 320h-506v132h506v-132z" />
    <glyph glyph-name="eth" unicode="&#xf0;" horiz-adv-x="642" 
d="M595 269c0 -195 -95 -283 -274 -283s-274 83 -274 264v48c0 188 100 266 272 266c29 0 56 -6 79 -17c-26 50 -67 87 -124 109l-115 -83l-43 48l79 58c-28 5 -59 9 -89 9c-8 0 -17 0 -30 -1v100c20 2 40 3 55 3c64 0 119 -9 167 -23l75 55l44 -47l-46 -36
c153 -70 224 -227 224 -416v-54zM421 250v57c0 91 -30 125 -100 125c-71 0 -101 -35 -101 -131v-51c0 -99 30 -133 101 -133s100 34 100 133z" />
    <glyph glyph-name="multiply" unicode="&#xd7;" horiz-adv-x="677" 
d="M575 243l-90 -89l-146 141l-148 -143l-90 89l148 144l-148 142l89 89l149 -143l147 143l90 -90l-148 -142z" />
    <glyph glyph-name="three.superior" unicode="&#xb3;" horiz-adv-x="450" 
d="M212 328c-63 0 -137 11 -160 20v74c22 -2 97 -6 145 -6c53 0 76 8 76 53v9c0 30 -9 47 -67 47h-126v81h127c57 0 66 20 66 49v6c0 36 -17 47 -76 47c-52 0 -106 -5 -145 -7v74c25 9 97 20 160 20c119 0 189 -30 189 -124v-6c0 -38 -15 -78 -55 -98c41 -19 55 -58 55 -95
v-9c0 -97 -60 -135 -189 -135z" />
    <glyph glyph-name="copyright" unicode="&#xa9;" horiz-adv-x="859" 
d="M799 374c0 -247 -155 -381 -371 -381s-373 134 -373 381c0 246 157 381 373 381s371 -134 371 -381zM710 374c0 191 -116 300 -282 300c-167 0 -282 -109 -282 -300s115 -301 282 -301c166 0 282 110 282 301zM438 158c-132 0 -194 70 -194 190v52c0 121 62 190 194 190
c40 0 94 -6 115 -13v-84c-42 4 -76 6 -103 6c-65 0 -86 -25 -86 -99v-52c0 -73 21 -99 86 -99c27 0 61 1 103 5v-83c-21 -7 -75 -13 -115 -13z" />
    <glyph glyph-name="Aacute" unicode="&#xc1;" horiz-adv-x="748" 
d="M727 0h-196l-53 187h-211l-54 -187h-192l207 743h290zM453 321l-54 197c-9 36 -17 76 -23 114h-7c-6 -38 -13 -78 -23 -114l-53 -197h160zM600 935l-166 -146h-163l132 146h197z" />
    <glyph glyph-name="Acircumflex" unicode="&#xc2;" horiz-adv-x="748" 
d="M727 0h-196l-53 187h-211l-54 -187h-192l207 743h290zM453 321l-54 197c-9 36 -17 76 -23 114h-7c-6 -38 -13 -78 -23 -114l-53 -197h160zM612 789h-153l-86 82l-87 -82h-152l135 146h208z" />
    <glyph glyph-name="Adieresis" unicode="&#xc4;" horiz-adv-x="748" 
d="M727 0h-196l-53 187h-211l-54 -187h-192l207 743h290zM453 321l-54 197c-10 36 -17 76 -23 114h-7c-6 -38 -13 -78 -23 -114l-53 -197h160zM570 800h-140v127h140v-127zM316 927v-127h-141v127h141z" />
    <glyph glyph-name="Agrave" unicode="&#xc0;" horiz-adv-x="748" 
d="M727 0h-196l-53 187h-211l-54 -187h-192l207 743h290zM453 321l-54 197c-9 36 -17 76 -23 114h-7c-6 -38 -13 -78 -23 -114l-53 -197h160zM489 789h-162l-167 146h198z" />
    <glyph glyph-name="Aring" unicode="&#xc5;" horiz-adv-x="748" 
d="M727 0h-196l-53 187h-211l-54 -187h-192l207 743h290zM453 321l-54 197c-9 36 -17 76 -23 114h-7c-6 -38 -13 -78 -23 -114l-53 -197h160zM516 896c0 -80 -60 -122 -141 -122c-82 0 -144 42 -144 122c0 79 62 122 144 122c81 0 141 -43 141 -122zM430 896
c0 34 -23 48 -55 48s-56 -14 -56 -48c0 -33 23 -48 56 -48c32 0 55 15 55 48z" />
    <glyph glyph-name="Atilde" unicode="&#xc3;" horiz-adv-x="748" 
d="M727 0h-196l-53 187h-211l-54 -187h-192l207 743h290zM453 321l-54 197c-9 36 -17 76 -23 114h-7c-6 -38 -13 -78 -23 -114l-53 -197h160zM600 924c0 -101 -50 -139 -118 -139c-31 0 -64 8 -105 30l-47 26c-22 13 -37 21 -54 21c-25 0 -31 -17 -31 -48v-24h-99v24
c0 101 52 139 123 139c33 0 58 -7 98 -29l48 -26c22 -12 38 -21 57 -21c25 0 31 15 31 47v24h97v-24z" />
    <glyph glyph-name="Ccedilla" unicode="&#xc7;" horiz-adv-x="616" 
d="M584 3c-37 -9 -140 -20 -201 -20c-212 0 -334 78 -334 346v86c0 268 122 344 334 344c61 0 164 -11 201 -21v-133c-50 4 -122 9 -183 9c-110 0 -163 -37 -163 -199v-86c0 -163 53 -201 164 -201c61 0 132 4 182 8v-133zM458 -63l-132 -140h-159l105 140h186z" />
    <glyph glyph-name="Eacute" unicode="&#xc9;" horiz-adv-x="628" 
d="M579 0h-506v743h506v-136h-319v-162h298v-129h-298v-181h319v-135zM560 935l-166 -146h-163l132 146h197z" />
    <glyph glyph-name="Ecircumflex" unicode="&#xca;" horiz-adv-x="628" 
d="M579 0h-506v743h506v-136h-319v-162h298v-129h-298v-181h319v-135zM566 789h-152l-87 82l-86 -82h-152l135 146h208z" />
    <glyph glyph-name="Edieresis" unicode="&#xcb;" horiz-adv-x="628" 
d="M579 0h-506v743h506v-136h-319v-162h298v-129h-298v-181h319v-135zM525 800h-140v127h140v-127zM271 927v-127h-141v127h141z" />
    <glyph glyph-name="Egrave" unicode="&#xc8;" horiz-adv-x="628" 
d="M579 0h-506v743h506v-136h-319v-162h298v-129h-298v-181h319v-135zM432 789h-162l-167 146h198z" />
    <glyph glyph-name="Iacute" unicode="&#xcd;" horiz-adv-x="333" 
d="M260 0h-187v743h187v-743zM393 934l-167 -146h-162l131 146h198z" />
    <glyph glyph-name="Icircumflex" unicode="&#xce;" horiz-adv-x="333" 
d="M260 0h-187v743h187v-743zM407 789h-153l-86 82l-87 -82h-152l135 146h208z" />
    <glyph glyph-name="Idieresis" unicode="&#xcf;" horiz-adv-x="333" 
d="M260 0h-187v743h187v-743zM109 927v-127h-140v127h140zM363 800h-139v127h139v-127z" />
    <glyph glyph-name="Igrave" unicode="&#xcc;" horiz-adv-x="333" 
d="M260 0h-187v743h187v-743zM292 789h-163l-166 146h197z" />
    <glyph glyph-name="Ntilde" unicode="&#xd1;" horiz-adv-x="776" 
d="M703 0h-194l-215 386c-18 32 -37 69 -52 102h-2c1 -39 3 -80 3 -120v-368h-170v743h191l217 -379c18 -32 38 -72 53 -105h2c-2 35 -3 82 -3 127v357h170v-743zM616 923c0 -101 -50 -139 -119 -139c-31 0 -63 8 -105 30l-47 26c-22 13 -37 20 -54 20
c-24 0 -31 -16 -31 -47v-25h-99v25c0 101 53 139 123 139c34 0 58 -8 99 -29l47 -26c22 -12 38 -21 57 -21c25 0 31 15 31 47v24h98v-24z" />
    <glyph glyph-name="Oacute" unicode="&#xd3;" horiz-adv-x="745" 
d="M696 333c0 -257 -131 -350 -324 -350c-192 0 -323 93 -323 350v76c0 258 132 350 323 350c192 0 324 -92 324 -350v-76zM512 334v75c0 155 -50 205 -140 205c-88 0 -139 -50 -139 -205v-75c0 -158 52 -206 139 -206c88 0 140 48 140 206zM586 935l-166 -146h-163l132 146
h197z" />
    <glyph glyph-name="Ocircumflex" unicode="&#xd4;" horiz-adv-x="745" 
d="M696 333c0 -257 -131 -350 -324 -350c-192 0 -323 93 -323 350v76c0 258 132 350 323 350c192 0 324 -92 324 -350v-76zM512 334v75c0 155 -50 205 -140 205c-88 0 -139 -50 -139 -205v-75c0 -158 52 -206 139 -206c88 0 140 48 140 206zM611 788h-152l-87 82l-86 -82
h-153l135 146h209z" />
    <glyph glyph-name="Odieresis" unicode="&#xd6;" horiz-adv-x="745" 
d="M696 333c0 -257 -131 -350 -324 -350c-192 0 -323 93 -323 350v76c0 258 132 350 323 350c192 0 324 -92 324 -350v-76zM512 334v75c0 155 -50 205 -140 205c-88 0 -139 -50 -139 -205v-75c0 -158 52 -206 139 -206c88 0 140 48 140 206zM570 801h-140v127h140v-127z
M316 928v-127h-141v127h141z" />
    <glyph glyph-name="Ograve" unicode="&#xd2;" horiz-adv-x="745" 
d="M696 333c0 -257 -131 -350 -324 -350c-192 0 -323 93 -323 350v76c0 258 132 350 323 350c192 0 324 -92 324 -350v-76zM512 334v75c0 155 -50 205 -140 205c-88 0 -139 -50 -139 -205v-75c0 -158 52 -206 139 -206c88 0 140 48 140 206zM490 789h-163l-166 146h197z" />
    <glyph glyph-name="Otilde" unicode="&#xd5;" horiz-adv-x="745" 
d="M696 333c0 -257 -131 -350 -324 -350c-192 0 -323 93 -323 350v76c0 258 132 350 323 350c192 0 324 -92 324 -350v-76zM512 334v75c0 155 -50 205 -140 205c-88 0 -139 -50 -139 -205v-75c0 -158 52 -206 139 -206c88 0 140 48 140 206zM599 923
c0 -101 -50 -139 -118 -139c-31 0 -64 8 -105 30l-47 26c-22 13 -37 20 -54 20c-25 0 -31 -16 -31 -47v-25h-99v25c0 101 52 139 123 139c33 0 58 -8 98 -29l48 -26c22 -12 38 -21 57 -21c25 0 31 15 31 47v24h97v-24z" />
    <glyph glyph-name="Scaron" unicode="&#x160;" horiz-adv-x="646" 
d="M84 934h153l86 -82l87 82h152l-134 -146h-209zM601 209c0 -154 -105 -226 -285 -226c-99 0 -203 12 -251 24v122c64 -5 133 -12 230 -12c84 0 119 25 119 81c0 42 -18 59 -88 89l-108 46c-106 45 -172 98 -172 221c0 147 102 205 290 205c99 0 183 -15 227 -25v-120
c-69 6 -134 12 -217 12c-76 0 -116 -15 -116 -66c0 -38 16 -53 84 -81l105 -43c124 -51 182 -110 182 -227z" />
    <glyph glyph-name="Uacute" unicode="&#xda;" horiz-adv-x="763" 
d="M695 301c0 -214 -114 -318 -313 -318s-314 104 -314 318v442h185v-437c0 -132 28 -182 129 -182s130 50 130 182v437h183v-442zM613 935l-166 -145h-163l132 145h197z" />
    <glyph glyph-name="Ucircumflex" unicode="&#xdb;" horiz-adv-x="763" 
d="M695 301c0 -214 -114 -318 -313 -318s-314 104 -314 318v442h185v-437c0 -132 28 -182 129 -182s130 50 130 182v437h183v-442zM621 789h-152l-87 82l-86 -82h-152l135 146h208z" />
    <glyph glyph-name="Udieresis" unicode="&#xdc;" horiz-adv-x="763" 
d="M695 301c0 -214 -114 -318 -313 -318s-314 104 -314 318v442h185v-437c0 -132 28 -182 129 -182s130 50 130 182v437h183v-442zM578 800h-140v127h140v-127zM324 927v-127h-140v127h140z" />
    <glyph glyph-name="Ugrave" unicode="&#xd9;" horiz-adv-x="763" 
d="M695 301c0 -214 -114 -318 -313 -318s-314 104 -314 318v442h185v-437c0 -132 28 -182 129 -182s130 50 130 182v437h183v-442zM484 789h-162l-167 146h198z" />
    <glyph glyph-name="Yacute" unicode="&#xdd;" horiz-adv-x="706" 
d="M692 743l-248 -475v-268h-182v268l-248 475h191l100 -197c16 -34 34 -77 47 -114h5c12 37 33 80 49 114l100 197h186zM587 935l-167 -146h-163l132 146h198z" />
    <glyph glyph-name="Ydieresis" unicode="&#x178;" horiz-adv-x="706" 
d="M692 743l-248 -475v-268h-182v268l-248 475h191l100 -197c16 -34 34 -77 47 -114h5c12 37 33 80 49 114l100 197h186zM551 800h-139v127h139v-127zM297 927v-127h-140v127h140z" />
    <glyph glyph-name="Zcaron" unicode="&#x17d;" horiz-adv-x="658" 
d="M607 0h-556v142l331 462h-322v139h538v-144l-330 -460h339v-139zM102 935h152l86 -82l87 82h152l-134 -146h-208z" />
    <glyph glyph-name="aacute" unicode="&#xe1;" horiz-adv-x="609" 
d="M547 0h-159v37c-37 -25 -103 -52 -179 -52c-108 0 -167 55 -167 163v23c0 152 116 170 278 170h53v31c0 70 -15 84 -105 84c-51 0 -120 -3 -184 -10v104c32 12 124 35 220 35c178 0 243 -58 243 -213v-372zM379 123v128h-58c-79 0 -113 -9 -113 -74v-23
c0 -45 27 -58 65 -58c45 0 89 17 106 27zM541 777l-167 -146h-162l131 146h198z" />
    <glyph glyph-name="acircumflex" unicode="&#xe2;" horiz-adv-x="609" 
d="M547 0h-159v37c-37 -25 -103 -52 -179 -52c-108 0 -167 55 -167 163v23c0 152 116 170 278 170h53v31c0 70 -15 84 -105 84c-51 0 -120 -3 -184 -10v104c32 12 124 35 220 35c178 0 243 -58 243 -213v-372zM379 123v128h-58c-79 0 -113 -9 -113 -74v-23
c0 -45 27 -58 65 -58c45 0 89 17 106 27zM546 631h-153l-86 82l-87 -82h-152l135 146h208z" />
    <glyph glyph-name="adieresis" unicode="&#xe4;" horiz-adv-x="609" 
d="M547 0h-159v37c-37 -25 -103 -52 -179 -52c-108 0 -167 55 -167 163v23c0 152 116 170 278 170h53v31c0 70 -15 84 -105 84c-51 0 -120 -3 -184 -10v104c32 12 124 35 220 35c178 0 243 -58 243 -213v-372zM379 123v128h-58c-79 0 -113 -9 -113 -74v-23
c0 -45 27 -58 65 -58c45 0 89 17 106 27zM504 645h-139v127h139v-127zM250 772v-127h-140v127h140z" />
    <glyph glyph-name="agrave" unicode="&#xe0;" horiz-adv-x="609" 
d="M547 0h-159v37c-37 -25 -103 -52 -179 -52c-108 0 -167 55 -167 163v23c0 152 116 170 278 170h53v31c0 70 -15 84 -105 84c-51 0 -120 -3 -184 -10v104c32 12 124 35 220 35c178 0 243 -58 243 -213v-372zM379 123v128h-58c-79 0 -113 -9 -113 -74v-23
c0 -45 27 -58 65 -58c45 0 89 17 106 27zM428 631h-162l-167 146h198z" />
    <glyph glyph-name="aring" unicode="&#xe5;" horiz-adv-x="609" 
d="M547 0h-159v37c-37 -25 -103 -52 -179 -52c-108 0 -167 55 -167 163v23c0 152 116 170 278 170h53v31c0 70 -15 84 -105 84c-51 0 -120 -3 -184 -10v104c32 12 124 35 220 35c178 0 243 -58 243 -213v-372zM379 123v128h-58c-79 0 -113 -9 -113 -74v-23
c0 -45 27 -58 65 -58c45 0 89 17 106 27zM455 736c0 -80 -60 -122 -141 -122c-82 0 -144 42 -144 122c0 79 62 122 144 122c81 0 141 -43 141 -122zM369 736c0 34 -23 48 -55 48s-56 -14 -56 -48c0 -33 23 -48 56 -48c32 0 55 15 55 48z" />
    <glyph glyph-name="atilde" unicode="&#xe3;" horiz-adv-x="609" 
d="M547 0h-159v37c-37 -25 -103 -52 -179 -52c-108 0 -167 55 -167 163v23c0 152 116 170 278 170h53v31c0 70 -15 84 -105 84c-51 0 -120 -3 -184 -10v104c32 12 124 35 220 35c178 0 243 -58 243 -213v-372zM379 123v128h-58c-79 0 -113 -9 -113 -74v-23
c0 -45 27 -58 65 -58c45 0 89 17 106 27zM534 766c0 -101 -50 -139 -119 -139c-31 0 -63 8 -105 30l-47 26c-22 13 -37 21 -54 21c-24 0 -31 -17 -31 -48v-24h-98v24c0 101 52 139 122 139c34 0 58 -7 99 -29l48 -26c21 -12 37 -21 57 -21c24 0 30 15 30 47v24h98v-24z" />
    <glyph glyph-name="ccedilla" unicode="&#xe7;" horiz-adv-x="533" 
d="M492 7c-33 -8 -100 -22 -191 -22c-175 0 -254 92 -254 268v64c0 180 79 268 254 268c91 0 158 -14 191 -22v-119c-76 5 -125 8 -158 8c-76 0 -114 -23 -114 -135v-64c0 -112 39 -136 114 -136c33 0 82 3 158 8v-118zM399 -63l-131 -140h-159l105 140h185z" />
    <glyph glyph-name="eacute" unicode="&#xe9;" horiz-adv-x="637" 
d="M594 238h-375v-8c0 -75 10 -116 133 -116c58 0 118 4 214 11v-115c-44 -11 -124 -25 -222 -25c-209 0 -297 73 -297 282v31c0 199 95 287 275 287c214 0 272 -136 272 -300v-47zM423 333v8c0 63 -13 120 -102 120c-86 0 -101 -58 -101 -120v-8h203zM556 777l-166 -146
h-163l132 146h197z" />
    <glyph glyph-name="ecircumflex" unicode="&#xea;" horiz-adv-x="637" 
d="M594 238h-375v-8c0 -75 10 -116 133 -116c58 0 118 4 214 11v-115c-44 -11 -124 -25 -222 -25c-209 0 -297 73 -297 282v31c0 199 95 287 275 287c214 0 272 -136 272 -300v-47zM423 333v8c0 63 -13 120 -102 120c-86 0 -101 -58 -101 -120v-8h203zM560 631h-153l-86 82
l-87 -82h-152l135 146h208z" />
    <glyph glyph-name="edieresis" unicode="&#xeb;" horiz-adv-x="637" 
d="M594 238h-375v-8c0 -75 10 -116 133 -116c58 0 118 4 214 11v-115c-44 -11 -124 -25 -222 -25c-209 0 -297 73 -297 282v31c0 199 95 287 275 287c214 0 272 -136 272 -300v-47zM423 333v8c0 63 -13 120 -102 120c-86 0 -101 -58 -101 -120v-8h203zM516 645h-140v127h140
v-127zM262 772v-127h-141v127h141z" />
    <glyph glyph-name="egrave" unicode="&#xe8;" horiz-adv-x="637" 
d="M594 238h-375v-8c0 -75 10 -116 133 -116c58 0 118 4 214 11v-115c-44 -11 -124 -25 -222 -25c-209 0 -297 73 -297 282v31c0 199 95 287 275 287c214 0 272 -136 272 -300v-47zM423 333v8c0 63 -13 120 -102 120c-86 0 -101 -58 -101 -120v-8h203zM448 631h-162
l-167 146h198z" />
    <glyph glyph-name="iacute" unicode="&#xed;" horiz-adv-x="318" 
d="M246 0h-174v570h174v-570zM378 777l-167 -146h-163l132 146h198z" />
    <glyph glyph-name="icircumflex" unicode="&#xee;" horiz-adv-x="318" 
d="M246 0h-174v570h174v-570zM398 631h-152l-87 82l-86 -82h-153l135 146h209z" />
    <glyph glyph-name="idieresis" unicode="&#xef;" horiz-adv-x="318" 
d="M246 0h-174v570h174v-570zM354 645h-139v127h139v-127zM100 772v-127h-140v127h140z" />
    <glyph glyph-name="igrave" unicode="&#xec;" horiz-adv-x="318" 
d="M246 0h-174v570h174v-570zM269 631h-162l-167 146h198z" />
    <glyph glyph-name="ntilde" unicode="&#xf1;" horiz-adv-x="671" 
d="M606 0h-174v361c0 69 -13 93 -68 93c-32 0 -76 -13 -122 -32v-422h-174v570h164v-46c58 36 122 61 187 61c172 0 187 -100 187 -224v-361zM563 766c0 -101 -50 -139 -119 -139c-31 0 -63 8 -105 30l-47 26c-22 13 -37 21 -54 21c-24 0 -31 -17 -31 -48v-24h-99v24
c0 101 53 139 123 139c34 0 58 -7 99 -29l47 -26c22 -12 38 -21 57 -21c25 0 31 15 31 47v24h98v-24z" />
    <glyph glyph-name="oacute" unicode="&#xf3;" horiz-adv-x="642" 
d="M595 253c0 -187 -100 -268 -275 -268c-173 0 -273 81 -273 268v63c0 188 100 269 273 269c175 0 275 -81 275 -269v-63zM421 253v63c0 101 -30 136 -101 136c-70 0 -100 -35 -100 -136v-63c0 -101 30 -136 100 -136c71 0 101 35 101 136zM542 777l-166 -146h-163l132 146
h197z" />
    <glyph glyph-name="ocircumflex" unicode="&#xf4;" horiz-adv-x="642" 
d="M595 253c0 -187 -100 -268 -275 -268c-173 0 -273 81 -273 268v63c0 188 100 269 273 269c175 0 275 -81 275 -269v-63zM421 253v63c0 101 -30 136 -101 136c-70 0 -100 -35 -100 -136v-63c0 -101 30 -136 100 -136c71 0 101 35 101 136zM560 631h-153l-86 82l-87 -82
h-152l135 146h208z" />
    <glyph glyph-name="odieresis" unicode="&#xf6;" horiz-adv-x="642" 
d="M595 253c0 -187 -100 -268 -275 -268c-173 0 -273 81 -273 268v63c0 188 100 269 273 269c175 0 275 -81 275 -269v-63zM421 253v63c0 101 -30 136 -101 136c-70 0 -100 -35 -100 -136v-63c0 -101 30 -136 100 -136c71 0 101 35 101 136zM518 645h-139v127h139v-127z
M264 772v-127h-140v127h140z" />
    <glyph glyph-name="ograve" unicode="&#xf2;" horiz-adv-x="642" 
d="M595 253c0 -187 -100 -268 -275 -268c-173 0 -273 81 -273 268v63c0 188 100 269 273 269c175 0 275 -81 275 -269v-63zM421 253v63c0 101 -30 136 -101 136c-70 0 -100 -35 -100 -136v-63c0 -101 30 -136 100 -136c71 0 101 35 101 136zM433 631h-162l-167 146h198z" />
    <glyph glyph-name="otilde" unicode="&#xf5;" horiz-adv-x="642" 
d="M595 253c0 -187 -100 -268 -275 -268c-173 0 -273 81 -273 268v63c0 188 100 269 273 269c175 0 275 -81 275 -269v-63zM421 253v63c0 101 -30 136 -101 136c-70 0 -100 -35 -100 -136v-63c0 -101 30 -136 100 -136c71 0 101 35 101 136zM548 766
c0 -101 -50 -139 -119 -139c-31 0 -63 8 -104 30l-47 26c-22 13 -38 21 -55 21c-24 0 -31 -17 -31 -48v-24h-98v24c0 101 52 139 123 139c33 0 57 -7 98 -29l48 -26c22 -12 37 -21 57 -21c24 0 30 15 30 47v24h98v-24z" />
    <glyph glyph-name="scaron" unicode="&#x161;" horiz-adv-x="543" 
d="M35 777h153l86 -82l87 82h152l-134 -146h-209zM507 167c0 -122 -80 -181 -252 -181c-80 0 -172 13 -204 22v106c25 -1 117 -11 195 -11c70 0 93 16 93 51c0 34 -18 41 -90 68l-46 17c-106 41 -161 90 -161 184c0 125 89 162 235 162c84 0 166 -12 202 -23v-109
c-68 6 -126 10 -186 10c-56 0 -84 -2 -84 -36c0 -30 18 -37 78 -60l50 -18c127 -46 170 -92 170 -182z" />
    <glyph glyph-name="uacute" unicode="&#xfa;" 
d="M605 0h-164v46c-60 -35 -125 -61 -200 -61c-156 0 -174 109 -174 224v361h174v-361c0 -69 12 -93 68 -93c33 0 75 13 122 32v422h174v-570zM564 777l-167 -146h-163l132 146h198z" />
    <glyph glyph-name="ucircumflex" unicode="&#xfb;" 
d="M605 0h-164v46c-60 -35 -125 -61 -200 -61c-156 0 -174 109 -174 224v361h174v-361c0 -69 12 -93 68 -93c33 0 75 13 122 32v422h174v-570zM576 631h-152l-87 82l-86 -82h-152l135 146h208z" />
    <glyph glyph-name="udieresis" unicode="&#xfc;" 
d="M605 0h-164v46c-60 -35 -125 -61 -200 -61c-156 0 -174 109 -174 224v361h174v-361c0 -69 12 -93 68 -93c33 0 75 13 122 32v422h174v-570zM534 645h-139v127h139v-127zM280 772v-127h-140v127h140z" />
    <glyph glyph-name="ugrave" unicode="&#xf9;" 
d="M605 0h-164v46c-60 -35 -125 -61 -200 -61c-156 0 -174 109 -174 224v361h174v-361c0 -69 12 -93 68 -93c33 0 75 13 122 32v422h174v-570zM448 631h-163l-166 146h197z" />
    <glyph glyph-name="yacute" unicode="&#xfd;" horiz-adv-x="637" 
d="M616 570l-181 -574c-44 -152 -103 -212 -238 -212c-62 0 -122 5 -161 13v111c49 -2 73 -2 108 -2c42 0 57 17 76 69l10 31l-207 564h187l84 -293c13 -49 22 -99 34 -151h2c10 52 20 101 33 152l76 292h177zM560 777l-166 -146h-163l132 146h197z" />
    <glyph glyph-name="ydieresis" unicode="&#xff;" horiz-adv-x="637" 
d="M616 570l-181 -574c-44 -152 -103 -212 -238 -212c-62 0 -122 5 -161 13v111c49 -2 73 -2 108 -2c42 0 57 17 76 69l10 31l-207 564h187l84 -293c13 -49 22 -99 34 -151h2c10 52 20 101 33 152l76 292h177zM527 645h-140v127h140v-127zM273 772v-127h-141v127h141z" />
    <glyph glyph-name="zcaron" unicode="&#x17e;" horiz-adv-x="548" 
d="M505 0h-465v128l269 317h-260v125h455v-130l-267 -317h268v-123zM51 777h153l86 -82l87 82h152l-134 -146h-209z" />
    <glyph glyph-name="dollar.oldstyle" horiz-adv-x="599" 
d="M65 7v119c45 -3 112 -8 208 -8c65 0 91 19 91 56c0 32 -14 45 -79 73l-81 34c-97 42 -156 85 -156 196c0 104 62 161 182 178v101h143v-97c65 -5 126 -15 158 -22v-117c-58 4 -135 10 -210 10c-58 0 -91 -10 -91 -46c0 -27 11 -44 70 -68l79 -33
c116 -48 168 -91 168 -199c0 -109 -63 -173 -174 -192v-109h-143v104c-66 3 -130 11 -165 20z" />
    <glyph glyph-name="dollar.superior" horiz-adv-x="438" 
d="M52 346v84c31 -3 86 -6 147 -6c52 0 68 15 68 41c0 22 -13 31 -54 47l-61 24c-66 26 -112 60 -112 135c0 71 42 110 123 123v81h112v-78c45 -3 88 -10 107 -14v-84c-58 5 -118 8 -148 8c-42 0 -69 -8 -69 -35c0 -20 11 -30 52 -44l59 -21c79 -28 118 -61 118 -135
c0 -75 -44 -122 -119 -135v-83h-112v79c-44 2 -85 8 -111 13z" />
    <glyph glyph-name="parenleft.superior" unicode="&#x207d;" horiz-adv-x="287" 
d="M246 259h-112c-39 53 -81 146 -81 262v5c0 116 42 210 81 264h112c-41 -64 -75 -154 -75 -264v-5c0 -110 34 -199 75 -262z" />
    <glyph glyph-name="parenright.superior" unicode="&#x207e;" horiz-adv-x="287" 
d="M234 521c0 -116 -43 -209 -82 -262h-111c41 63 75 152 75 262v5c0 110 -34 200 -75 264h111c39 -54 82 -148 82 -264v-5z" />
    <glyph glyph-name="twodotenleader" unicode="&#x2025;" horiz-adv-x="569" 
d="M509 0h-176v164h176v-164zM235 164v-164h-175v164h175z" />
    <glyph glyph-name="onedotenleader" unicode="&#x2024;" horiz-adv-x="295" 
d="M235 0h-175v164h175v-164z" />
    <glyph glyph-name="zero.oldstyle" horiz-adv-x="706" 
d="M657 282c0 -195 -100 -299 -304 -299c-202 0 -304 104 -304 299v35c0 195 102 298 304 298c204 0 304 -103 304 -298v-35zM470 282v35c0 120 -45 158 -117 158c-71 0 -116 -38 -116 -158v-35c0 -120 45 -159 116 -159c72 0 117 39 117 159z" />
    <glyph glyph-name="one.oldstyle" horiz-adv-x="588" 
d="M544 0h-500v129l159 7v302l-160 -50v145l212 72h134v-469l155 -7v-129z" />
    <glyph glyph-name="two.oldstyle" horiz-adv-x="650" 
d="M59 471v113c59 17 167 31 251 31c219 0 292 -61 292 -178c0 -108 -55 -162 -219 -253l-83 -46h292v-138h-541v138l176 101c156 90 186 127 186 180c0 47 -35 64 -134 64c-62 0 -160 -7 -220 -12z" />
    <glyph glyph-name="three.oldstyle" horiz-adv-x="651" 
d="M589 61c0 -162 -97 -223 -296 -223c-97 0 -205 20 -247 34v114c51 -6 145 -14 228 -14c88 0 129 15 129 97v17c0 54 -14 87 -110 87h-202v123h203c94 0 109 36 109 90v10c0 69 -29 86 -130 86c-84 0 -164 -6 -225 -12v113c35 12 147 32 245 32c188 0 296 -50 296 -206
v-11c0 -65 -24 -129 -88 -162c66 -32 88 -95 88 -158v-17z" />
    <glyph glyph-name="four.oldstyle" horiz-adv-x="712" 
d="M666 27h-99v-169h-187v169h-341v129l369 446h159v-447h99v-128zM389 155v250l-201 -250h201z" />
    <glyph glyph-name="five.oldstyle" horiz-adv-x="641" 
d="M593 78c0 -174 -115 -237 -300 -237c-111 0 -208 19 -246 30v116c65 -8 127 -14 208 -14c111 0 149 24 149 104v20c0 72 -29 95 -146 95h-204l35 410h480v-134h-330l-13 -149h70c226 0 297 -67 297 -221v-20z" />
    <glyph glyph-name="six.oldstyle" horiz-adv-x="688" 
d="M639 230c0 -190 -139 -247 -291 -247c-205 0 -299 88 -299 308v166c0 189 56 302 305 302c104 0 208 -18 248 -28v-117c-70 6 -141 12 -226 12c-130 0 -143 -47 -143 -143v-25c36 9 95 15 132 15c156 0 274 -36 274 -212v-31zM455 229v29c0 84 -36 101 -109 101
c-28 0 -73 -3 -113 -12v-86c0 -120 41 -151 116 -151c62 0 106 36 106 119z" />
    <glyph glyph-name="seven.oldstyle" horiz-adv-x="636" 
d="M599 454l-327 -595h-198l341 609h-372v134h556v-148z" />
    <glyph glyph-name="eight.oldstyle" horiz-adv-x="715" 
d="M663 213c0 -207 -139 -230 -303 -230h-5c-164 0 -303 23 -303 230c0 85 26 134 81 170c-49 32 -79 79 -79 158c0 184 132 218 301 218h5c168 0 300 -34 300 -218c0 -79 -30 -126 -79 -158c55 -36 82 -85 82 -170zM479 222c-1 74 -19 104 -80 104h-84
c-62 0 -80 -30 -80 -104c0 -100 46 -117 120 -117h5c73 0 119 17 119 117zM477 535c0 83 -45 101 -117 101h-5c-73 0 -118 -18 -118 -101c0 -58 16 -93 78 -93h84c62 0 78 35 78 93z" />
    <glyph glyph-name="nine.oldstyle" horiz-adv-x="688" 
d="M633 144c0 -188 -57 -306 -306 -306c-103 0 -208 19 -248 28v117c58 -5 142 -12 230 -12c127 0 139 49 139 143v26c-35 -9 -95 -15 -132 -15c-155 0 -273 36 -273 212v31c0 188 139 247 291 247c204 0 299 -86 299 -303v-168zM448 250v87c0 119 -40 151 -115 151
c-63 0 -107 -36 -107 -120v-29c0 -84 36 -101 109 -101c28 0 74 3 113 12z" />
    <glyph glyph-name="comma.superior" horiz-adv-x="257" 
d="M208 438l-72 -163h-94l52 163h114z" />
    <glyph glyph-name="period.superior" horiz-adv-x="218" 
d="M168 338h-118v100h118v-100z" />
    <glyph glyph-name="a.superior" horiz-adv-x="425" 
d="M372 307h-110v25c-24 -16 -63 -34 -115 -34c-68 0 -106 34 -106 101v12c0 97 77 102 179 102h31v20c0 39 -9 47 -63 47c-30 0 -85 -3 -119 -5v66c21 8 82 22 146 22c112 0 157 -34 157 -133v-223zM256 385v73h-34c-47 0 -66 -4 -66 -43v-11c0 -27 16 -35 38 -35
c26 0 51 11 62 16z" />
    <glyph glyph-name="b.superior" horiz-adv-x="443" 
d="M53 779h121v-127c18 8 44 11 68 11c112 0 164 -51 164 -164v-31c0 -126 -66 -170 -187 -170c-52 0 -94 2 -166 10v471zM285 468v31c0 59 -13 75 -58 75c-12 0 -38 -2 -54 -9v-176c10 -1 19 -3 47 -3c48 0 65 17 65 82z" />
    <glyph glyph-name="cent.superior" horiz-adv-x="405" 
d="M362 340c-17 -5 -50 -10 -83 -12v-79h-109v86c-80 20 -129 82 -129 206v39c0 116 43 186 129 206v81h109v-75c34 -1 67 -7 83 -11v-95c-30 2 -68 4 -99 4c-67 0 -88 -26 -88 -110v-39c0 -82 18 -110 88 -110c31 0 76 2 99 5v-96z" />
    <glyph glyph-name="d.superior" horiz-adv-x="444" 
d="M391 307h-111v21c-25 -16 -60 -30 -103 -30c-87 0 -140 53 -140 166v33c0 123 63 166 168 166c26 0 46 -2 65 -5v121h121v-472zM272 398v173c-18 3 -38 4 -51 4c-43 0 -63 -11 -63 -78v-33c0 -58 15 -78 58 -78c20 0 40 6 56 12z" />
    <glyph glyph-name="e.superior" horiz-adv-x="431" 
d="M394 450h-237v-4c0 -37 4 -66 80 -66c40 0 94 3 139 8v-75c-29 -6 -90 -15 -152 -15c-139 0 -187 64 -187 166v31c0 117 69 168 180 168c140 0 177 -88 177 -174v-39zM277 510v5c0 37 -9 70 -60 70s-60 -34 -60 -70v-5h120z" />
    <glyph glyph-name="i.superior" unicode="&#x2071;" horiz-adv-x="232" 
d="M56 654h121v-347h-121v347zM179 698h-126v81h126v-81z" />
    <glyph glyph-name="l.superior" horiz-adv-x="227" 
d="M174 307h-121v472h121v-472z" />
    <glyph glyph-name="m.superior" horiz-adv-x="649" 
d="M166 625c30 25 70 38 111 38c45 0 71 -14 87 -39c41 29 82 39 116 39c99 0 116 -58 116 -131v-225h-122v222c0 30 0 48 -35 48c-16 0 -37 -6 -56 -15c2 -12 2 -23 2 -33v-222h-121v222c0 30 -1 48 -33 48c-20 0 -42 -9 -57 -16v-254h-121v347h113v-29z" />
    <glyph glyph-name="n.superior" unicode="&#x207f;" horiz-adv-x="460" 
d="M407 307h-122v215c0 39 -7 54 -40 54c-20 0 -46 -9 -70 -18v-251h-122v347h114v-27c36 22 78 36 118 36c113 0 122 -67 122 -139v-217z" />
    <glyph glyph-name="o.superior" horiz-adv-x="432" 
d="M395 465c0 -118 -67 -167 -179 -167s-179 49 -179 167v32c0 118 67 166 179 166s179 -48 179 -166v-32zM275 465v32c0 58 -18 78 -59 78c-42 0 -59 -20 -59 -78v-32c0 -59 17 -79 59 -79c41 0 59 21 59 79z" />
    <glyph glyph-name="r.superior" horiz-adv-x="313" 
d="M174 307h-121v347h111v-29c36 32 80 38 118 38v-98c-39 0 -79 -6 -108 -14v-244z" />
    <glyph glyph-name="s.superior" horiz-adv-x="387" 
d="M346 408c0 -75 -52 -110 -165 -110c-51 0 -111 9 -133 14v69c28 -2 78 -8 126 -8c41 0 53 11 53 30c0 20 -10 25 -52 39l-28 9c-68 22 -106 51 -106 111c0 81 61 101 153 101c54 0 114 -7 138 -14v-64c-57 4 -87 4 -123 4c-35 0 -49 -4 -49 -24c0 -17 9 -22 43 -34
l34 -12c79 -28 109 -52 109 -111z" />
    <glyph glyph-name="t.superior" horiz-adv-x="331" 
d="M296 308c-9 -2 -45 -10 -84 -10c-81 0 -114 32 -114 113v164l-63 6v73h63v85h120v-85h78v-79h-77v-164c0 -29 1 -35 28 -35c16 0 40 1 49 2v-70z" />
    <glyph glyph-name="parenleft.inferior" unicode="&#x208d;" horiz-adv-x="287" 
d="M246 -232h-112c-39 53 -81 146 -81 262v5c0 116 42 210 81 264h112c-41 -64 -75 -154 -75 -264v-5c0 -110 34 -199 75 -262z" />
    <glyph glyph-name="parenright.inferior" unicode="&#x208e;" horiz-adv-x="287" 
d="M234 30c0 -116 -43 -209 -82 -262h-111c41 63 75 152 75 262v5c0 110 -34 200 -75 264h111c39 -54 82 -148 82 -264v-5z" />
    <glyph glyph-name="hyphen.superior" horiz-adv-x="247" 
d="M199 495h-152v88h152v-88z" />
    <glyph glyph-name="colonmonetary" unicode="&#x20a1;" horiz-adv-x="534" 
d="M496 563v-119c-40 2 -103 8 -158 8c-76 0 -114 -22 -114 -134v-65c0 -111 38 -136 114 -136c40 0 97 3 158 8v-118c-13 -4 -36 -8 -67 -12v-113h-94v104c-11 -1 -20 -1 -29 -1c-17 0 -29 1 -41 3v-106h-94v130c-80 39 -120 120 -120 241v65c0 119 40 200 120 240v131h94
v-107c12 2 26 3 43 3c8 0 17 0 27 -1v105h94v-114c32 -4 55 -9 67 -12z" />
    <glyph glyph-name="cent.oldstyle" horiz-adv-x="573" 
d="M517 598v-123c-58 4 -99 6 -150 6c-90 0 -129 -31 -129 -146v-69c0 -115 39 -145 129 -145c53 0 106 2 149 5v-122c-26 -8 -79 -14 -125 -17v-100h-140v106c-135 28 -194 116 -194 273v69c0 155 61 245 194 272v102h141v-95c44 -3 98 -9 125 -16z" />
    <glyph glyph-name="figuredash" unicode="&#x2012;" horiz-adv-x="723" 
d="M666 225h-609v112h609v-112z" />
    <glyph glyph-name="hyphen.inferior" horiz-adv-x="247" 
d="M199 4h-152v88h152v-88z" />
    <glyph glyph-name="oneeighth" unicode="&#x215b;" horiz-adv-x="1105" 
d="M834 745l-496 -745h-148l497 745h147zM353 302h-291v85l80 4v246l-81 -26v96l118 44h93v-360l81 -4v-85zM1054 127c0 -123 -88 -137 -198 -137c-107 0 -195 14 -195 137c0 51 17 81 51 103c-31 20 -50 49 -50 95c0 111 85 132 197 132c109 0 194 -21 194 -132
c0 -46 -18 -75 -49 -95c34 -22 50 -52 50 -103zM929 130c0 46 -10 63 -46 63h-50c-36 0 -46 -17 -46 -63c0 -51 26 -61 72 -61c43 0 70 10 70 61zM927 321v5c0 40 -26 51 -71 51c-42 0 -68 -11 -68 -51v-5c0 -33 9 -53 45 -53h50c36 0 44 20 44 53z" />
    <glyph glyph-name="threeeighths" unicode="&#x215c;" horiz-adv-x="1149" 
d="M872 745l-496 -745h-148l497 745h147zM1095 127c0 -123 -88 -137 -198 -137c-107 0 -195 14 -195 137c0 51 17 81 51 103c-31 20 -50 49 -50 95c0 111 85 132 197 132c109 0 194 -21 194 -132c0 -46 -18 -75 -49 -95c34 -22 50 -52 50 -103zM970 130c0 46 -10 63 -46 63
h-50c-36 0 -46 -17 -46 -63c0 -51 26 -61 72 -61c43 0 70 10 70 61zM968 321v5c0 40 -26 51 -71 51c-42 0 -68 -11 -68 -51v-5c0 -33 9 -53 45 -53h50c36 0 44 20 44 53zM212 292c-63 0 -137 11 -160 20v74c22 -2 97 -6 145 -6c53 0 76 8 76 53v9c0 30 -9 47 -67 47h-126v81
h127c57 0 66 20 66 49v6c0 36 -17 47 -76 47c-52 0 -106 -5 -145 -7v74c25 9 97 20 160 20c119 0 189 -30 189 -124v-6c0 -38 -15 -78 -55 -98c41 -19 55 -58 55 -95v-9c0 -97 -60 -135 -189 -135z" />
    <glyph glyph-name="fiveeighths" unicode="&#x215d;" horiz-adv-x="1149" 
d="M1098 132c0 -128 -88 -143 -198 -143c-107 0 -195 15 -195 143c0 45 17 76 50 97c-31 21 -49 50 -49 102c0 104 85 125 197 125c109 0 193 -21 193 -131c0 -46 -18 -75 -49 -96c34 -21 51 -52 51 -97zM973 134c0 41 -11 59 -47 59h-50c-35 0 -46 -18 -46 -59
c0 -55 27 -65 73 -65c43 0 70 10 70 65zM876 268h50c36 0 45 20 45 52c0 46 -26 56 -71 56c-42 0 -69 -10 -69 -56c0 -32 9 -52 45 -52zM872 745l-497 -745h-147l497 745h147zM388 661h-208l-8 -81h43c142 0 187 -38 187 -134c0 -115 -74 -154 -190 -154
c-72 0 -134 11 -160 18v77c54 -6 84 -9 132 -9c66 0 88 14 88 68c0 40 -17 51 -86 51h-131l23 252h310v-88z" />
    <glyph glyph-name="seveneighths" unicode="&#x215e;" horiz-adv-x="1059" 
d="M782 745l-497 -745h-147l497 745h147zM55 661v88h350v-96l-205 -351h-135l213 359h-223zM1006 132c0 -128 -88 -143 -198 -143c-107 0 -195 15 -195 143c0 45 17 76 50 97c-31 21 -49 50 -49 102c0 104 85 125 197 125c109 0 193 -21 193 -131c0 -46 -18 -75 -49 -96
c34 -21 51 -52 51 -97zM881 134c0 41 -11 59 -47 59h-50c-35 0 -46 -18 -46 -59c0 -55 27 -65 73 -65c43 0 70 10 70 65zM784 268h50c36 0 45 20 45 52c0 46 -26 56 -71 56c-42 0 -69 -10 -69 -56c0 -32 9 -52 45 -52z" />
    <glyph glyph-name="onethird" unicode="&#x2153;" horiz-adv-x="1092" 
d="M834 745l-496 -745h-148l497 745h147zM353 302h-291v85l80 4v246l-81 -26v96l118 44h93v-360l81 -4v-85zM863 -10c-63 0 -137 11 -160 20v74c22 -2 97 -6 145 -6c53 0 76 8 76 53c0 39 -9 56 -67 56h-126v81h127c57 0 66 20 66 55c0 36 -17 47 -76 47
c-52 0 -106 -5 -145 -7v74c25 9 97 20 160 20c119 0 189 -30 189 -130c0 -38 -15 -78 -55 -98c41 -19 55 -58 55 -95c0 -106 -60 -144 -189 -144z" />
    <glyph glyph-name="twothirds" unicode="&#x2154;" horiz-adv-x="1169" 
d="M901 745l-497 -745h-147l497 745h147zM925 -10c-63 0 -137 11 -160 20v74c22 -2 97 -6 145 -6c53 0 76 8 76 53c0 39 -9 56 -67 56h-126v81h127c57 0 66 20 66 55c0 36 -17 47 -76 47c-52 0 -106 -5 -145 -7v74c25 9 97 20 160 20c119 0 189 -30 189 -130
c0 -38 -15 -78 -55 -98c41 -19 55 -58 55 -95c0 -106 -60 -144 -189 -144zM57 666v75c36 10 110 18 165 18c127 0 183 -36 183 -119c0 -63 -34 -99 -131 -143c-86 -39 -98 -53 -98 -100v-4h220v-91h-346v55c0 112 39 154 140 204c78 38 85 47 85 75c0 27 -18 37 -75 37
c-50 0 -121 -5 -143 -7z" />
    <glyph glyph-name="zero.superior" unicode="&#x2070;" horiz-adv-x="491" 
d="M444 544c0 -139 -62 -216 -197 -216s-197 77 -197 216v35c0 139 62 216 197 216s197 -77 197 -216v-35zM314 543v36c0 100 -27 120 -67 120c-41 0 -67 -20 -67 -120v-36c0 -99 26 -120 67 -120c40 0 67 21 67 120z" />
    <glyph glyph-name="four.superior" unicode="&#x2074;" horiz-adv-x="474" 
d="M374 338h-128v98h-213v82l236 267h105v-265h60v-84h-60v-98zM253 520v136l-119 -136h119z" />
    <glyph glyph-name="five.superior" unicode="&#x2075;" horiz-adv-x="451" 
d="M388 697h-208l-8 -81h43c142 0 187 -38 187 -134v-8c0 -107 -74 -146 -190 -146c-72 0 -134 11 -160 18v77c54 -6 84 -9 132 -9c66 0 88 14 88 58v10c0 40 -17 51 -86 51h-131l23 252h310v-88z" />
    <glyph glyph-name="six.superior" unicode="&#x2076;" horiz-adv-x="477" 
d="M402 777v-77c-39 3 -97 6 -145 6c-76 0 -84 -24 -84 -78v-13c21 6 56 9 78 9c100 0 175 -21 175 -131v-15c0 -113 -85 -150 -188 -150c-138 0 -192 60 -192 190v87c0 117 36 190 195 190c67 0 135 -12 161 -18zM299 478v14c0 48 -21 58 -62 58c-16 0 -42 -2 -64 -7v-46
c0 -70 24 -87 66 -87c35 0 60 19 60 68z" />
    <glyph glyph-name="seven.superior" unicode="&#x2077;" horiz-adv-x="448" 
d="M55 697v88h350v-96l-205 -351h-135l213 359h-223z" />
    <glyph glyph-name="eight.superior" unicode="&#x2078;" horiz-adv-x="492" 
d="M439 471c0 -128 -88 -143 -198 -143c-107 0 -195 15 -195 143c0 45 17 76 50 97c-31 21 -49 50 -49 102c0 104 85 125 197 125c109 0 193 -21 193 -131c0 -46 -18 -75 -49 -96c34 -21 51 -52 51 -97zM314 473c0 41 -11 59 -47 59h-50c-35 0 -46 -18 -46 -59
c0 -55 27 -65 73 -65c43 0 70 10 70 65zM217 607h50c36 0 45 20 45 52c0 46 -26 56 -71 56c-42 0 -69 -10 -69 -56c0 -32 9 -52 45 -52z" />
    <glyph glyph-name="nine.superior" unicode="&#x2079;" horiz-adv-x="477" 
d="M70 345v77c37 -3 96 -7 148 -7c73 0 82 26 82 79v13c-21 -5 -57 -8 -78 -8c-101 0 -176 21 -176 130v16c0 111 85 150 189 150c138 0 191 -61 191 -191v-88c0 -115 -35 -188 -194 -188c-67 0 -135 10 -162 17zM300 579v47c0 70 -23 86 -67 86c-35 0 -60 -19 -60 -67v-15
c0 -47 21 -57 61 -57c17 0 44 2 66 6z" />
    <glyph glyph-name="zero.inferior" unicode="&#x2080;" horiz-adv-x="491" 
d="M444 0c0 -139 -62 -216 -197 -216s-197 77 -197 216v35c0 139 62 216 197 216s197 -77 197 -216v-35zM314 -1v36c0 100 -27 120 -67 120c-41 0 -67 -20 -67 -120v-36c0 -99 26 -120 67 -120c40 0 67 21 67 120z" />
    <glyph glyph-name="one.inferior" unicode="&#x2081;" horiz-adv-x="407" 
d="M353 -206h-291v85l80 4v246l-81 -26v96l118 44h93v-360l81 -4v-85z" />
    <glyph glyph-name="two.inferior" unicode="&#x2082;" horiz-adv-x="454" 
d="M57 158v75c36 10 110 18 165 18c127 0 183 -36 183 -119c0 -63 -34 -99 -131 -143c-86 -39 -98 -53 -98 -100v-4h220v-91h-346v55c0 112 39 154 140 204c78 38 85 47 85 75c0 27 -18 37 -75 37c-50 0 -121 -5 -143 -7z" />
    <glyph glyph-name="three.inferior" unicode="&#x2083;" horiz-adv-x="450" 
d="M212 -216c-63 0 -137 11 -160 20v74c22 -2 97 -6 145 -6c53 0 76 8 76 53v9c0 30 -9 47 -67 47h-126v81h127c57 0 66 20 66 49v6c0 36 -17 47 -76 47c-52 0 -106 -5 -145 -7v74c25 9 97 20 160 20c119 0 189 -30 189 -124v-6c0 -38 -15 -78 -55 -98c41 -19 55 -58 55 -95
v-9c0 -97 -60 -135 -189 -135z" />
    <glyph glyph-name="four.inferior" unicode="&#x2084;" horiz-adv-x="474" 
d="M374 -206h-128v98h-213v82l236 267h105v-265h60v-84h-60v-98zM253 -24v136l-119 -136h119z" />
    <glyph glyph-name="five.inferior" unicode="&#x2085;" horiz-adv-x="451" 
d="M388 153h-208l-8 -81h43c142 0 187 -38 187 -134v-8c0 -107 -74 -146 -190 -146c-72 0 -134 11 -160 18v77c54 -6 84 -9 132 -9c66 0 88 14 88 58v10c0 40 -17 51 -86 51h-131l23 252h310v-88z" />
    <glyph glyph-name="six.inferior" unicode="&#x2086;" horiz-adv-x="477" 
d="M402 233v-77c-39 3 -97 6 -145 6c-76 0 -84 -24 -84 -78v-13c21 6 56 9 78 9c100 0 175 -21 175 -131v-15c0 -113 -85 -150 -188 -150c-138 0 -192 60 -192 190v87c0 117 36 190 195 190c67 0 135 -12 161 -18zM299 -66v14c0 48 -21 58 -62 58c-16 0 -42 -2 -64 -7v-46
c0 -70 24 -87 66 -87c35 0 60 19 60 68z" />
    <glyph glyph-name="seven.inferior" unicode="&#x2087;" horiz-adv-x="448" 
d="M55 153v88h350v-96l-205 -351h-135l213 359h-223z" />
    <glyph glyph-name="eight.inferior" unicode="&#x2088;" horiz-adv-x="492" 
d="M439 -79c0 -123 -88 -137 -198 -137c-107 0 -195 14 -195 137v6c0 45 17 75 51 97c-31 20 -50 49 -50 95v6c0 105 85 126 197 126c109 0 194 -21 194 -126v-6c0 -46 -18 -75 -49 -95c34 -22 50 -52 50 -97v-6zM314 -76v4c0 42 -10 59 -46 59h-50c-36 0 -46 -17 -46 -59
v-4c0 -51 26 -61 72 -61c43 0 70 10 70 61zM312 115v5c0 40 -26 51 -71 51c-42 0 -68 -11 -68 -51v-5c0 -33 9 -53 45 -53h50c36 0 44 20 44 53z" />
    <glyph glyph-name="nine.inferior" unicode="&#x2089;" horiz-adv-x="477" 
d="M70 -199v77c37 -3 96 -7 148 -7c73 0 82 26 82 79v13c-21 -5 -57 -8 -78 -8c-101 0 -176 21 -176 130v16c0 111 85 150 189 150c138 0 191 -61 191 -191v-88c0 -115 -35 -188 -194 -188c-67 0 -135 10 -162 17zM300 35v47c0 70 -23 86 -67 86c-35 0 -60 -19 -60 -67v-15
c0 -47 21 -57 61 -57c17 0 44 2 66 6z" />
    <glyph glyph-name="cent.inferior" horiz-adv-x="405" 
d="M362 -199c-17 -5 -50 -10 -83 -12v-79h-109v86c-80 20 -129 82 -129 206v39c0 116 43 186 129 206v81h109v-75c34 -1 67 -7 83 -11v-95c-30 2 -68 4 -99 4c-67 0 -88 -26 -88 -110v-39c0 -82 18 -110 88 -110c31 0 76 2 99 5v-96z" />
    <glyph glyph-name="dollar.inferior" horiz-adv-x="438" 
d="M52 -198v84c31 -3 86 -6 147 -6c52 0 68 15 68 41c0 22 -13 31 -54 47l-61 24c-66 26 -112 60 -112 135c0 71 42 110 123 123v81h112v-78c45 -3 88 -10 107 -14v-84c-58 5 -118 8 -148 8c-42 0 -69 -8 -69 -35c0 -20 11 -30 52 -44l59 -21c79 -28 118 -61 118 -135
c0 -75 -44 -122 -119 -135v-83h-112v79c-44 2 -85 8 -111 13z" />
    <glyph glyph-name="period.inferior" horiz-adv-x="218" 
d="M168 -153h-118v100h118v-100z" />
    <glyph glyph-name="comma.inferior" horiz-adv-x="257" 
d="M208 -53l-72 -163h-94l52 163h114z" />
    <glyph glyph-name="commaaccent" horiz-adv-x="491" 
d="M355 -63l-95 -140h-152l67 140h180z" />
    <glyph glyph-name="Abreve" unicode="&#x102;" horiz-adv-x="748" 
d="M727 0h-196l-53 187h-211l-54 -187h-192l207 743h290zM453 321l-54 197c-9 36 -17 76 -23 114h-7c-6 -38 -13 -78 -23 -114l-53 -197h160zM582 944c-13 -114 -107 -160 -208 -160s-195 46 -208 160h102c8 -60 51 -77 106 -77c56 0 98 17 107 77h101z" />
    <glyph glyph-name="Amacron" unicode="&#x100;" horiz-adv-x="748" 
d="M727 0h-196l-53 187h-211l-54 -187h-192l207 743h290zM453 321l-54 197c-9 36 -17 76 -23 114h-7c-6 -38 -13 -78 -23 -114l-53 -197h160zM578 808h-408v100h408v-100z" />
    <glyph glyph-name="Aogonek" unicode="&#x104;" horiz-adv-x="748" 
d="M727 -200c-23 -7 -75 -17 -135 -17c-97 0 -150 33 -150 105c0 41 29 84 87 117l-51 182h-211l-54 -187h-192l207 743h290l209 -743c-115 -42 -137 -67 -137 -89c0 -23 14 -35 53 -35c29 0 58 3 84 5v-81zM453 321l-54 197c-9 36 -17 76 -23 114h-7
c-6 -38 -13 -78 -23 -114l-53 -197h160z" />
    <glyph glyph-name="Aringacute" unicode="&#x1fa;" horiz-adv-x="748" 
d="M727 0h-196l-53 187h-211l-54 -187h-192l207 743h290zM453 321l-54 197c-9 36 -17 76 -23 114h-7c-6 -38 -13 -78 -23 -114l-53 -197h160zM516 882c0 -79 -60 -121 -141 -121c-82 0 -144 42 -144 121c0 80 62 122 144 122c81 0 141 -42 141 -122zM430 883
c0 34 -23 48 -55 48s-56 -14 -56 -48s23 -49 56 -49c32 0 55 15 55 49zM611 1166l-167 -146h-162l131 146h198z" />
    <glyph glyph-name="AEacute" unicode="&#x1fc;" horiz-adv-x="1031" 
d="M230 0h-190l201 743h743v-136h-319v-162h298v-129h-298v-181h319v-135h-506v187h-195zM478 320v310h-90c-9 -35 -16 -74 -25 -109l-54 -201h169zM826 935l-166 -146h-163l132 146h197z" />
    <glyph glyph-name="Cacute" unicode="&#x106;" horiz-adv-x="616" 
d="M584 3c-37 -9 -140 -20 -201 -20c-212 0 -334 78 -334 346v86c0 268 122 344 334 344c61 0 164 -11 201 -21v-133c-50 4 -122 9 -183 9c-110 0 -163 -37 -163 -199v-86c0 -163 53 -201 164 -201c61 0 132 4 182 8v-133zM595 935l-166 -146h-163l132 146h197z" />
    <glyph glyph-name="Ccaron" unicode="&#x10c;" horiz-adv-x="616" 
d="M584 3c-37 -9 -140 -20 -201 -20c-212 0 -334 78 -334 346v86c0 268 122 344 334 344c61 0 164 -11 201 -21v-133c-50 4 -122 9 -183 9c-110 0 -163 -37 -163 -199v-86c0 -163 53 -201 164 -201c61 0 132 4 182 8v-133zM122 935h152l86 -82l87 82h152l-134 -146h-208z
" />
    <glyph glyph-name="Ccircumflex" unicode="&#x108;" horiz-adv-x="616" 
d="M584 3c-37 -9 -140 -20 -201 -20c-212 0 -334 78 -334 346v86c0 268 122 344 334 344c61 0 164 -11 201 -21v-133c-50 4 -122 9 -183 9c-110 0 -163 -37 -163 -199v-86c0 -163 53 -201 164 -201c61 0 132 4 182 8v-133zM585 789h-152l-87 82l-86 -82h-153l135 146h209z
" />
    <glyph glyph-name="Cdotaccent" unicode="&#x10a;" horiz-adv-x="616" 
d="M584 3c-37 -9 -140 -20 -201 -20c-212 0 -334 78 -334 346v86c0 268 122 344 334 344c61 0 164 -11 201 -21v-133c-50 4 -122 9 -183 9c-110 0 -163 -37 -163 -199v-86c0 -163 53 -201 164 -201c61 0 132 4 182 8v-133zM452 800h-180v127h180v-127z" />
    <glyph glyph-name="Dcaron" unicode="&#x10e;" horiz-adv-x="738" 
d="M689 335c0 -238 -105 -344 -360 -344c-97 0 -160 2 -256 9v743c95 7 154 9 256 9c250 0 360 -106 360 -340v-77zM505 335v77c0 158 -49 199 -174 199h-76v-480h76c125 0 174 46 174 204zM125 934h152l87 -82l86 82h153l-135 -146h-208z" />
    <glyph glyph-name="Dcroat" unicode="&#x110;" horiz-adv-x="738" 
d="M689 335c0 -238 -105 -344 -360 -344c-88 0 -170 2 -256 9v318h-50v126h50v299c86 7 168 9 256 9c250 0 360 -106 360 -340v-77zM505 335v77c0 158 -49 199 -174 199h-76v-167h110v-126h-110v-187h76c125 0 174 46 174 204z" />
    <glyph glyph-name="Ebreve" unicode="&#x114;" horiz-adv-x="628" 
d="M579 0h-506v743h506v-136h-319v-162h298v-129h-298v-181h319v-135zM540 944c-13 -114 -107 -160 -208 -160s-195 46 -208 160h102c8 -60 51 -77 106 -77c56 0 98 17 107 77h101z" />
    <glyph glyph-name="Ecaron" unicode="&#x11a;" horiz-adv-x="628" 
d="M579 0h-506v743h506v-136h-319v-162h298v-129h-298v-181h319v-135zM91 935h152l87 -82l86 82h153l-135 -146h-208z" />
    <glyph glyph-name="Edotaccent" unicode="&#x116;" horiz-adv-x="628" 
d="M579 0h-506v743h506v-136h-319v-162h298v-129h-298v-181h319v-135zM414 800h-180v127h180v-127z" />
    <glyph glyph-name="Emacron" unicode="&#x112;" horiz-adv-x="628" 
d="M579 0h-506v743h506v-136h-319v-162h298v-129h-298v-181h319v-135zM534 808h-408v100h408v-100z" />
    <glyph glyph-name="Eng" unicode="&#x14a;" horiz-adv-x="776" 
d="M703 -23c0 -137 -61 -192 -198 -192c-32 0 -77 4 -99 9v112h54c50 0 56 17 56 64v56l-222 360c-24 39 -37 69 -52 102h-3c2 -39 3 -80 3 -120v-368h-169v743h191l217 -344c23 -39 38 -72 53 -106h2c-3 36 -4 83 -4 128v322h171v-766z" />
    <glyph glyph-name="Eogonek" unicode="&#x118;" horiz-adv-x="628" 
d="M579 -200c-23 -7 -75 -17 -135 -17c-96 0 -150 33 -150 99c0 47 39 90 123 118h-344v743h506v-136h-319v-162h298v-129h-298v-181h319v-135c-114 -42 -136 -67 -136 -89c0 -23 13 -35 53 -35c29 0 58 3 83 5v-81z" />
    <glyph glyph-name="Gbreve" unicode="&#x11e;" horiz-adv-x="705" 
d="M644 7c-52 -10 -156 -24 -267 -24c-177 0 -328 62 -328 345v88c0 298 170 343 332 343c110 0 225 -18 260 -27v-127c-52 3 -165 9 -225 9c-116 0 -182 -24 -182 -198v-88c0 -159 48 -200 151 -200c30 0 61 0 85 2v271h174v-394zM584 948c-13 -114 -107 -160 -208 -160
s-194 46 -208 160h102c8 -60 51 -77 106 -77c56 0 98 17 107 77h101z" />
    <glyph glyph-name="Gcircumflex" unicode="&#x11c;" horiz-adv-x="705" 
d="M644 7c-52 -10 -156 -24 -267 -24c-177 0 -328 62 -328 345v88c0 298 170 343 332 343c110 0 225 -18 260 -27v-127c-52 3 -165 9 -225 9c-116 0 -182 -24 -182 -198v-88c0 -159 48 -200 151 -200c30 0 61 0 85 2v271h174v-394zM600 789h-153l-86 82l-87 -82h-152
l135 146h208z" />
    <glyph glyph-name="Gcommaaccent" unicode="&#x122;" horiz-adv-x="705" 
d="M644 7c-52 -10 -156 -24 -267 -24c-177 0 -328 62 -328 345v88c0 298 170 343 332 343c110 0 225 -18 260 -27v-127c-52 3 -165 9 -225 9c-116 0 -182 -24 -182 -198v-88c0 -159 48 -200 151 -200c30 0 61 0 85 2v271h174v-394zM474 -63l-96 -140h-152l68 140h180z" />
    <glyph glyph-name="Gdotaccent" unicode="&#x120;" horiz-adv-x="705" 
d="M644 7c-52 -10 -156 -24 -267 -24c-177 0 -328 62 -328 345v88c0 298 170 343 332 343c110 0 225 -18 260 -27v-127c-52 3 -165 9 -225 9c-116 0 -182 -24 -182 -198v-88c0 -159 48 -200 151 -200c30 0 61 0 85 2v271h174v-394zM457 800h-180v127h180v-127z" />
    <glyph glyph-name="Hbar" unicode="&#x126;" horiz-adv-x="800" 
d="M11 553v80h62v110h188v-110h279v110h187v-110h60v-80h-60v-553h-187v313h-279v-313h-188v553h-62zM261 455h279v98h-279v-98z" />
    <glyph glyph-name="Hcircumflex" unicode="&#x124;" horiz-adv-x="800" 
d="M727 0h-187v313h-279v-313h-188v743h188v-288h279v288h187v-743zM640 788h-152l-87 82l-86 -82h-152l135 146h208z" />
    <glyph glyph-name="Ibreve" unicode="&#x12c;" horiz-adv-x="333" 
d="M260 0h-187v743h187v-743zM375 948c-13 -114 -107 -159 -208 -159s-194 45 -208 159h102c8 -60 51 -77 106 -77c56 0 98 17 107 77h101z" />
    <glyph glyph-name="IJ" unicode="&#x132;" horiz-adv-x="689" 
d="M610 -23c0 -137 -61 -192 -198 -192c-33 0 -77 4 -99 9v114c20 -1 37 -2 53 -2c51 0 57 17 57 64v773h187v-766zM266 0h-187v743h187v-743z" />
    <glyph glyph-name="Imacron" unicode="&#x12a;" horiz-adv-x="333" 
d="M260 0h-187v743h187v-743zM371 808h-408v100h408v-100z" />
    <glyph glyph-name="Iogonek" unicode="&#x12e;" horiz-adv-x="333" 
d="M260 0c-76 -36 -91 -70 -91 -89c0 -23 14 -35 53 -35c29 0 58 3 84 5v-81c-23 -7 -75 -17 -135 -17c-97 0 -151 24 -151 107c0 41 18 81 53 112v741h187v-743z" />
    <glyph glyph-name="Itilde" unicode="&#x128;" horiz-adv-x="333" 
d="M260 0h-187v743h187v-743zM393 923c0 -101 -50 -139 -119 -139c-31 0 -63 9 -105 31l-47 26c-22 13 -37 20 -54 20c-24 0 -31 -16 -31 -47v-25h-98v25c0 100 52 138 122 138c34 0 58 -7 99 -29l48 -26c21 -12 37 -21 57 -21c24 0 30 15 30 47v24h98v-24z" />
    <glyph glyph-name="Jcircumflex" unicode="&#x134;" horiz-adv-x="333" 
d="M260 -23c0 -137 -61 -192 -198 -192c-33 0 -77 4 -99 9l7 120c15 -2 30 -5 46 -8c51 0 57 17 57 64v773h187v-766zM405 789h-152l-87 82l-86 -82h-152l135 146h208z" />
    <glyph glyph-name="Kcommaaccent" unicode="&#x136;" horiz-adv-x="738" 
d="M731 0h-226l-241 345v-345h-188v743h188v-344l254 344h216l-277 -367zM490 -63l-95 -140h-152l67 140h180z" />
    <glyph glyph-name="Lacute" unicode="&#x139;" horiz-adv-x="579" 
d="M552 0h-479v743h188v-603h291v-140zM532 935l-166 -146h-163l132 146h197z" />
    <glyph glyph-name="Lcaron" unicode="&#x13d;" horiz-adv-x="579" 
d="M552 0h-479v743h188v-603h291v-140zM569 759l-94 -255h-122l61 255h155z" />
    <glyph glyph-name="Lcommaaccent" unicode="&#x13b;" horiz-adv-x="579" 
d="M552 0h-479v743h188v-603h291v-140zM416 -63l-95 -140h-152l67 140h180z" />
    <glyph glyph-name="Ldot" unicode="&#x13f;" horiz-adv-x="579" 
d="M552 0h-479v743h188v-603h291v-140zM516 348h-165v165h165v-165z" />
    <glyph glyph-name="Nacute" unicode="&#x143;" horiz-adv-x="776" 
d="M703 0h-194l-215 386c-18 32 -37 69 -52 102h-2c1 -39 3 -80 3 -120v-368h-170v743h191l217 -379c18 -32 38 -72 53 -105h2c-2 35 -3 82 -3 127v357h170v-743zM622 935l-166 -146h-163l132 146h197z" />
    <glyph glyph-name="Ncaron" unicode="&#x147;" horiz-adv-x="776" 
d="M703 0h-194l-215 386c-18 32 -37 69 -52 102h-2c1 -39 3 -80 3 -120v-368h-170v743h191l217 -379c18 -32 38 -72 53 -105h2c-2 35 -3 82 -3 127v357h170v-743zM150 935h152l87 -82l86 82h153l-135 -146h-208z" />
    <glyph glyph-name="Ncommaaccent" unicode="&#x145;" horiz-adv-x="776" 
d="M703 0h-194l-215 386c-18 32 -37 69 -52 102h-2c1 -39 3 -80 3 -120v-368h-170v743h191l217 -379c18 -32 38 -72 53 -105h2c-2 35 -3 82 -3 127v357h170v-743zM494 -63l-95 -140h-152l67 140h180z" />
    <glyph glyph-name="Obreve" unicode="&#x14e;" horiz-adv-x="745" 
d="M696 333c0 -257 -131 -350 -324 -350c-192 0 -323 93 -323 350v76c0 258 132 350 323 350c192 0 324 -92 324 -350v-76zM512 334v75c0 155 -50 205 -140 205c-88 0 -139 -50 -139 -205v-75c0 -158 52 -206 139 -206c88 0 140 48 140 206zM580 943
c-13 -114 -107 -159 -208 -159c-100 0 -194 45 -207 159h101c8 -60 51 -77 106 -77c56 0 99 17 107 77h101z" />
    <glyph glyph-name="Ohungarumlaut" unicode="&#x150;" horiz-adv-x="745" 
d="M696 333c0 -257 -131 -350 -324 -350c-192 0 -323 93 -323 350v76c0 258 132 350 323 350c192 0 324 -92 324 -350v-76zM512 334v75c0 155 -50 205 -140 205c-88 0 -139 -50 -139 -205v-75c0 -158 52 -206 139 -206c88 0 140 48 140 206zM741 934l-166 -146h-150l132 146
h184zM280 934h185l-166 -146h-150z" />
    <glyph glyph-name="Omacron" unicode="&#x14c;" horiz-adv-x="745" 
d="M696 333c0 -257 -131 -350 -324 -350c-192 0 -323 93 -323 350v76c0 258 132 350 323 350c192 0 324 -92 324 -350v-76zM512 334v75c0 155 -50 205 -140 205c-88 0 -139 -50 -139 -205v-75c0 -158 52 -206 139 -206c88 0 140 48 140 206zM577 808h-409v100h409v-100z" />
    <glyph glyph-name="Oslashacute" unicode="&#x1fe;" horiz-adv-x="745" 
d="M696 333c0 -257 -131 -350 -324 -350c-73 0 -137 14 -189 44l-20 -27h-137l78 103c-35 55 -55 130 -55 230v76c0 258 132 350 323 350c74 0 140 -14 192 -46l23 30h138l-82 -109c34 -54 53 -128 53 -225v-76zM233 334c0 -21 1 -40 3 -57l229 304c-23 23 -54 33 -93 33
c-88 0 -139 -50 -139 -205v-75zM512 334v75c0 18 -1 34 -2 49l-228 -300c23 -22 53 -30 90 -30c88 0 140 48 140 206zM596 935l-167 -146h-163l132 146h198z" />
    <glyph glyph-name="Racute" unicode="&#x154;" horiz-adv-x="718" 
d="M706 0h-189l-152 265h-112v-265h-180v743c74 4 148 9 240 9c187 0 345 -36 345 -240v-7c0 -110 -44 -169 -118 -205zM477 502v7c0 84 -48 103 -158 103c-24 0 -42 0 -66 -1v-216h68c111 0 156 26 156 107zM573 935l-167 -146h-162l131 146h198z" />
    <glyph glyph-name="Rcaron" unicode="&#x158;" horiz-adv-x="718" 
d="M706 0h-189l-152 265h-112v-265h-180v743c74 4 148 9 240 9c187 0 345 -36 345 -240v-7c0 -110 -44 -169 -118 -205zM477 502v7c0 84 -48 103 -158 103c-24 0 -42 0 -66 -1v-216h68c111 0 156 26 156 107zM116 934h152l87 -82l86 82h153l-135 -146h-208z" />
    <glyph glyph-name="Rcommaaccent" unicode="&#x156;" horiz-adv-x="718" 
d="M706 0h-189l-152 265h-112v-265h-180v743c74 4 148 9 240 9c187 0 345 -36 345 -240v-7c0 -110 -44 -169 -118 -205zM477 502v7c0 84 -48 103 -158 103c-24 0 -42 0 -66 -1v-216h68c111 0 156 26 156 107zM472 -63l-96 -140h-152l68 140h180z" />
    <glyph glyph-name="Sacute" unicode="&#x15a;" horiz-adv-x="646" 
d="M547 935l-167 -146h-163l132 146h198zM601 209c0 -154 -105 -226 -285 -226c-99 0 -203 12 -251 24v122c64 -5 133 -12 230 -12c84 0 119 25 119 81c0 42 -18 59 -88 89l-108 46c-106 45 -172 98 -172 221c0 147 102 205 290 205c99 0 183 -15 227 -25v-120
c-69 6 -134 12 -217 12c-76 0 -116 -15 -116 -66c0 -38 16 -53 84 -81l105 -43c124 -51 182 -110 182 -227z" />
    <glyph glyph-name="Scedilla" unicode="&#x15e;" horiz-adv-x="646" 
d="M442 -63l-131 -140h-159l105 140h185zM601 209c0 -154 -105 -226 -285 -226c-99 0 -203 12 -251 24v122c64 -5 133 -12 230 -12c84 0 119 25 119 81c0 42 -18 59 -88 89l-108 46c-106 45 -172 98 -172 221c0 147 102 205 290 205c99 0 183 -15 227 -25v-120
c-69 6 -134 12 -217 12c-76 0 -116 -15 -116 -66c0 -38 16 -53 84 -81l105 -43c124 -51 182 -110 182 -227z" />
    <glyph glyph-name="Scircumflex" unicode="&#x15c;" horiz-adv-x="646" 
d="M557 789h-152l-87 82l-86 -82h-153l135 146h208zM601 209c0 -154 -105 -226 -285 -226c-99 0 -203 12 -251 24v122c64 -5 133 -12 230 -12c84 0 119 25 119 81c0 42 -18 59 -88 89l-108 46c-106 45 -172 98 -172 221c0 147 102 205 290 205c99 0 183 -15 227 -25v-120
c-69 6 -134 12 -217 12c-76 0 -116 -15 -116 -66c0 -38 16 -53 84 -81l105 -43c124 -51 182 -110 182 -227z" />
    <glyph glyph-name="Scommaaccent" unicode="&#x218;" horiz-adv-x="646" 
d="M432 -63l-95 -140h-152l67 140h180zM601 209c0 -154 -105 -226 -285 -226c-99 0 -203 12 -251 24v122c64 -5 133 -12 230 -12c84 0 119 25 119 81c0 42 -18 59 -88 89l-108 46c-106 45 -172 98 -172 221c0 147 102 205 290 205c99 0 183 -15 227 -25v-120
c-69 6 -134 12 -217 12c-76 0 -116 -15 -116 -66c0 -38 16 -53 84 -81l105 -43c124 -51 182 -110 182 -227z" />
    <glyph glyph-name="Tbar" unicode="&#x166;" horiz-adv-x="670" 
d="M644 607h-215v-146h187v-111h-187v-350h-188v350h-186v111h186v146h-215v136h618v-136z" />
    <glyph glyph-name="Tcaron" unicode="&#x164;" horiz-adv-x="670" 
d="M644 607h-215v-607h-188v607h-215v136h618v-136zM96 934h152l87 -82l86 82h153l-135 -146h-208z" />
    <glyph glyph-name="Tcedilla" unicode="&#x162;" horiz-adv-x="670" 
d="M644 607h-215v-607h-188v607h-215v136h618v-136zM433 -63l-95 -140h-152l67 140h180z" />
    <glyph glyph-name="Tcommaaccent" unicode="&#x21a;" horiz-adv-x="670" 
d="M644 607h-215v-607h-188v607h-215v136h618v-136zM433 -63l-95 -140h-152l67 140h180z" />
    <glyph glyph-name="Ubreve" unicode="&#x16c;" horiz-adv-x="763" 
d="M695 301c0 -214 -114 -318 -313 -318s-314 104 -314 318v442h185v-437c0 -132 28 -182 129 -182s130 50 130 182v437h183v-442zM590 938c-13 -114 -107 -159 -208 -159s-195 45 -208 159h102c8 -60 51 -77 106 -77c56 0 98 17 107 77h101z" />
    <glyph glyph-name="Uhungarumlaut" unicode="&#x170;" horiz-adv-x="763" 
d="M695 301c0 -214 -114 -318 -313 -318s-314 104 -314 318v442h185v-437c0 -132 28 -182 129 -182s130 50 130 182v437h183v-442zM752 935l-166 -146h-151l133 146h184zM291 935h185l-166 -146h-151z" />
    <glyph glyph-name="Umacron" unicode="&#x16a;" horiz-adv-x="763" 
d="M695 301c0 -214 -114 -318 -313 -318s-314 104 -314 318v442h185v-437c0 -132 28 -182 129 -182s130 50 130 182v437h183v-442zM586 808h-408v100h408v-100z" />
    <glyph glyph-name="Uogonek" unicode="&#x172;" horiz-adv-x="763" 
d="M695 301c0 -176 -77 -277 -214 -308c-79 -34 -95 -63 -95 -82c0 -23 14 -35 53 -35c29 0 58 3 84 5v-81c-23 -7 -75 -17 -135 -17c-97 0 -151 33 -151 99c0 37 24 76 75 106c-156 22 -244 125 -244 313v442h185v-437c0 -132 28 -182 129 -182s130 50 130 182v437h183
v-442z" />
    <glyph glyph-name="Uring" unicode="&#x16e;" horiz-adv-x="763" 
d="M695 301c0 -214 -114 -318 -313 -318s-314 104 -314 318v442h185v-437c0 -132 28 -182 129 -182s130 50 130 182v437h183v-442zM524 896c0 -80 -60 -122 -141 -122c-82 0 -144 42 -144 122c0 79 62 122 144 122c81 0 141 -43 141 -122zM438 896c0 34 -23 48 -55 48
s-56 -14 -56 -48c0 -33 23 -48 56 -48c32 0 55 15 55 48z" />
    <glyph glyph-name="Utilde" unicode="&#x168;" horiz-adv-x="763" 
d="M695 301c0 -214 -114 -318 -313 -318s-314 104 -314 318v442h185v-437c0 -132 28 -182 129 -182s130 50 130 182v437h183v-442zM611 923c0 -101 -50 -139 -119 -139c-31 0 -63 9 -105 31l-47 26c-22 13 -37 20 -54 20c-24 0 -31 -16 -31 -47v-25h-99v25
c0 100 53 138 123 138c34 0 58 -7 99 -29l47 -26c22 -12 38 -21 57 -21c25 0 31 15 31 47v24h98v-24z" />
    <glyph glyph-name="Wacute" unicode="&#x1e82;" horiz-adv-x="995" 
d="M958 743l-124 -743h-227l-87 353c-8 33 -15 71 -21 102h-3c-6 -31 -13 -69 -21 -102l-86 -353h-228l-124 743h186l61 -406c7 -48 13 -99 18 -142h4c10 44 19 90 29 132l67 276h193l67 -278c10 -41 20 -87 29 -130h4c4 44 10 91 17 142l62 406h184zM731 935l-167 -146
h-163l132 146h198z" />
    <glyph glyph-name="Wcircumflex" unicode="&#x174;" horiz-adv-x="995" 
d="M958 743l-124 -743h-227l-87 353c-8 33 -15 71 -21 102h-3c-6 -31 -13 -69 -21 -102l-86 -353h-228l-124 743h186l61 -406c7 -48 13 -99 18 -142h4c10 44 19 90 29 132l67 276h193l67 -278c10 -41 20 -87 29 -130h4c4 44 10 91 17 142l62 406h184zM737 789h-152l-87 82
l-86 -82h-153l135 146h209z" />
    <glyph glyph-name="Wdieresis" unicode="&#x1e84;" horiz-adv-x="995" 
d="M958 743l-124 -743h-227l-87 353c-8 33 -15 71 -21 102h-3c-6 -31 -13 -69 -21 -102l-86 -353h-228l-124 743h186l61 -406c7 -48 13 -99 18 -142h4c10 44 19 90 29 132l67 276h193l67 -278c10 -41 20 -87 29 -130h4c4 44 10 91 17 142l62 406h184zM695 800h-140v127h140
v-127zM441 927v-127h-140v127h140z" />
    <glyph glyph-name="Wgrave" unicode="&#x1e80;" horiz-adv-x="995" 
d="M958 743l-124 -743h-227l-87 353c-8 33 -15 71 -21 102h-3c-6 -31 -13 -69 -21 -102l-86 -353h-228l-124 743h186l61 -406c7 -48 13 -99 18 -142h4c10 44 19 90 29 132l67 276h193l67 -278c10 -41 20 -87 29 -130h4c4 44 10 91 17 142l62 406h184zM609 789h-162l-167 146
h198z" />
    <glyph glyph-name="Ycircumflex" unicode="&#x176;" horiz-adv-x="706" 
d="M692 743l-248 -475v-268h-182v268l-248 475h191l100 -197c16 -34 34 -77 47 -114h5c12 37 33 80 49 114l100 197h186zM593 789h-152l-87 82l-86 -82h-152l135 146h208z" />
    <glyph glyph-name="Ygrave" unicode="&#x1ef2;" horiz-adv-x="706" 
d="M692 743l-248 -475v-268h-182v268l-248 475h191l100 -197c16 -34 34 -77 47 -114h5c12 37 33 80 49 114l100 197h186zM468 788h-162l-167 146h198z" />
    <glyph glyph-name="Zacute" unicode="&#x179;" horiz-adv-x="658" 
d="M607 0h-556v142l331 462h-322v139h538v-144l-330 -460h339v-139zM572 935l-166 -146h-163l132 146h197z" />
    <glyph glyph-name="Zdotaccent" unicode="&#x17b;" horiz-adv-x="658" 
d="M607 0h-556v142l331 462h-322v139h538v-144l-330 -460h339v-139zM418 800h-179v127h179v-127z" />
    <glyph glyph-name="Idotaccent" unicode="&#x130;" horiz-adv-x="333" 
d="M260 0h-187v743h187v-743zM257 800h-180v127h180v-127z" />
    <glyph glyph-name="abreve" unicode="&#x103;" horiz-adv-x="609" 
d="M547 0h-159v37c-37 -25 -103 -52 -179 -52c-108 0 -167 55 -167 163v23c0 152 116 170 278 170h53v31c0 70 -15 84 -105 84c-51 0 -120 -3 -184 -10v104c32 12 124 35 220 35c178 0 243 -58 243 -213v-372zM379 123v128h-58c-79 0 -113 -9 -113 -74v-23
c0 -45 27 -58 65 -58c45 0 89 17 106 27zM519 789c-13 -114 -107 -160 -208 -160s-194 46 -208 160h102c8 -60 51 -77 106 -77c56 0 98 17 107 77h101z" />
    <glyph glyph-name="amacron" unicode="&#x101;" horiz-adv-x="609" 
d="M547 0h-159v37c-37 -25 -103 -52 -179 -52c-108 0 -167 55 -167 163v23c0 152 116 170 278 170h53v31c0 70 -15 84 -105 84c-51 0 -120 -3 -184 -10v104c32 12 124 35 220 35c178 0 243 -58 243 -213v-372zM379 123v128h-58c-79 0 -113 -9 -113 -74v-23
c0 -45 27 -58 65 -58c45 0 89 17 106 27zM511 653h-408v99h408v-99z" />
    <glyph glyph-name="aogonek" unicode="&#x105;" horiz-adv-x="609" 
d="M547 -200c-23 -7 -75 -17 -135 -17c-96 0 -150 26 -150 88c0 57 47 96 126 127v45c-37 -25 -103 -58 -179 -58c-108 0 -167 55 -167 163v23c0 152 116 170 278 170h53v31c0 70 -15 84 -105 84c-51 0 -120 -3 -184 -10v104c32 12 124 35 220 35c178 0 243 -58 243 -213
v-372c-114 -42 -136 -67 -136 -89c0 -23 13 -35 53 -35c29 0 58 3 83 5v-81zM379 123v128h-58c-79 0 -113 -9 -113 -74v-23c0 -45 27 -58 65 -58c45 0 89 17 106 27z" />
    <glyph glyph-name="aringacute" unicode="&#x1fb;" horiz-adv-x="609" 
d="M547 0h-159v37c-37 -25 -103 -52 -179 -52c-108 0 -167 55 -167 163v23c0 152 116 170 278 170h53v31c0 70 -15 84 -105 84c-51 0 -120 -3 -184 -10v104c32 12 124 35 220 35c178 0 243 -58 243 -213v-372zM379 123v128h-58c-79 0 -113 -9 -113 -74v-23
c0 -45 27 -58 65 -58c45 0 89 17 106 27zM456 728c0 -79 -60 -121 -141 -121c-82 0 -144 42 -144 121c0 80 62 123 144 123c81 0 141 -43 141 -123zM370 729c0 34 -24 48 -55 48c-33 0 -56 -14 -56 -48c0 -33 23 -48 56 -48c31 0 55 15 55 48zM559 1012l-166 -146h-163
l132 146h197z" />
    <glyph glyph-name="aeacute" unicode="&#x1fd;" horiz-adv-x="963" 
d="M893 9c-45 -11 -136 -23 -231 -23c-101 0 -176 20 -220 67c-74 -51 -143 -67 -233 -67c-108 0 -167 54 -167 162v23c0 152 116 170 278 170h53v31c0 66 -13 84 -104 84c-54 0 -115 -3 -185 -9v103c32 12 123 35 220 35c95 0 142 -16 175 -45c41 28 94 44 169 44
c213 0 272 -138 272 -284v-62h-374v-8c0 -74 9 -121 132 -121c67 0 157 4 215 11v-111zM750 333v8c0 63 -13 120 -102 120c-87 0 -101 -58 -101 -120v-8h203zM379 123v128h-58c-79 0 -113 -9 -113 -74v-23c0 -45 26 -58 65 -58c44 0 88 17 106 27zM728 777l-167 -146h-162
l131 146h198z" />
    <glyph glyph-name="cacute" unicode="&#x107;" horiz-adv-x="533" 
d="M492 7c-33 -8 -100 -22 -191 -22c-175 0 -254 92 -254 268v64c0 180 79 268 254 268c91 0 158 -14 191 -22v-119c-76 5 -125 8 -158 8c-76 0 -114 -23 -114 -135v-64c0 -112 39 -136 114 -136c33 0 82 3 158 8v-118zM532 777l-167 -146h-162l131 146h198z" />
    <glyph glyph-name="ccaron" unicode="&#x10d;" horiz-adv-x="533" 
d="M492 7c-33 -8 -100 -22 -191 -22c-175 0 -254 92 -254 268v64c0 180 79 268 254 268c91 0 158 -14 191 -22v-119c-76 5 -125 8 -158 8c-76 0 -114 -23 -114 -135v-64c0 -112 39 -136 114 -136c33 0 82 3 158 8v-118zM56 777h152l87 -82l86 82h153l-135 -146h-208z" />
    <glyph glyph-name="ccircumflex" unicode="&#x109;" horiz-adv-x="533" 
d="M492 7c-33 -8 -100 -22 -191 -22c-175 0 -254 92 -254 268v64c0 180 79 268 254 268c91 0 158 -14 191 -22v-119c-76 5 -125 8 -158 8c-76 0 -114 -23 -114 -135v-64c0 -112 39 -136 114 -136c33 0 82 3 158 8v-118zM537 631h-152l-87 82l-86 -82h-153l135 146h209z" />
    <glyph glyph-name="cdotaccent" unicode="&#x10b;" horiz-adv-x="533" 
d="M492 7c-33 -8 -100 -22 -191 -22c-175 0 -254 92 -254 268v64c0 180 79 268 254 268c91 0 158 -14 191 -22v-119c-76 5 -125 8 -158 8c-76 0 -114 -23 -114 -135v-64c0 -112 39 -136 114 -136c33 0 82 3 158 8v-118zM392 651h-180v127h180v-127z" />
    <glyph glyph-name="dcaron" unicode="&#x10f;" horiz-adv-x="827" 
d="M585 0h-161v29c-39 -24 -93 -44 -161 -44c-136 0 -216 83 -216 262v70c0 200 99 268 259 268c41 0 73 -4 105 -9v203h174v-779zM413 137v309c-31 5 -64 8 -86 8c-71 0 -106 -21 -106 -137v-70c0 -96 25 -130 98 -130c33 0 65 8 94 20zM847 779l-88 -255h-125l58 255h155z
" />
    <glyph glyph-name="dcroat" unicode="&#x111;" horiz-adv-x="670" 
d="M411 779h174v-56h57v-85h-57v-638h-161v29c-39 -24 -93 -44 -161 -44c-136 0 -216 83 -216 262v70c0 200 99 268 259 268c41 0 73 -4 105 -9v62h-166v85h166v56zM413 137v309c-31 5 -64 8 -86 8c-71 0 -106 -21 -106 -137v-70c0 -96 25 -130 98 -130c34 0 66 9 94 20z
" />
    <glyph glyph-name="ebreve" unicode="&#x115;" horiz-adv-x="637" 
d="M594 238h-375v-8c0 -75 10 -116 133 -116c58 0 118 4 214 11v-115c-44 -11 -124 -25 -222 -25c-209 0 -297 73 -297 282v31c0 199 95 287 275 287c214 0 272 -136 272 -300v-47zM423 333v8c0 63 -13 120 -102 120c-86 0 -101 -58 -101 -120v-8h203zM527 788
c-13 -114 -107 -159 -208 -159s-195 45 -208 159h102c8 -60 51 -77 106 -77c56 0 98 17 107 77h101z" />
    <glyph glyph-name="ecaron" unicode="&#x11b;" horiz-adv-x="637" 
d="M594 238h-375v-8c0 -75 10 -116 133 -116c58 0 118 4 214 11v-115c-44 -11 -124 -25 -222 -25c-209 0 -297 73 -297 282v31c0 199 95 287 275 287c214 0 272 -136 272 -300v-47zM423 333v8c0 63 -13 120 -102 120c-86 0 -101 -58 -101 -120v-8h203zM86 777h152l87 -82
l86 82h153l-135 -146h-208z" />
    <glyph glyph-name="edotaccent" unicode="&#x117;" horiz-adv-x="637" 
d="M594 238h-375v-8c0 -75 10 -116 133 -116c58 0 118 4 214 11v-115c-44 -11 -124 -25 -222 -25c-209 0 -297 73 -297 282v31c0 199 95 287 275 287c214 0 272 -136 272 -300v-47zM423 333v8c0 63 -13 120 -102 120c-86 0 -101 -58 -101 -120v-8h203zM406 651h-180v127h180
v-127z" />
    <glyph glyph-name="emacron" unicode="&#x113;" horiz-adv-x="637" 
d="M594 238h-375v-8c0 -75 10 -116 133 -116c58 0 118 4 214 11v-115c-44 -11 -124 -25 -222 -25c-209 0 -297 73 -297 282v31c0 199 95 287 275 287c214 0 272 -136 272 -300v-47zM423 333v8c0 63 -13 120 -102 120c-86 0 -101 -58 -101 -120v-8h203zM521 653h-409v99h409
v-99z" />
    <glyph glyph-name="eng" unicode="&#x14b;" horiz-adv-x="671" 
d="M68 570h163v-46c58 36 125 61 191 61c168 0 184 -100 184 -224v-395c0 -136 -53 -183 -183 -183c-39 0 -82 5 -100 9v110c19 -1 37 -2 58 -2c43 0 51 15 51 66v395c0 69 -13 93 -68 93c-31 0 -74 -12 -122 -32v-422h-174v570z" />
    <glyph glyph-name="eogonek" unicode="&#x119;" horiz-adv-x="637" 
d="M594 238h-375v-8c0 -75 10 -116 133 -116c58 0 118 4 214 11v-115c-115 -42 -137 -77 -137 -99c0 -23 14 -35 53 -35c29 0 58 3 84 5v-81c-23 -7 -75 -17 -135 -17c-97 0 -151 33 -151 99c0 35 23 74 71 103h-7c-209 0 -297 73 -297 282v31c0 199 95 287 275 287
c214 0 272 -136 272 -300v-47zM423 333v8c0 63 -13 120 -102 120c-86 0 -101 -58 -101 -120v-8h203z" />
    <glyph glyph-name="gbreve" unicode="&#x11f;" horiz-adv-x="655" 
d="M587 -15c0 -127 -60 -201 -269 -201c-109 0 -216 18 -236 23v104c65 -3 153 -8 222 -8c98 0 109 25 109 82v19c-19 -3 -60 -8 -91 -8c-175 0 -273 78 -273 265v58c0 184 91 266 304 266c83 0 167 -7 234 -15v-585zM414 132v317c-11 2 -42 5 -78 5
c-90 0 -114 -42 -114 -135v-58c0 -99 30 -134 113 -134c30 0 67 3 79 5zM537 788c-13 -114 -107 -159 -208 -159c-100 0 -194 45 -207 159h101c8 -60 51 -77 106 -77c56 0 99 17 107 77h101z" />
    <glyph glyph-name="gcircumflex" unicode="&#x11d;" horiz-adv-x="655" 
d="M587 -15c0 -127 -60 -201 -269 -201c-109 0 -216 18 -236 23v104c65 -3 153 -8 222 -8c98 0 109 25 109 82v19c-19 -3 -60 -8 -91 -8c-175 0 -273 78 -273 265v58c0 184 91 266 304 266c83 0 167 -7 234 -15v-585zM414 132v317c-11 2 -42 5 -78 5
c-90 0 -114 -42 -114 -135v-58c0 -99 30 -134 113 -134c30 0 67 3 79 5zM568 631h-152l-87 82l-86 -82h-153l135 146h209z" />
    <glyph glyph-name="gcommaaccent" unicode="&#x123;" horiz-adv-x="655" 
d="M587 -15c0 -127 -60 -201 -269 -201c-109 0 -216 18 -236 23v104c65 -3 153 -8 222 -8c98 0 109 25 109 82v19c-19 -3 -60 -8 -91 -8c-175 0 -273 78 -273 265v58c0 184 91 266 304 266c83 0 167 -7 234 -15v-585zM414 132v317c-11 2 -42 5 -78 5
c-90 0 -114 -42 -114 -135v-58c0 -99 30 -134 113 -134c30 0 67 3 79 5zM253 631l95 140h152l-67 -140h-180z" />
    <glyph glyph-name="gdotaccent" unicode="&#x121;" horiz-adv-x="655" 
d="M587 -15c0 -127 -60 -201 -269 -201c-109 0 -216 18 -236 23v104c65 -3 153 -8 222 -8c98 0 109 25 109 82v19c-19 -3 -60 -8 -91 -8c-175 0 -273 78 -273 265v58c0 184 91 266 304 266c83 0 167 -7 234 -15v-585zM414 132v317c-11 2 -42 5 -78 5
c-90 0 -114 -42 -114 -135v-58c0 -99 30 -134 113 -134c30 0 67 3 79 5zM419 651h-179v127h179v-127z" />
    <glyph glyph-name="hbar" unicode="&#x127;" 
d="M13 640v83h55v56h175v-56h168v-83h-168v-95c43 22 107 40 170 40c158 0 193 -92 193 -224v-361h-174v359c0 74 -19 95 -75 95c-44 0 -88 -15 -114 -27v-427h-175v640h-55z" />
    <glyph glyph-name="hcircumflex" unicode="&#x125;" 
d="M606 0h-174v359c0 74 -19 95 -75 95c-44 0 -89 -15 -115 -27v-427h-174v779h174v-234c44 22 107 40 171 40c158 0 193 -92 193 -224v-361zM575 797h-153l-86 82l-87 -82h-152l135 146h208z" />
    <glyph glyph-name="ibreve" unicode="&#x12d;" horiz-adv-x="318" 
d="M246 0h-174v570h174v-570zM367 788c-13 -114 -107 -159 -208 -159c-100 0 -194 45 -207 159h101c8 -60 51 -77 106 -77c56 0 99 17 107 77h101z" />
    <glyph glyph-name="ij" unicode="&#x133;" horiz-adv-x="641" 
d="M247 0h-174v570h174v-570zM251 648h-181v131h181v-131zM568 -35c0 -139 -52 -183 -184 -183c-40 0 -81 4 -98 8v110c19 0 37 -1 57 -1c44 0 51 15 51 66v605h174v-605zM572 648h-181v131h181v-131z" />
    <glyph glyph-name="imacron" unicode="&#x12b;" horiz-adv-x="318" 
d="M246 0h-174v570h174v-570zM364 653h-409v99h409v-99z" />
    <glyph glyph-name="iogonek" unicode="&#x12f;" horiz-adv-x="318" 
d="M300 -200c-23 -7 -78 -17 -135 -17c-96 0 -150 33 -150 107c0 44 22 82 57 112v568h174v-570c-66 -36 -82 -66 -82 -87c0 -23 13 -37 53 -37c31 0 58 3 83 5v-81zM250 648h-181v131h181v-131z" />
    <glyph glyph-name="itilde" unicode="&#x129;" horiz-adv-x="318" 
d="M246 0h-174v570h174v-570zM387 766c0 -101 -50 -139 -119 -139c-31 0 -63 8 -105 30l-47 26c-22 13 -37 21 -54 21c-24 0 -31 -17 -31 -48v-24h-99v24c0 101 53 139 123 139c34 0 58 -7 99 -29l47 -26c22 -12 38 -21 57 -21c25 0 31 15 31 47v24h98v-24z" />
    <glyph glyph-name="jcircumflex" unicode="&#x135;" horiz-adv-x="318" 
d="M246 -35c0 -139 -52 -183 -184 -183c-40 0 -82 5 -98 9v110c19 -1 37 -1 56 -1c45 0 52 14 52 65v605h174v-605zM398 631h-153l-86 82l-87 -82h-152l135 146h208z" />
    <glyph glyph-name="kcommaaccent" unicode="&#x137;" horiz-adv-x="624" 
d="M615 0h-197l-176 264v-264h-174v779h174v-461l179 252h186l-198 -274zM421 -63l-95 -140h-152l67 140h180z" />
    <glyph glyph-name="lacute" unicode="&#x13a;" horiz-adv-x="317" 
d="M246 0h-174v779h174v-779zM389 944l-166 -146h-163l132 146h197z" />
    <glyph glyph-name="lcaron" unicode="&#x13e;" horiz-adv-x="500" 
d="M246 0h-174v779h174v-779zM520 779l-94 -256h-122l61 256h155z" />
    <glyph glyph-name="lcommaaccent" unicode="&#x13c;" horiz-adv-x="317" 
d="M246 0h-174v779h174v-779zM249 -63l-95 -140h-152l67 140h180z" />
    <glyph glyph-name="ldot" unicode="&#x140;" horiz-adv-x="488" 
d="M246 0h-174v779h174v-779zM478 286h-165v165h165v-165z" />
    <glyph glyph-name="nacute" unicode="&#x144;" horiz-adv-x="671" 
d="M606 0h-174v361c0 69 -13 93 -68 93c-32 0 -76 -13 -122 -32v-422h-174v570h164v-46c58 36 122 61 187 61c172 0 187 -100 187 -224v-361zM570 777l-166 -146h-163l132 146h197z" />
    <glyph glyph-name="ncaron" unicode="&#x148;" horiz-adv-x="671" 
d="M606 0h-174v361c0 69 -13 93 -68 93c-32 0 -76 -13 -122 -32v-422h-174v570h164v-46c58 36 122 61 187 61c172 0 187 -100 187 -224v-361zM102 777h153l86 -82l87 82h152l-135 -146h-208z" />
    <glyph glyph-name="ncommaaccent" unicode="&#x146;" horiz-adv-x="671" 
d="M606 0h-174v361c0 69 -13 93 -68 93c-32 0 -76 -13 -122 -32v-422h-174v570h164v-46c58 36 122 61 187 61c172 0 187 -100 187 -224v-361zM434 -63l-95 -140h-152l67 140h180z" />
    <glyph glyph-name="obreve" unicode="&#x14f;" horiz-adv-x="642" 
d="M595 253c0 -187 -100 -268 -275 -268c-173 0 -273 81 -273 268v63c0 188 100 269 273 269c175 0 275 -81 275 -269v-63zM421 253v63c0 101 -30 136 -101 136c-70 0 -100 -35 -100 -136v-63c0 -101 30 -136 100 -136c71 0 101 35 101 136zM528 788
c-13 -114 -106 -159 -207 -159s-195 45 -208 159h101c9 -60 51 -77 107 -77s98 17 107 77h100z" />
    <glyph glyph-name="ohungarumlaut" unicode="&#x151;" horiz-adv-x="642" 
d="M595 253c0 -187 -100 -268 -275 -268c-173 0 -273 81 -273 268v63c0 188 100 269 273 269c175 0 275 -81 275 -269v-63zM421 253v63c0 101 -30 136 -101 136c-70 0 -100 -35 -100 -136v-63c0 -101 30 -136 100 -136c71 0 101 35 101 136zM704 777l-166 -146h-151l133 146
h184zM243 777h185l-166 -146h-151z" />
    <glyph glyph-name="omacron" unicode="&#x14d;" horiz-adv-x="642" 
d="M595 253c0 -187 -100 -268 -275 -268c-173 0 -273 81 -273 268v63c0 188 100 269 273 269c175 0 275 -81 275 -269v-63zM421 253v63c0 101 -30 136 -101 136c-70 0 -100 -35 -100 -136v-63c0 -101 30 -136 100 -136c71 0 101 35 101 136zM525 653h-409v99h409v-99z" />
    <glyph glyph-name="oslashacute" unicode="&#x1ff;" horiz-adv-x="642" 
d="M595 253c0 -187 -100 -268 -275 -268c-67 0 -123 13 -167 38l-30 -38h-100l72 90c-31 42 -48 101 -48 178v63c0 188 100 269 273 269c64 0 118 -11 160 -34l28 34h100l-68 -83c36 -44 55 -105 55 -186v-63zM541 777l-167 -146h-163l132 146h198zM421 253v63
c0 13 -1 25 -2 36l-170 -211c16 -17 39 -24 71 -24c71 0 101 35 101 136zM220 229l165 204c-16 13 -37 19 -65 19c-70 0 -100 -35 -100 -136v-87z" />
    <glyph glyph-name="racute" unicode="&#x155;" horiz-adv-x="435" 
d="M418 439c-63 0 -131 -11 -176 -26v-413h-174v570h162v-47c56 51 126 62 188 62v-146zM483 777l-166 -146h-163l132 146h197z" />
    <glyph glyph-name="rcaron" unicode="&#x159;" horiz-adv-x="435" 
d="M418 439c-63 0 -131 -11 -176 -26v-413h-174v570h162v-47c56 51 126 62 188 62v-146zM-2 777h152l87 -82l86 82h153l-135 -146h-208z" />
    <glyph glyph-name="rcommaaccent" unicode="&#x157;" horiz-adv-x="435" 
d="M418 439c-63 0 -131 -11 -176 -26v-413h-174v570h162v-47c56 51 126 62 188 62v-146zM311 -63l-95 -140h-152l67 140h180z" />
    <glyph glyph-name="sacute" unicode="&#x15b;" horiz-adv-x="543" 
d="M512 777l-166 -146h-163l132 146h197zM507 167c0 -122 -80 -181 -252 -181c-80 0 -172 13 -204 22v106c25 -1 117 -11 195 -11c70 0 93 16 93 51c0 34 -18 41 -90 68l-46 17c-106 41 -161 90 -161 184c0 125 89 162 235 162c84 0 166 -12 202 -23v-109
c-68 6 -126 10 -186 10c-56 0 -84 -2 -84 -36c0 -30 18 -37 78 -60l50 -18c127 -46 170 -92 170 -182z" />
    <glyph glyph-name="scedilla" unicode="&#x15f;" horiz-adv-x="543" 
d="M385 -63l-132 -140h-159l105 140h186zM507 167c0 -122 -80 -181 -252 -181c-80 0 -172 13 -204 22v106c25 -1 117 -11 195 -11c70 0 93 16 93 51c0 34 -18 41 -90 68l-46 17c-106 41 -161 90 -161 184c0 125 89 162 235 162c84 0 166 -12 202 -23v-109
c-68 6 -126 10 -186 10c-56 0 -84 -2 -84 -36c0 -30 18 -37 78 -60l50 -18c127 -46 170 -92 170 -182z" />
    <glyph glyph-name="scircumflex" unicode="&#x15d;" horiz-adv-x="543" 
d="M509 631h-152l-87 82l-86 -82h-153l135 146h208zM507 167c0 -122 -80 -181 -252 -181c-80 0 -172 13 -204 22v106c25 -1 117 -11 195 -11c70 0 93 16 93 51c0 34 -18 41 -90 68l-46 17c-106 41 -161 90 -161 184c0 125 89 162 235 162c84 0 166 -12 202 -23v-109
c-68 6 -126 10 -186 10c-56 0 -84 -2 -84 -36c0 -30 18 -37 78 -60l50 -18c127 -46 170 -92 170 -182z" />
    <glyph glyph-name="scommaaccent" unicode="&#x219;" horiz-adv-x="543" 
d="M366 -63l-96 -140h-152l68 140h180zM507 167c0 -122 -80 -181 -252 -181c-80 0 -172 13 -204 22v106c25 -1 117 -11 195 -11c70 0 93 16 93 51c0 34 -18 41 -90 68l-46 17c-106 41 -161 90 -161 184c0 125 89 162 235 162c84 0 166 -12 202 -23v-109
c-68 6 -126 10 -186 10c-56 0 -84 -2 -84 -36c0 -30 18 -37 78 -60l50 -18c127 -46 170 -92 170 -182z" />
    <glyph glyph-name="tbar" unicode="&#x167;" horiz-adv-x="452" 
d="M422 289h-127v-128c0 -49 3 -59 47 -59c26 0 59 2 79 3v-104c-14 -4 -68 -15 -127 -15c-121 0 -173 47 -173 173v130l-99 6v101h99v68l-99 5v101h99v139h174v-139h127v-106h-127v-68h127v-107z" />
    <glyph glyph-name="tcaron" unicode="&#x165;" horiz-adv-x="485" 
d="M421 1c-15 -4 -69 -16 -127 -16c-121 0 -174 48 -174 174v287l-99 9v115h99v144h174v-144h128v-124h-128v-285c0 -47 3 -57 47 -57c27 0 66 2 80 4v-107zM507 779l-67 -159h-100l33 159h134z" />
    <glyph glyph-name="tcedilla" unicode="&#x163;" horiz-adv-x="452" 
d="M421 1c-15 -4 -69 -16 -127 -16c-121 0 -174 48 -174 174v287l-99 9v115h99v144h174v-144h128v-124h-128v-285c0 -47 3 -57 47 -57c27 0 66 2 80 4v-107zM357 -63l-95 -140h-152l67 140h180z" />
    <glyph glyph-name="tcommaaccent" unicode="&#x21b;" horiz-adv-x="452" 
d="M421 1c-15 -4 -69 -16 -127 -16c-121 0 -174 48 -174 174v287l-99 9v115h99v144h174v-144h128v-124h-128v-285c0 -47 3 -57 47 -57c27 0 66 2 80 4v-107zM357 -63l-95 -140h-152l67 140h180z" />
    <glyph glyph-name="ubreve" unicode="&#x16d;" 
d="M605 0h-164v46c-60 -35 -125 -61 -200 -61c-156 0 -174 109 -174 224v361h174v-361c0 -69 12 -93 68 -93c33 0 75 13 122 32v422h174v-570zM545 788c-13 -114 -107 -159 -208 -159c-100 0 -194 45 -207 159h101c8 -60 51 -77 106 -77c57 0 99 17 108 77h100z" />
    <glyph glyph-name="uhungarumlaut" unicode="&#x171;" 
d="M605 0h-164v46c-60 -35 -125 -61 -200 -61c-156 0 -174 109 -174 224v361h174v-361c0 -69 12 -93 68 -93c33 0 75 13 122 32v422h174v-570zM705 777l-167 -146h-150l133 146h184zM244 777h185l-167 -146h-150z" />
    <glyph glyph-name="umacron" unicode="&#x16b;" 
d="M605 0h-164v46c-60 -35 -125 -61 -200 -61c-156 0 -174 109 -174 224v361h174v-361c0 -69 12 -93 68 -93c33 0 75 13 122 32v422h174v-570zM542 653h-409v99h409v-99z" />
    <glyph glyph-name="uogonek" unicode="&#x173;" 
d="M605 -200c-23 -7 -75 -17 -135 -17c-96 0 -150 33 -150 99c0 45 43 93 121 124v40c-60 -35 -125 -61 -200 -61c-156 0 -174 109 -174 224v361h174v-361c0 -69 12 -93 68 -93c33 0 75 13 122 32v422h174v-570c-115 -42 -137 -67 -137 -89c0 -23 14 -35 54 -35
c28 0 57 3 83 5v-81z" />
    <glyph glyph-name="uring" unicode="&#x16f;" 
d="M605 0h-164v46c-60 -35 -125 -61 -200 -61c-156 0 -174 109 -174 224v361h174v-361c0 -69 12 -93 68 -93c33 0 75 13 122 32v422h174v-570zM481 738c0 -79 -60 -121 -141 -121c-82 0 -144 42 -144 121c0 80 62 122 144 122c81 0 141 -42 141 -122zM395 739
c0 34 -24 48 -55 48c-33 0 -56 -14 -56 -48s23 -48 56 -48c31 0 55 14 55 48z" />
    <glyph glyph-name="utilde" unicode="&#x169;" 
d="M605 0h-164v46c-60 -35 -125 -61 -200 -61c-156 0 -174 109 -174 224v361h174v-361c0 -69 12 -93 68 -93c33 0 75 13 122 32v422h174v-570zM564 766c0 -101 -49 -139 -118 -139c-31 0 -63 8 -105 30l-47 26c-22 13 -37 21 -54 21c-25 0 -31 -17 -31 -48v-24h-99v24
c0 101 53 139 123 139c34 0 58 -7 99 -29l47 -26c22 -12 38 -21 57 -21c25 0 31 15 31 47v24h97v-24z" />
    <glyph glyph-name="wacute" unicode="&#x1e83;" horiz-adv-x="936" 
d="M908 570l-120 -570h-215l-76 244c-13 43 -22 79 -27 114h-4c-5 -35 -14 -71 -28 -114l-76 -244h-214l-120 570h176l52 -282c9 -51 16 -97 18 -136h4c10 41 21 90 35 136l63 199h184l63 -199c15 -46 25 -95 36 -136h4c2 39 9 85 17 137l52 281h176zM701 777l-167 -146
h-162l131 146h198z" />
    <glyph glyph-name="wcircumflex" unicode="&#x175;" horiz-adv-x="936" 
d="M908 570l-120 -570h-215l-76 244c-13 43 -22 79 -27 114h-4c-5 -35 -14 -71 -28 -114l-76 -244h-214l-120 570h176l52 -282c9 -51 16 -97 18 -136h4c10 41 21 90 35 136l63 199h184l63 -199c15 -46 25 -95 36 -136h4c2 39 9 85 17 137l52 281h176zM707 631h-153l-86 82
l-87 -82h-152l135 146h208z" />
    <glyph glyph-name="wdieresis" unicode="&#x1e85;" horiz-adv-x="936" 
d="M908 570l-120 -570h-215l-76 244c-13 43 -22 79 -27 114h-4c-5 -35 -14 -71 -28 -114l-76 -244h-214l-120 570h176l52 -282c9 -51 16 -97 18 -136h4c10 41 21 90 35 136l63 199h184l63 -199c15 -46 25 -95 36 -136h4c2 39 9 85 17 137l52 281h176zM665 645h-140v127h140
v-127zM411 772v-127h-141v127h141z" />
    <glyph glyph-name="wgrave" unicode="&#x1e81;" horiz-adv-x="936" 
d="M908 570l-120 -570h-215l-76 244c-13 43 -22 79 -27 114h-4c-5 -35 -14 -71 -28 -114l-76 -244h-214l-120 570h176l52 -282c9 -51 16 -97 18 -136h4c10 41 21 90 35 136l63 199h184l63 -199c15 -46 25 -95 36 -136h4c2 39 9 85 17 137l52 281h176zM574 631h-162l-167 146
h198z" />
    <glyph glyph-name="ycircumflex" unicode="&#x177;" horiz-adv-x="637" 
d="M616 570l-181 -574c-44 -152 -103 -212 -238 -212c-62 0 -122 5 -161 13v111c49 -2 73 -2 108 -2c42 0 57 17 76 69l10 31l-207 564h187l84 -293c13 -49 22 -99 34 -151h2c10 52 20 101 33 152l76 292h177zM566 631h-152l-87 82l-86 -82h-153l135 146h209z" />
    <glyph glyph-name="ygrave" unicode="&#x1ef3;" horiz-adv-x="637" 
d="M616 570l-181 -574c-44 -152 -103 -212 -238 -212c-62 0 -122 5 -161 13v111c49 -2 73 -2 108 -2c42 0 57 17 76 69l10 31l-207 564h187l84 -293c13 -49 22 -99 34 -151h2c10 52 20 101 33 152l76 292h177zM444 631h-163l-167 146h198z" />
    <glyph glyph-name="zacute" unicode="&#x17a;" horiz-adv-x="548" 
d="M505 0h-465v128l269 317h-260v125h455v-130l-267 -317h268v-123zM523 777l-166 -146h-163l132 146h197z" />
    <glyph glyph-name="zdotaccent" unicode="&#x17c;" horiz-adv-x="548" 
d="M505 0h-465v128l269 317h-260v125h455v-130l-267 -317h268v-123zM375 651h-179v127h179v-127z" />
    <glyph glyph-name="kgreenlandic" unicode="&#x138;" horiz-adv-x="624" 
d="M615 0h-197l-176 264v-264h-174v570h174v-252l179 252h186l-198 -274z" />
    <glyph glyph-name="napostrophe" unicode="&#x149;" horiz-adv-x="788" 
d="M723 0h-174v361c0 69 -13 93 -68 93c-32 0 -76 -13 -122 -32v-422h-174v570h164v-46c58 36 122 61 187 61c172 0 187 -100 187 -224v-361zM206 779l-95 -256h-121l60 256h156z" />
    <glyph glyph-name="Delta" unicode="&#x2206;" horiz-adv-x="781" 
d="M745 0h-709l208 743h290zM523 131l-106 387c-11 39 -18 83 -26 119h-2c-7 -36 -15 -80 -26 -119l-106 -387h266z" />
    <glyph glyph-name="uni03A9" unicode="&#x3a9;" horiz-adv-x="747" 
d="M701 408c0 -125 -46 -217 -161 -260v-35h149v-113h-281v213c79 19 111 82 111 182v58c0 125 -60 161 -146 161s-146 -36 -146 -161v-58c0 -100 32 -163 111 -182v-213h-280v113h148v35c-115 43 -161 135 -161 260l1 57c0 201 121 294 327 294c207 0 328 -93 328 -294v-57
z" />
    <glyph glyph-name="uni03BC" unicode="&#x3bc;" horiz-adv-x="711" 
d="M620 0h-164v46c-52 -28 -100 -46 -147 -51c-20 -1 -37 0 -53 3v-200h-174v772h174v-361c0 -69 12 -93 68 -93c33 0 75 13 122 32v422h174v-570z" />
    <glyph glyph-name="pi" unicode="&#x3c0;" horiz-adv-x="732" 
d="M690 -7c-22 -5 -61 -8 -89 -8c-122 0 -167 48 -167 170v267h-139v-422h-175v422h-83v148h653v-148h-82v-270c0 -37 6 -48 38 -48c16 0 29 0 44 1v-112z" />
    <glyph glyph-name="uni037E" unicode="&#x37e;" horiz-adv-x="280" 
d="M223 258h-164v165h164v-165z" />
    <glyph glyph-name="exclamdbl" unicode="&#x203c;" horiz-adv-x="624" 
d="M544 0h-179v164h179v-164zM551 779l-16 -557h-161l-16 557h193zM258 0h-179v164h179v-164zM266 779l-16 -557h-161l-17 557h194z" />
    <glyph glyph-name="franc" unicode="&#x20a3;" horiz-adv-x="638" 
d="M272 0h-187v131h-47v99h47v513h506v-137h-319v-162h307v-132h-307v-82h160v-99h-160v-131z" />
    <glyph glyph-name="lira" unicode="&#x20a4;" 
d="M612 739v-128c-64 6 -137 11 -188 11c-100 0 -111 -27 -111 -124v-29h209v-78h-209v-68h209v-77h-209v-28c0 -34 -7 -59 -25 -85h324v-133h-526v109c33 32 46 69 46 109v28h-75v77h75v68h-75v78h75v29c0 184 69 262 262 262c82 0 163 -9 218 -21z" />
    <glyph glyph-name="peseta" unicode="&#x20a7;" horiz-adv-x="773" 
d="M96 562v181c80 5 165 9 244 9c175 0 318 -31 344 -190h58v-113h-57c-24 -164 -167 -195 -327 -195c-28 0 -51 0 -82 1v-255h-180v449h-59v113h59zM508 500v10c-1 86 -52 102 -156 102c-26 0 -53 -1 -76 -1v-216h77c104 0 155 20 155 105z" />
    <glyph glyph-name="Euro" unicode="&#x20ac;" horiz-adv-x="686" 
d="M50 490h63c22 207 140 269 331 269c61 0 150 -11 187 -21v-133c-3 0 -7 1 -10 1c-48 4 -102 8 -159 8c-91 0 -143 -25 -158 -124h300l-20 -78h-285v-76h262l-20 -78h-238c15 -104 67 -130 160 -130c61 0 118 4 168 8v-133c-37 -9 -126 -20 -187 -20
c-192 0 -311 64 -331 275h-63v78h60v76h-60v78z" />
    <glyph glyph-name="litre" unicode="&#x2113;" horiz-adv-x="539" 
d="M497 43c-49 -35 -109 -61 -185 -61c-118 0 -182 55 -182 199l-68 -61l-37 61c37 37 72 69 105 104v317c0 131 57 189 190 189c125 0 169 -52 169 -136c0 -109 -71 -207 -184 -307v-177c0 -66 19 -83 63 -83c25 0 55 12 82 30zM412 654c0 34 -10 61 -51 61
c-52 0 -56 -41 -56 -113v-161c71 72 107 138 107 213z" />
    <glyph glyph-name="Omega" unicode="&#x2126;" horiz-adv-x="747" 
d="M701 408c0 -125 -46 -217 -161 -260v-35h149v-113h-281v213c79 19 111 82 111 182v58c0 125 -60 161 -146 161s-146 -36 -146 -161v-58c0 -100 32 -163 111 -182v-213h-280v113h148v35c-115 43 -161 135 -161 260l1 57c0 201 121 294 327 294c207 0 328 -93 328 -294v-57
z" />
    <glyph glyph-name="estimated" unicode="&#x212e;" horiz-adv-x="657" 
d="M625 282h-464v-193c46 -40 99 -63 164 -63c121 0 179 59 227 127l33 -19c-56 -81 -125 -141 -260 -141c-176 0 -293 133 -293 290c0 159 113 290 297 290s296 -134 296 -291zM495 315v163c-39 33 -103 62 -166 62c-65 0 -125 -21 -168 -62v-163h334z" />
    <glyph glyph-name="partialdiff" unicode="&#x2202;" horiz-adv-x="671" 
d="M619 448c0 -67 -8 -142 -21 -204c-39 -182 -135 -258 -303 -258c-160 0 -243 77 -243 213c0 30 2 62 7 91c26 166 135 232 293 232c47 0 82 -16 103 -28c0 14 -2 34 -5 48c-13 77 -56 143 -189 143c-38 0 -83 -4 -127 -13l7 104c48 11 99 16 147 16
c224 0 331 -136 331 -344zM435 313c0 52 -26 77 -86 77c-72 0 -109 -41 -120 -126c-3 -24 -5 -48 -5 -68c0 -56 26 -79 86 -79c72 0 106 42 120 137c4 24 5 45 5 59z" />
    <glyph glyph-name="product" unicode="&#x220f;" horiz-adv-x="789" 
d="M751 594h-81v-665h-177v665h-198v-665h-177v665h-81v149h714v-149z" />
    <glyph glyph-name="summation" unicode="&#x2211;" horiz-adv-x="630" 
d="M569 -71h-507v138l208 267l-208 271v138h507v-138h-307l178 -236v-72l-178 -230h307v-138z" />
    <glyph glyph-name="uni2219" unicode="&#x2219;" horiz-adv-x="302" 
d="M233 286h-165v165h165v-165z" />
    <glyph glyph-name="radical" unicode="&#x221a;" horiz-adv-x="833" 
d="M787 872l-295 -942h-186l-137 440h-123v132h225l127 -423l243 793h146z" />
    <glyph glyph-name="infinity" unicode="&#x221e;" horiz-adv-x="733" 
d="M640 365c0 -75 -8 -242 -161 -242h-6c-47 0 -82 17 -112 50c-23 -32 -59 -52 -104 -52h-7c-153 0 -162 163 -162 243v25c0 73 8 242 163 242h7c46 0 82 -19 109 -52c25 37 59 53 106 53h7c152 0 160 -162 160 -243v-24zM532 365v24c0 76 -2 139 -54 139h-5
c-38 -1 -45 -48 -56 -154c-4 -40 -8 -65 -15 -108c20 -29 43 -41 69 -41h5c53 0 56 68 56 140zM328 484c-18 28 -43 45 -68 45h-6c-54 0 -57 -74 -57 -140v-25c0 -70 2 -139 56 -139h5c35 0 43 43 56 152c3 36 8 64 14 107z" />
    <glyph glyph-name="integral" unicode="&#x222b;" horiz-adv-x="544" 
d="M493 667c-25 1 -57 3 -82 3c-48 0 -52 -13 -52 -62v-640c0 -110 -41 -172 -169 -172c-58 0 -110 9 -139 16v98c25 -1 57 -3 82 -3c47 0 52 13 52 63v640c0 109 40 171 168 171c58 0 111 -9 140 -15v-99z" />
    <glyph glyph-name="approxequal" unicode="&#x2248;" horiz-adv-x="677" 
d="M590 583c0 -111 -54 -155 -133 -155c-38 0 -73 8 -115 31l-56 32c-25 14 -40 23 -57 23c-26 0 -32 -17 -32 -51v-28h-111v28c0 111 57 154 136 154c36 0 64 -11 105 -34l60 -32c23 -15 39 -19 61 -19c26 0 31 17 31 51v28h111v-28zM590 321c0 -111 -54 -154 -133 -154
c-38 0 -73 8 -115 31l-56 31c-25 14 -39 23 -57 23c-26 0 -32 -17 -32 -50v-29h-111v29c0 110 57 153 136 153c36 0 64 -11 105 -33l60 -33c23 -14 39 -19 61 -19c26 0 31 18 31 51v28h111v-28z" />
    <glyph glyph-name="notequal" unicode="&#x2260;" horiz-adv-x="677" 
d="M587 183h-233l-67 -188h-161l67 188h-102v131h143l47 140h-190v132h231l58 162h161l-58 -162h104v-132h-146l-46 -140h192v-131z" />
    <glyph glyph-name="lessequal" unicode="&#x2264;" horiz-adv-x="677" 
d="M599 0h-519v107h519v-107zM557 169h-190l-280 241l280 241h190l-277 -241z" />
    <glyph glyph-name="greaterequal" unicode="&#x2265;" horiz-adv-x="677" 
d="M595 0h-519v107h519v-107zM588 410l-279 -241h-191l277 241l-277 241h191z" />
    <glyph glyph-name="lozenge" unicode="&#x25ca;" horiz-adv-x="696" 
d="M621 364l-275 -322l-271 321l273 326zM482 364l-134 157l-134 -158l132 -154z" />
    <glyph glyph-name="uni00A0" unicode="&#xa0;" horiz-adv-x="202" 
 />
    <glyph glyph-name="uni00AD" unicode="&#xad;" horiz-adv-x="376" 
d="M318 234h-261v121h261v-121z" />
    <glyph glyph-name="uni02C9" unicode="&#x2c9;" horiz-adv-x="503" 
d="M456 653h-409v99h409v-99z" />
    <glyph glyph-name="Dotaccent" horiz-adv-x="426" 
d="M303 811h-180v127h180v-127z" />
    <glyph glyph-name="Breve" horiz-adv-x="513" 
d="M464 949c-13 -114 -107 -159 -208 -159c-100 0 -194 45 -207 159h101c8 -60 51 -77 106 -77c57 0 99 17 108 77h100z" />
    <glyph glyph-name="Ogonek" horiz-adv-x="458" 
d="M380 -200c-23 -7 -75 -17 -135 -17c-97 0 -151 33 -151 99c0 52 45 91 154 133h134c-128 -60 -139 -82 -139 -103c0 -24 14 -36 53 -36c29 0 58 3 84 5v-81z" />
    <glyph glyph-name="Cedilla" horiz-adv-x="454" 
d="M347 -63l-131 -140h-159l105 140h185z" />
    <glyph glyph-name="Ring" horiz-adv-x="445" 
d="M365 893c0 -79 -60 -121 -141 -121c-82 0 -144 42 -144 121c0 80 62 123 144 123c81 0 141 -43 141 -123zM279 894c0 34 -24 48 -55 48c-33 0 -56 -14 -56 -48c0 -33 23 -48 56 -48c31 0 55 15 55 48z" />
    <glyph glyph-name="Tilde" horiz-adv-x="516" 
d="M487 926c0 -100 -50 -139 -119 -139c-31 0 -63 9 -105 31l-47 26c-22 13 -37 20 -54 20c-24 0 -31 -16 -31 -47v-25h-98v25c0 100 52 139 122 139c34 0 58 -8 99 -29l48 -26c21 -12 37 -22 57 -22c24 0 30 15 30 47v24h98v-24z" />
    <glyph glyph-name="Circumflex" horiz-adv-x="545" 
d="M511 792h-152l-87 82l-86 -82h-153l135 146h208z" />
    <glyph glyph-name="Acute" horiz-adv-x="485" 
d="M433 938l-167 -146h-163l132 146h198z" />
    <glyph glyph-name="Caron" horiz-adv-x="545" 
d="M33 938h153l86 -83l87 83h152l-135 -146h-208z" />
    <glyph glyph-name="Dieresis" horiz-adv-x="508" 
d="M451 806h-139v127h139v-127zM197 933v-127h-140v127h140z" />
    <glyph glyph-name="Grave" horiz-adv-x="485" 
d="M374 792h-162l-167 146h198z" />
    <glyph glyph-name="Hungarumlaut" horiz-adv-x="621" 
d="M679 935l-166 -146h-150l131 146h185zM213 935h184l-166 -146h-151z" />
    <glyph glyph-name="Macron" horiz-adv-x="503" 
d="M456 813h-409v100h409v-100z" />
    <glyph glyph-name="commaaccent.cap" horiz-adv-x="491" 
d="M355 -63l-95 -140h-152l67 140h180z" />
    <glyph glyph-name="h.superior" horiz-adv-x="460" 
d="M53 784h121v-140c29 14 70 24 108 24c104 0 125 -57 125 -140v-216h-122v216c0 41 -11 53 -43 53c-27 0 -53 -9 -68 -15v-254h-121v472z" />
    <glyph glyph-name="zero.slash" horiz-adv-x="706" 
d="M657 326c0 -221 -96 -343 -304 -343c-72 0 -130 15 -176 43l-19 -26h-158l90 121c-28 54 -41 122 -41 205v90c0 221 96 343 304 343c72 0 130 -15 176 -43l20 27h157l-90 -123c27 -53 41 -122 41 -204v-90zM469 326v95l-196 -265c20 -25 47 -33 80 -33
c72 0 116 41 116 203zM237 320l195 265c-19 25 -46 34 -79 34c-71 0 -116 -41 -116 -203v-96z" />
    <glyph glyph-name="percent.oldstyle" unicode="&#xfe6a;" horiz-adv-x="968" 
d="M917 170c0 -114 -49 -181 -163 -181c-116 0 -164 67 -164 181v8c0 115 48 181 164 181c114 0 163 -66 163 -181v-8zM800 170v9c0 76 -16 94 -46 94c-31 0 -47 -18 -47 -94v-9c0 -76 16 -94 47 -94c30 0 46 18 46 94zM755 604l-409 -604h-130l409 604h130zM378 426
c0 -114 -49 -181 -164 -181s-164 67 -164 181v7c0 115 49 182 164 182s164 -67 164 -182v-7zM261 426v8c0 76 -16 94 -47 94c-30 0 -46 -18 -46 -94v-8c0 -76 16 -94 46 -94c31 0 47 18 47 94z" />
    <glyph glyph-name="perthousand.oldstyle" horiz-adv-x="1345" 
d="M1295 170c0 -114 -50 -181 -164 -181c-115 0 -164 67 -164 181v8c0 115 49 181 164 181c114 0 164 -66 164 -181v-8zM1178 170v9c0 76 -17 94 -47 94c-31 0 -47 -18 -47 -94v-9c0 -76 16 -94 47 -94c30 0 47 18 47 94zM917 170c0 -114 -49 -181 -163 -181
c-116 0 -164 67 -164 181v8c0 115 48 181 164 181c114 0 163 -66 163 -181v-8zM800 170v9c0 76 -16 94 -46 94c-31 0 -47 -18 -47 -94v-9c0 -76 16 -94 47 -94c30 0 46 18 46 94zM755 604l-409 -604h-130l409 604h130zM378 426c0 -114 -49 -181 -164 -181s-164 67 -164 181
v7c0 115 49 182 164 182s164 -67 164 -182v-7zM261 426v8c0 76 -16 94 -47 94c-30 0 -46 -18 -46 -94v-8c0 -76 16 -94 46 -94c31 0 47 18 47 94z" />
    <glyph glyph-name="zero.taboldstyle" horiz-adv-x="718" 
d="M663 282c0 -195 -101 -299 -304 -299s-304 104 -304 299v35c0 195 101 298 304 298s304 -103 304 -298v-35zM475 282v35c0 120 -44 158 -116 158s-116 -38 -116 -158v-35c0 -120 44 -159 116 -159s116 39 116 159z" />
    <glyph glyph-name="one.taboldstyle" horiz-adv-x="718" 
d="M617 0h-515v131l166 7v302l-167 -49v142l218 72h136v-467l162 -7v-131z" />
    <glyph glyph-name="two.taboldstyle" horiz-adv-x="718" 
d="M92 471v113c58 17 166 31 251 31c218 0 292 -61 292 -178c0 -107 -56 -164 -219 -253l-84 -46h293v-138h-542v138l177 101c156 89 184 128 185 180c0 47 -34 64 -134 64c-62 0 -160 -7 -219 -12z" />
    <glyph glyph-name="three.taboldstyle" horiz-adv-x="718" 
d="M631 61c0 -162 -97 -223 -297 -223c-97 0 -204 20 -246 34v114c50 -6 144 -14 228 -14c88 0 129 15 129 97v17c0 54 -15 87 -110 87h-202v123h203c94 0 109 36 109 90v10c0 69 -29 86 -130 86c-85 0 -164 -6 -226 -12v113c36 12 148 32 245 32c189 0 297 -50 297 -206
v-11c0 -65 -24 -129 -88 -162c65 -32 88 -95 88 -158v-17z" />
    <glyph glyph-name="four.taboldstyle" horiz-adv-x="718" 
d="M672 27h-99v-169h-187v169h-341v129l369 445h159v-446h99v-128zM395 155v249l-201 -249h201z" />
    <glyph glyph-name="five.taboldstyle" horiz-adv-x="718" 
d="M633 78c0 -174 -115 -237 -300 -237c-111 0 -208 19 -246 30v116c65 -8 127 -14 208 -14c111 0 149 24 149 104v20c0 72 -29 95 -146 95h-204l35 410h480v-134h-330l-13 -149h70c226 0 297 -67 297 -221v-20z" />
    <glyph glyph-name="six.taboldstyle" horiz-adv-x="718" 
d="M654 230c0 -190 -139 -247 -291 -247c-205 0 -299 88 -299 308v166c0 189 56 302 305 302c104 0 208 -18 248 -28v-117c-71 6 -141 12 -226 12c-130 0 -143 -47 -143 -143v-25c36 9 95 15 132 15c156 0 274 -36 274 -212v-31zM470 229v29c0 84 -36 101 -109 101
c-28 0 -74 -3 -113 -12v-86c0 -120 41 -151 115 -151c62 0 107 36 107 119z" />
    <glyph glyph-name="seven.taboldstyle" horiz-adv-x="718" 
d="M642 454l-328 -595h-198l342 609h-372v134h556v-148z" />
    <glyph glyph-name="eight.taboldstyle" horiz-adv-x="718" 
d="M664 213c0 -207 -139 -230 -303 -230h-5c-164 0 -303 23 -303 230v7c0 78 27 127 82 163c-50 32 -80 79 -80 158v9c0 175 132 209 301 209h5c168 0 301 -34 301 -209v-9c0 -79 -30 -126 -80 -158c55 -36 82 -85 82 -163v-7zM481 215v7c-1 74 -19 104 -81 104h-84
c-61 0 -80 -30 -80 -104v-7c0 -93 46 -110 120 -110h5c73 0 120 17 120 110zM479 535v9c0 74 -46 92 -118 92h-5c-72 0 -118 -18 -118 -92v-9c0 -58 16 -93 78 -93h84c62 0 79 35 79 93z" />
    <glyph glyph-name="nine.taboldstyle" horiz-adv-x="718" 
d="M654 144c0 -188 -57 -306 -306 -306c-104 0 -208 19 -248 28v117c58 -5 142 -12 230 -12c126 0 139 49 139 143v26c-36 -9 -95 -15 -132 -15c-156 0 -273 36 -273 212v31c0 188 139 247 291 247c204 0 299 -86 299 -303v-168zM469 250v87c0 119 -40 151 -116 151
c-62 0 -106 -36 -106 -120v-29c0 -84 36 -101 109 -101c28 0 74 3 113 12z" />
    <glyph glyph-name="colonmonetary.taboldstyle" horiz-adv-x="621" 
d="M540 598v-125c-58 4 -101 7 -149 7c-89 0 -128 -30 -128 -145v-68c0 -116 39 -145 128 -145c52 0 107 2 149 5v-123c-16 -5 -44 -9 -72 -12v-98h-86v91h-14c-21 0 -41 1 -59 3v-94h-85v117c-99 37 -143 121 -143 256v68c0 134 45 218 143 256v110h85v-88c17 2 39 4 59 4
h14v84h86v-91c28 -3 53 -8 72 -12z" />
    <glyph glyph-name="Euro.taboldstyle" horiz-adv-x="649" 
d="M434 486c-81 0 -118 -16 -127 -93h238l-15 -66h-228v-59h214l-15 -66h-194c7 -69 44 -89 122 -89c48 0 101 3 149 6v-118c-36 -9 -122 -18 -172 -18c-173 0 -266 55 -282 219h-52v66h49v59h-49v66h51c15 170 108 224 283 224c55 0 128 -8 172 -17v-121
c-46 4 -97 7 -144 7z" />
    <glyph glyph-name="florin.taboldstyle" horiz-adv-x="624" 
d="M548 603l-10 -94c-23 1 -41 2 -63 2c-31 0 -45 -6 -52 -46l-13 -93h115l-14 -110h-116l-29 -229c-14 -116 -78 -149 -169 -149c-53 0 -89 6 -122 13l13 95c26 -1 39 -2 64 -2c35 0 44 14 50 49l28 223h-102l14 110h103l14 98c15 117 83 146 171 146c52 0 86 -6 118 -13z
" />
    <glyph glyph-name="numbersign.taboldstyle" horiz-adv-x="699" 
d="M623 138h-106l-16 -138h-135l16 138h-106l-16 -138h-135l16 138h-66v98h77l14 119h-91v99h103l18 148h135l-18 -148h105l18 148h135l-18 -148h70v-99h-81l-14 -119h95v-98zM407 355h-106l-14 -119h106z" />
    <glyph glyph-name="sterling.taboldstyle" horiz-adv-x="628" 
d="M550 599v-118c-58 6 -105 8 -145 8c-80 0 -96 -16 -96 -85v-40h162v-112h-162v-66c0 -27 -5 -44 -16 -61h257v-125h-450v101c28 25 40 51 40 85v66h-62v112h62v40c0 153 68 212 226 212c65 0 124 -6 184 -17z" />
    <glyph glyph-name="yen.taboldstyle" horiz-adv-x="711" 
d="M441 0h-171v146h-209v90h197l-41 77h-156v90h109l-106 199h185l71 -152c12 -26 23 -54 35 -83h1c11 29 23 57 35 83l71 152h187l-108 -199h111v-90h-158l-42 -77h200v-90h-211v-146z" />
    <glyph glyph-name="dollar.taboldstyle" horiz-adv-x="642" 
d="M96 5v115c55 -3 115 -8 200 -8c61 0 90 15 90 52c0 29 -14 42 -81 68l-71 27c-98 38 -155 78 -155 183c0 101 61 154 175 169v90h139v-87c62 -4 119 -13 150 -20v-110c-63 3 -118 8 -200 8c-56 0 -89 -7 -89 -43c0 -26 12 -41 73 -64l74 -29c114 -42 162 -83 162 -189
c0 -99 -61 -159 -170 -176v-97h-139v93c-63 3 -124 10 -158 18z" />
    <glyph glyph-name="cent.taboldstyle" horiz-adv-x="621" 
d="M540 598v-122c-60 3 -99 5 -149 5c-90 0 -129 -31 -129 -146v-69c0 -115 39 -145 129 -145c53 0 105 2 149 5v-122c-26 -8 -79 -14 -125 -17v-100h-140v106c-134 28 -194 116 -194 273v69c0 155 60 245 194 272v102h141v-95c43 -3 98 -9 124 -16z" />
    <glyph glyph-name="zero.denominator" horiz-adv-x="491" 
d="M444 206c0 -139 -62 -216 -197 -216s-197 77 -197 216v35c0 139 62 216 197 216s197 -77 197 -216v-35zM314 205v36c0 100 -27 120 -67 120c-41 0 -67 -20 -67 -120v-36c0 -99 26 -120 67 -120c40 0 67 21 67 120z" />
    <glyph glyph-name="one.denominator" horiz-adv-x="407" 
d="M353 0h-291v85l80 4v246l-81 -26v96l118 44h93v-360l81 -4v-85z" />
    <glyph glyph-name="two.denominator" horiz-adv-x="454" 
d="M57 364v75c36 10 110 18 165 18c127 0 183 -36 183 -119c0 -63 -34 -99 -131 -143c-86 -39 -98 -53 -98 -100v-4h220v-91h-346v55c0 112 39 154 140 204c78 38 85 47 85 75c0 27 -18 37 -75 37c-50 0 -121 -5 -143 -7z" />
    <glyph glyph-name="three.denominator" horiz-adv-x="450" 
d="M212 -10c-63 0 -137 11 -160 20v74c22 -2 97 -6 145 -6c53 0 76 8 76 53v9c0 30 -9 47 -67 47h-126v81h127c57 0 66 20 66 49v6c0 36 -17 47 -76 47c-52 0 -106 -5 -145 -7v74c25 9 97 20 160 20c119 0 189 -30 189 -124v-6c0 -38 -15 -78 -55 -98c41 -19 55 -58 55 -95
v-9c0 -97 -60 -135 -189 -135z" />
    <glyph glyph-name="four.denominator" horiz-adv-x="474" 
d="M374 0h-128v98h-213v82l236 267h105v-265h60v-84h-60v-98zM253 182v136l-119 -136h119z" />
    <glyph glyph-name="five.denominator" horiz-adv-x="451" 
d="M388 359h-208l-8 -81h43c142 0 187 -38 187 -134v-8c0 -107 -74 -146 -190 -146c-72 0 -134 11 -160 18v77c54 -6 84 -9 132 -9c66 0 88 14 88 58v10c0 40 -17 51 -86 51h-131l23 252h310v-88z" />
    <glyph glyph-name="six.denominator" horiz-adv-x="477" 
d="M402 439v-77c-39 3 -97 6 -145 6c-76 0 -84 -24 -84 -78v-13c21 6 56 9 78 9c100 0 175 -21 175 -131v-15c0 -113 -85 -150 -188 -150c-138 0 -192 60 -192 190v87c0 117 36 190 195 190c67 0 135 -12 161 -18zM299 140v14c0 48 -21 58 -62 58c-16 0 -42 -2 -64 -7v-46
c0 -70 24 -87 66 -87c35 0 60 19 60 68z" />
    <glyph glyph-name="seven.denominator" horiz-adv-x="448" 
d="M55 359v88h350v-96l-205 -351h-135l213 359h-223z" />
    <glyph glyph-name="eight.denominator" horiz-adv-x="492" 
d="M439 127c0 -123 -88 -137 -198 -137c-107 0 -195 14 -195 137v6c0 45 17 75 51 97c-31 20 -50 49 -50 95v6c0 105 85 126 197 126c109 0 194 -21 194 -126v-6c0 -46 -18 -75 -49 -95c34 -22 50 -52 50 -97v-6zM314 130v4c0 42 -10 59 -46 59h-50c-36 0 -46 -17 -46 -59
v-4c0 -51 26 -61 72 -61c43 0 70 10 70 61zM312 321v5c0 40 -26 51 -71 51c-42 0 -68 -11 -68 -51v-5c0 -33 9 -53 45 -53h50c36 0 44 20 44 53z" />
    <glyph glyph-name="nine.denominator" horiz-adv-x="477" 
d="M70 7v77c37 -3 96 -7 148 -7c73 0 82 26 82 79v13c-21 -5 -57 -8 -78 -8c-101 0 -176 21 -176 130v16c0 111 85 150 189 150c138 0 191 -61 191 -191v-88c0 -115 -35 -188 -194 -188c-67 0 -135 10 -162 17zM300 241v47c0 70 -23 86 -67 86c-35 0 -60 -19 -60 -67v-15
c0 -47 21 -57 61 -57c17 0 44 2 66 6z" />
    <glyph glyph-name="comma.denominator" horiz-adv-x="257" 
d="M208 105l-72 -163h-94l52 163h114z" />
    <glyph glyph-name="period.denominator" horiz-adv-x="218" 
d="M168 5h-118v100h118v-100z" />
    <glyph glyph-name="cent.denominator" horiz-adv-x="405" 
d="M362 7c-17 -5 -50 -10 -83 -12v-79h-109v86c-80 20 -129 82 -129 206v39c0 116 43 186 129 206v81h109v-75c34 -1 67 -7 83 -11v-95c-30 2 -68 4 -99 4c-67 0 -88 -26 -88 -110v-39c0 -82 18 -110 88 -110c31 0 76 2 99 5v-96z" />
    <glyph glyph-name="dollar.denominator" horiz-adv-x="438" 
d="M52 8v84c31 -3 86 -6 147 -6c52 0 68 15 68 41c0 22 -13 31 -54 47l-61 24c-66 26 -112 60 -112 135c0 71 42 110 123 123v81h112v-78c45 -3 88 -10 107 -14v-84c-58 5 -118 8 -148 8c-42 0 -69 -8 -69 -35c0 -20 11 -30 52 -44l59 -21c79 -28 118 -61 118 -135
c0 -75 -44 -122 -119 -135v-83h-112v79c-44 2 -85 8 -111 13z" />
    <glyph glyph-name="hyphen.denominator" horiz-adv-x="247" 
d="M199 162h-152v88h152v-88z" />
    <glyph glyph-name="parenleft.denominator" horiz-adv-x="287" 
d="M246 -74h-112c-39 53 -81 146 -81 262v5c0 116 42 210 81 264h112c-41 -64 -75 -154 -75 -264v-5c0 -110 34 -199 75 -262z" />
    <glyph glyph-name="parenright.denominator" horiz-adv-x="287" 
d="M234 188c0 -116 -43 -209 -82 -262h-111c41 63 75 152 75 262v5c0 110 -34 200 -75 264h111c39 -54 82 -148 82 -264v-5z" />
    <glyph glyph-name="zero.numerator" horiz-adv-x="491" 
d="M444 508c0 -139 -62 -216 -197 -216s-197 77 -197 216v35c0 139 62 216 197 216s197 -77 197 -216v-35zM314 507v36c0 100 -27 120 -67 120c-41 0 -67 -20 -67 -120v-36c0 -99 26 -120 67 -120c40 0 67 21 67 120z" />
    <glyph glyph-name="one.numerator" horiz-adv-x="407" 
d="M353 302h-291v85l80 4v246l-81 -26v96l118 44h93v-360l81 -4v-85z" />
    <glyph glyph-name="two.numerator" horiz-adv-x="454" 
d="M57 666v75c36 10 110 18 165 18c127 0 183 -36 183 -119c0 -63 -34 -99 -131 -143c-86 -39 -98 -53 -98 -100v-4h220v-91h-346v55c0 112 39 154 140 204c78 38 85 47 85 75c0 27 -18 37 -75 37c-50 0 -121 -5 -143 -7z" />
    <glyph glyph-name="three.numerator" horiz-adv-x="450" 
d="M212 292c-63 0 -137 11 -160 20v74c22 -2 97 -6 145 -6c53 0 76 8 76 53c0 39 -9 56 -67 56h-126v81h127c57 0 66 20 66 55c0 36 -17 47 -76 47c-52 0 -106 -5 -145 -7v74c25 9 97 20 160 20c119 0 189 -30 189 -130c0 -38 -15 -78 -55 -98c41 -19 55 -58 55 -95
c0 -106 -60 -144 -189 -144z" />
    <glyph glyph-name="four.numerator" horiz-adv-x="474" 
d="M374 302h-128v98h-213v82l236 267h105v-265h60v-84h-60v-98zM253 484v136l-119 -136h119z" />
    <glyph glyph-name="five.numerator" horiz-adv-x="451" 
d="M388 661h-208l-8 -81h43c142 0 187 -38 187 -134c0 -115 -74 -154 -190 -154c-72 0 -134 11 -160 18v77c54 -6 84 -9 132 -9c66 0 88 14 88 68c0 40 -17 51 -86 51h-131l23 252h310v-88z" />
    <glyph glyph-name="six.numerator" horiz-adv-x="477" 
d="M402 741v-77c-39 3 -97 6 -145 6c-76 0 -84 -24 -84 -78v-13c21 6 56 9 78 9c100 0 175 -21 175 -131v-15c0 -113 -85 -150 -188 -150c-138 0 -192 60 -192 190v87c0 117 36 190 195 190c67 0 135 -12 161 -18zM299 442v14c0 48 -21 58 -62 58c-16 0 -42 -2 -64 -7v-46
c0 -70 24 -87 66 -87c35 0 60 19 60 68z" />
    <glyph glyph-name="seven.numerator" horiz-adv-x="448" 
d="M55 661v88h350v-96l-205 -351h-135l213 359h-223z" />
    <glyph glyph-name="eight.numerator" horiz-adv-x="492" 
d="M439 435c0 -128 -88 -143 -198 -143c-107 0 -195 15 -195 143c0 45 17 76 50 97c-31 21 -49 50 -49 102c0 104 85 125 197 125c109 0 193 -21 193 -131c0 -46 -18 -75 -49 -96c34 -21 51 -52 51 -97zM314 437c0 41 -11 59 -47 59h-50c-35 0 -46 -18 -46 -59
c0 -55 27 -65 73 -65c43 0 70 10 70 65zM217 571h50c36 0 45 20 45 52c0 46 -26 56 -71 56c-42 0 -69 -10 -69 -56c0 -32 9 -52 45 -52z" />
    <glyph glyph-name="nine.numerator" horiz-adv-x="477" 
d="M70 309v77c37 -3 96 -7 148 -7c73 0 82 26 82 79v13c-21 -5 -57 -8 -78 -8c-101 0 -176 21 -176 130v16c0 111 85 150 189 150c138 0 191 -61 191 -191v-88c0 -115 -35 -188 -194 -188c-67 0 -135 10 -162 17zM300 543v47c0 70 -23 86 -67 86c-35 0 -60 -19 -60 -67v-15
c0 -47 21 -57 61 -57c17 0 44 2 66 6z" />
    <glyph glyph-name="comma.numerator" horiz-adv-x="257" 
d="M208 407l-72 -163h-94l52 163h114z" />
    <glyph glyph-name="period.numerator" horiz-adv-x="218" 
d="M168 307h-118v100h118v-100z" />
    <glyph glyph-name="cent.numerator" horiz-adv-x="405" 
d="M362 309c-17 -5 -50 -10 -83 -12v-79h-109v86c-80 20 -129 82 -129 206v39c0 116 43 186 129 206v81h109v-75c34 -1 67 -7 83 -11v-95c-30 2 -68 4 -99 4c-67 0 -88 -26 -88 -110v-39c0 -82 18 -110 88 -110c31 0 76 2 99 5v-96z" />
    <glyph glyph-name="dollar.numerator" horiz-adv-x="438" 
d="M52 310v84c31 -3 86 -6 147 -6c52 0 68 15 68 41c0 22 -13 31 -54 47l-61 24c-66 26 -112 60 -112 135c0 71 42 110 123 123v81h112v-78c45 -3 88 -10 107 -14v-84c-58 5 -118 8 -148 8c-42 0 -69 -8 -69 -35c0 -20 11 -30 52 -44l59 -21c79 -28 118 -61 118 -135
c0 -75 -44 -122 -119 -135v-83h-112v79c-44 2 -85 8 -111 13z" />
    <glyph glyph-name="hyphen.numerator" horiz-adv-x="247" 
d="M199 464h-152v88h152v-88z" />
    <glyph glyph-name="parenleft.numerator" horiz-adv-x="287" 
d="M246 228h-112c-39 53 -81 146 -81 262v5c0 116 42 210 81 264h112c-41 -64 -75 -154 -75 -264v-5c0 -110 34 -199 75 -262z" />
    <glyph glyph-name="parenright.numerator" horiz-adv-x="287" 
d="M234 490c0 -116 -43 -209 -82 -262h-111c41 63 75 152 75 262v5c0 110 -34 200 -75 264h111c39 -54 82 -148 82 -264v-5z" />
    <glyph glyph-name="parenleft.cap" horiz-adv-x="338" 
d="M302 0h-136c-52 69 -115 207 -115 369v6c0 162 63 297 115 368h136c-59 -95 -102 -224 -102 -368v-6c0 -145 41 -270 102 -369z" />
    <glyph glyph-name="parenright.cap" horiz-adv-x="338" 
d="M298 369c0 -162 -63 -300 -114 -369h-137c62 99 102 224 102 369v6c0 144 -43 273 -102 368h137c51 -71 114 -206 114 -368v-6z" />
    <glyph glyph-name="bracketleft.cap" horiz-adv-x="365" 
d="M321 0h-254v743h254v-113h-103v-518h103v-112z" />
    <glyph glyph-name="bracketright.cap" horiz-adv-x="365" 
d="M298 0h-254v112h103v518h-103v113h254v-743z" />
    <glyph glyph-name="braceleft.cap" horiz-adv-x="390" 
d="M348 0h-52c-167 0 -209 39 -209 163v81c0 53 -15 68 -48 89v77c33 21 48 35 48 89v80c0 126 42 164 209 164h52v-114h-50c-52 0 -59 -5 -59 -50v-80c0 -70 -18 -100 -60 -128c42 -28 60 -58 60 -127v-81c0 -45 7 -50 59 -50h50v-113z" />
    <glyph glyph-name="braceright.cap" horiz-adv-x="390" 
d="M348 333c-34 -21 -48 -36 -48 -89v-81c0 -124 -42 -163 -210 -163h-51v113h50c52 0 58 5 58 50v81c0 69 19 99 61 127c-43 28 -60 58 -60 128v80c0 45 -7 50 -59 50h-50v114h51c168 0 210 -38 210 -164v-80c0 -54 14 -68 48 -89v-77z" />
    <glyph glyph-name="exclamdown.cap" horiz-adv-x="330" 
d="M79 743h179v-164h-179v164zM250 521l16 -557h-194l17 557h161z" />
    <glyph glyph-name="questiondown.cap" horiz-adv-x="541" 
d="M292 -49c-156 0 -237 50 -237 167v8c0 67 25 116 104 190c93 92 104 121 104 177v26h151v-26c0 -84 -6 -130 -76 -206c-63 -68 -79 -97 -79 -133v-6c0 -47 30 -59 97 -59c46 0 105 4 154 8v-114c-57 -20 -136 -32 -218 -32zM425 579h-174v164h174v-164z" />
    <glyph glyph-name="guillemotleft.cap" horiz-adv-x="773" 
d="M726 158h-180l-154 222l154 221h180l-150 -221zM230 380l150 -222h-180l-154 222l154 221h180z" />
    <glyph glyph-name="guillemotright.cap" horiz-adv-x="773" 
d="M727 380l-154 -222h-179l148 222l-148 221h179zM226 601l155 -221l-155 -222h-179l150 222l-150 221h179z" />
    <glyph glyph-name="guilsinglleft.cap" horiz-adv-x="425" 
d="M378 158h-180l-152 222l152 221h180l-148 -221z" />
    <glyph glyph-name="guilsinglright.cap" horiz-adv-x="425" 
d="M226 158h-180l148 222l-148 221h180l152 -221z" />
    <glyph glyph-name="hyphen.cap" horiz-adv-x="357" 
d="M299 332h-242v108h242v-108z" />
    <glyph glyph-name="endash.cap" horiz-adv-x="454" 
d="M396 332h-339v108h339v-108z" />
    <glyph glyph-name="emdash.cap" horiz-adv-x="624" 
d="M566 332h-509v108h509v-108z" />
    <glyph glyph-name="periodcentered.cap" horiz-adv-x="302" 
d="M229 300h-157v164h157v-164z" />
    <glyph glyph-name="at.cap" horiz-adv-x="884" 
d="M837 461c0 -190 -96 -324 -381 -324c-158 0 -230 45 -230 160c0 22 2 57 5 81c16 151 91 207 223 207c68 0 132 -10 182 -22l-33 -316c96 25 138 102 138 215c0 150 -94 222 -263 222c-183 0 -288 -96 -325 -286c-8 -40 -13 -85 -13 -132c0 -151 78 -220 268 -220
c76 0 164 6 189 9v-60c-27 -5 -113 -16 -188 -16c-249 0 -364 97 -364 287c0 52 6 104 15 147c46 228 188 344 425 344c216 0 352 -101 352 -296zM495 485c-13 2 -33 3 -47 3c-50 0 -81 -17 -90 -119c-3 -36 -4 -57 -4 -73c0 -52 23 -68 82 -68c13 0 21 0 34 1z" />
    <glyph glyph-name="T_h" horiz-adv-x="1213" 
d="M1146 0h-174v359c0 74 -19 94 -74 94c-44 0 -89 -14 -115 -26v-427h-175v606h-179v-606h-187v606h-216v137h757v-197c44 22 107 39 170 39c158 0 193 -92 193 -224v-361z" />
    <glyph glyph-name="A.alt" horiz-adv-x="748" 
d="M21 0l175 611l-52 6v126h374l209 -743h-196l-53 187h-211l-54 -187h-192zM453 321l-54 197c-9 36 -17 76 -23 114h-7c-6 -38 -13 -78 -23 -114l-53 -197h160z" />
    <glyph glyph-name="B.alt" horiz-adv-x="711" 
d="M73 0v610l-47 6v127c108 7 208 9 288 9c219 0 346 -39 346 -209v-9c0 -63 -26 -122 -87 -153c66 -30 91 -93 91 -152v-11c0 -189 -144 -227 -352 -227c-84 0 -141 3 -239 9zM483 219v11c0 60 -27 93 -126 93h-104v-197c27 -1 46 -1 74 -1c106 0 156 15 156 94zM481 528v8
c0 73 -52 82 -152 82c-28 0 -47 0 -76 -1v-179h103c102 0 125 32 125 90z" />
    <glyph glyph-name="C.alt" horiz-adv-x="616" 
d="M584 135v-132c-37 -9 -140 -20 -201 -20c-212 0 -334 78 -334 346v86c0 268 122 344 334 344c61 0 164 -11 201 -21v-185h-115l-9 59c-19 1 -39 2 -59 2c-110 0 -163 -37 -163 -199v-86c0 -163 53 -201 164 -201c63 0 135 4 182 7z" />
    <glyph glyph-name="D.alt" horiz-adv-x="738" 
d="M73 0v611l-50 8v124c96 7 204 9 306 9c250 0 360 -106 360 -340v-77c0 -238 -105 -344 -360 -344c-97 0 -160 2 -256 9zM505 335v77c0 158 -49 199 -174 199h-76v-480h76c125 0 174 46 174 204z" />
    <glyph glyph-name="E.alt" horiz-adv-x="628" 
d="M579 607h-319v-162h298v-129h-298v-181h319v-135h-506v612l-46 5v126h552v-136z" />
    <glyph glyph-name="F.alt" horiz-adv-x="619" 
d="M73 0v612l-47 5v126h554v-137h-320v-162h298v-129h-298v-315h-187z" />
    <glyph glyph-name="G.alt" horiz-adv-x="705" 
d="M644 7c-52 -10 -156 -24 -267 -24c-177 0 -328 62 -328 345v88c0 298 170 343 332 343c110 0 225 -18 260 -27v-179h-113l-10 58c-28 1 -69 3 -102 3c-116 0 -182 -24 -182 -198v-88c0 -159 48 -200 151 -200c30 0 61 0 85 2v157l-79 8v106h253v-394z" />
    <glyph glyph-name="H.alt" horiz-adv-x="800" 
d="M727 0h-187v313h-279v-313h-188v612l-47 5v126h235v-288h279v288h187v-743z" />
    <glyph glyph-name="I.alt" horiz-adv-x="345" 
d="M313 0h-281v126l47 4v482l-47 5v126h281v-126l-47 -5v-482l47 -4v-126z" />
    <glyph glyph-name="J.alt" horiz-adv-x="345" 
d="M313 617l-47 -5v-635c0 -137 -61 -192 -198 -192c-33 0 -77 4 -99 9v112h53c51 0 57 17 57 64v642l-47 5v126h281v-126z" />
    <glyph glyph-name="K.alt" horiz-adv-x="738" 
d="M731 0h-226l-241 345v-345h-188v612l-46 5v126h234v-344l254 344h216l-277 -367z" />
    <glyph glyph-name="M.alt" horiz-adv-x="896" 
d="M823 0h-180v369c0 44 1 78 4 121h-2c-15 -34 -32 -66 -48 -95l-95 -174h-109l-93 174c-16 29 -33 63 -48 95h-2c2 -43 3 -77 3 -121v-369h-180v612l-47 5v126h230l144 -264c16 -28 32 -60 46 -91h2c15 31 31 64 47 92l145 263h183v-743z" />
    <glyph glyph-name="N.alt" horiz-adv-x="776" 
d="M703 0h-194l-215 386c-18 32 -37 69 -52 102h-2c1 -39 3 -80 3 -120v-368h-170v612l-47 5v126h238l217 -379c18 -32 38 -72 53 -105h2c-2 35 -3 82 -3 127v357h170v-743z" />
    <glyph glyph-name="P.alt" horiz-adv-x="691" 
d="M253 0h-180v612l-47 5v126c89 6 191 9 285 9c193 0 349 -37 349 -242v-10c0 -208 -156 -246 -331 -246c-26 0 -36 0 -76 1v-255zM253 395h71c104 0 155 20 155 105v10c-1 86 -52 102 -155 102c-27 0 -58 -1 -71 -1v-216z" />
    <glyph glyph-name="Q.alt" horiz-adv-x="745" 
d="M696 331c0 -208 -93 -314 -239 -340v-178h-173v180c-145 26 -235 132 -235 338v79c0 254 135 349 323 349c189 0 324 -95 324 -349v-79zM512 331v80c0 155 -52 203 -140 203c-87 0 -139 -48 -139 -203v-80c0 -155 52 -203 139 -203c88 0 140 48 140 203z" />
    <glyph glyph-name="R.alt" horiz-adv-x="718" 
d="M704 0h-188l-147 265h-116v-265h-180v612l-47 5v126c70 4 176 9 287 9c187 0 345 -36 345 -240v-7c0 -110 -44 -169 -118 -205zM477 502v7c0 84 -48 103 -158 103c-28 0 -33 0 -66 -1v-216h68c111 0 156 26 156 107z" />
    <glyph glyph-name="S.alt" horiz-adv-x="646" 
d="M65 7v121c72 -5 145 -11 235 -11c79 0 114 25 114 81c0 42 -17 59 -87 89l-108 46c-106 45 -173 98 -173 221c0 147 102 205 290 205c99 0 197 -15 241 -25v-168h-113l-12 57c-34 2 -74 3 -106 3c-76 0 -116 -15 -116 -66c0 -38 16 -53 84 -81l105 -44
c132 -55 181 -110 181 -227c0 -154 -104 -225 -278 -225c-105 0 -209 12 -257 24z" />
    <glyph glyph-name="U.alt" horiz-adv-x="763" 
d="M695 301c0 -214 -114 -318 -313 -318s-314 104 -314 318v312l-47 4v126h232v-437c0 -132 28 -182 129 -182s130 50 130 182v437h183v-442z" />
    <glyph glyph-name="Z.alt" horiz-adv-x="658" 
d="M607 139v-139h-556v142l331 462h-204l-9 -53h-109v192h538v-144l-330 -460h339z" />
    <glyph glyph-name="a.alt" horiz-adv-x="609" 
d="M547 0h-159v37c-37 -25 -103 -52 -179 -52c-108 0 -167 55 -167 163v23c0 152 116 170 278 170h53v31c0 70 -15 84 -105 84c-21 0 -40 0 -63 -1l-9 -45h-112v140c32 12 124 35 220 35c178 0 243 -58 243 -213v-372zM379 123v128h-58c-79 0 -113 -9 -113 -74v-23
c0 -45 27 -58 65 -58c45 0 89 17 106 27z" />
    <glyph glyph-name="b.alt" horiz-adv-x="653" 
d="M606 256c0 -197 -98 -271 -287 -271c-80 0 -141 4 -251 16v650l-45 5v123h220v-214c33 14 75 21 116 21c169 0 247 -82 247 -260v-70zM433 257v70c0 96 -23 126 -98 126c-21 0 -66 -3 -94 -17v-315c18 -1 47 -3 80 -3c80 0 112 29 112 139z" />
    <glyph glyph-name="c.alt" horiz-adv-x="533" 
d="M492 7c-33 -8 -100 -22 -191 -22c-175 0 -254 92 -254 268v64c0 180 79 268 254 268c91 0 166 -14 191 -22v-157h-108l-9 44c-14 1 -34 2 -45 2c-71 0 -110 -23 -110 -135v-64c0 -112 39 -136 114 -136c33 0 82 3 158 8v-118z" />
    <glyph glyph-name="d.alt" horiz-adv-x="656" 
d="M587 0h-161v29c-39 -24 -93 -44 -161 -44c-136 0 -216 83 -216 262v70c0 200 99 268 259 268c41 0 73 -4 105 -9v94l-50 5v104h224v-779zM415 137v309c-31 5 -64 8 -86 8c-71 0 -106 -21 -106 -137v-70c0 -96 25 -130 98 -130c33 0 65 8 94 20z" />
    <glyph glyph-name="g.alt" horiz-adv-x="629" 
d="M596 -33c0 -133 -103 -184 -286 -184c-181 0 -276 51 -276 179c0 40 18 84 52 114c-30 21 -44 50 -44 80c0 43 23 76 61 100c-30 28 -47 72 -47 133c0 113 45 196 261 196h281v-87l-49 -13c10 -14 27 -47 27 -96c0 -145 -103 -195 -261 -195c-42 0 -83 5 -113 14
c-13 -10 -23 -23 -23 -39c0 -21 15 -27 46 -27h86c188 0 285 -26 285 -175zM429 -37c0 57 -21 72 -118 72h-90c-14 -14 -24 -40 -24 -71c0 -54 21 -77 114 -77c91 0 118 24 118 76zM411 389c0 56 -15 86 -96 86s-93 -32 -93 -86c0 -55 15 -86 93 -86c81 0 96 31 96 86z" />
    <glyph glyph-name="h.alt" 
d="M606 0h-174v359c0 74 -19 95 -75 95c-44 0 -89 -15 -115 -27v-427h-174v651l-45 5v123h219v-234c44 22 107 40 171 40c158 0 193 -92 193 -224v-361z" />
    <glyph glyph-name="i.alt" horiz-adv-x="318" 
d="M246 0h-174v441l-46 6v123h220v-570zM250 648h-181v131h181v-131z" />
    <glyph glyph-name="j.alt" horiz-adv-x="318" 
d="M246 -35c0 -139 -52 -183 -184 -183c-40 0 -82 4 -98 8v110c19 0 37 -1 56 -1c45 0 52 15 52 66v477l-46 5v123h220v-605zM250 648h-181v131h181v-131z" />
    <glyph glyph-name="k.alt" horiz-adv-x="624" 
d="M615 0h-197l-176 264v-264h-174v651l-45 5v123h219v-461l179 252h186l-198 -274z" />
    <glyph glyph-name="l.alt" horiz-adv-x="317" 
d="M246 0h-174v651l-46 5v123h220v-779z" />
    <glyph glyph-name="m.alt" horiz-adv-x="962" 
d="M897 0h-174v371c0 54 -1 84 -60 84c-27 0 -64 -11 -96 -28c3 -18 3 -38 3 -56v-371h-174v371c0 54 -2 84 -56 84c-33 0 -70 -15 -98 -29v-426h-174v442l-45 5v123h209v-45c47 37 109 60 172 60c70 0 110 -23 135 -62c64 44 127 62 180 62c157 0 178 -99 178 -210v-375z
" />
    <glyph glyph-name="n.alt" horiz-adv-x="671" 
d="M606 0h-174v361c0 69 -13 93 -68 93c-32 0 -76 -13 -122 -32v-422h-174v441l-45 6v123h209v-46c58 36 122 61 187 61c172 0 187 -100 187 -224v-361z" />
    <glyph glyph-name="p.alt" horiz-adv-x="654" 
d="M242 -203h-174v645l-45 5v123h206v-36c53 36 113 51 169 51c128 0 209 -70 209 -271v-51c0 -207 -102 -277 -265 -277c-33 0 -76 4 -100 9v-198zM433 263v51c0 109 -27 138 -93 138c-29 0 -57 -5 -100 -24v-303c31 -5 59 -9 86 -9c71 0 107 24 107 147z" />
    <glyph glyph-name="r.alt" horiz-adv-x="435" 
d="M242 0h-174v442l-45 5v123h207v-47c56 51 126 62 188 62v-146c-63 0 -131 -11 -176 -26v-413z" />
    <glyph glyph-name="s.alt" horiz-adv-x="543" 
d="M51 8v106c48 -5 124 -11 195 -11c70 0 93 16 93 51c0 34 -18 40 -90 68l-46 17c-106 41 -161 90 -161 184c0 125 89 162 235 162c84 0 175 -12 211 -23v-137h-113l-10 36c-23 1 -53 2 -72 2c-56 0 -84 -2 -84 -36c0 -30 18 -37 78 -60l51 -19c126 -49 169 -86 169 -188
c0 -115 -85 -174 -252 -174c-80 0 -172 13 -204 22z" />
    <glyph glyph-name="u.alt" 
d="M431 570h174v-570h-164v46c-60 -35 -125 -61 -200 -61c-156 0 -174 109 -174 224v233l-46 5v123h220v-361c0 -69 12 -93 68 -93c33 0 75 13 122 32v422z" />
    <glyph glyph-name="y.alt" 
d="M605 -15c0 -127 -60 -201 -268 -201c-110 0 -217 18 -237 23v104c65 -3 154 -8 222 -8c98 0 109 25 109 82v19c-19 -3 -60 -8 -91 -8c-175 0 -273 78 -273 265l1 309h172v-309c0 -99 30 -134 113 -134c30 0 67 3 79 5v438h173v-585z" />
    <glyph glyph-name="z.alt" horiz-adv-x="548" 
d="M505 123v-123h-465v128l269 317h-153l-8 -39h-99v164h455v-130l-267 -317h268z" />
    <glyph glyph-name="a.alt2" horiz-adv-x="654" 
d="M586 0h-162v29c-41 -26 -92 -43 -161 -43c-136 0 -216 82 -216 261v70c0 204 90 268 293 268c66 0 160 -5 246 -15v-570zM413 137v313c-29 3 -68 4 -84 4c-73 0 -108 -21 -108 -137v-70c0 -96 26 -130 98 -130c34 0 67 9 94 20z" />
    <glyph glyph-name="u.alt2" horiz-adv-x="672" 
d="M605 264c0 -192 -89 -279 -270 -279c-177 0 -268 87 -268 279v306h174v-306c0 -106 23 -147 94 -147s96 41 96 147v306h174v-306z" />
    <glyph glyph-name="Aacute.alt" horiz-adv-x="748" 
d="M586 935l-167 -146h-163l132 146h198zM21 0l175 611l-52 6v126h374l209 -743h-196l-53 187h-211l-54 -187h-192zM453 321l-54 197c-9 36 -17 76 -23 114h-7c-6 -38 -13 -78 -23 -114l-53 -197h160z" />
    <glyph glyph-name="Acircumflex.alt" horiz-adv-x="748" 
d="M612 789h-152l-87 82l-86 -82h-153l135 146h209zM21 0l175 611l-52 6v126h374l209 -743h-196l-53 187h-211l-54 -187h-192zM453 321l-54 197c-9 36 -17 76 -23 114h-7c-6 -38 -13 -78 -23 -114l-53 -197h160z" />
    <glyph glyph-name="Adieresis.alt" horiz-adv-x="748" 
d="M570 800h-140v127h140v-127zM316 927v-127h-140v127h140zM21 0l175 611l-52 6v126h374l209 -743h-196l-53 187h-211l-54 -187h-192zM453 321l-54 197c-9 36 -17 76 -23 114h-7c-6 -38 -13 -78 -23 -114l-53 -197h160z" />
    <glyph glyph-name="Agrave.alt" horiz-adv-x="748" 
d="M476 789h-162l-167 146h198zM21 0l175 611l-52 6v126h374l209 -743h-196l-53 187h-211l-54 -187h-192zM453 321l-54 197c-9 36 -17 76 -23 114h-7c-6 -38 -13 -78 -23 -114l-53 -197h160z" />
    <glyph glyph-name="Aring.alt" horiz-adv-x="748" 
d="M516 901c0 -80 -60 -122 -142 -122s-143 42 -143 122c0 79 61 122 143 122s142 -43 142 -122zM429 901c0 34 -23 48 -55 48s-55 -14 -55 -48c0 -33 23 -48 55 -48s55 15 55 48zM21 0l175 611l-52 6v126h374l209 -743h-196l-53 187h-211l-54 -187h-192zM453 321l-54 197
c-9 36 -17 76 -23 114h-7c-6 -38 -13 -78 -23 -114l-53 -197h160z" />
    <glyph glyph-name="Atilde.alt" horiz-adv-x="748" 
d="M600 923c0 -101 -50 -139 -118 -139c-31 0 -64 9 -105 31l-47 26c-22 13 -37 20 -54 20c-25 0 -31 -16 -31 -47v-25h-99v25c0 100 52 138 123 138c33 0 58 -7 98 -29l48 -26c22 -12 38 -21 57 -21c25 0 31 15 31 47v24h97v-24zM21 0l175 611l-52 6v126h374l209 -743h-196
l-53 187h-211l-54 -187h-192zM453 321l-54 197c-9 36 -17 76 -23 114h-7c-6 -38 -13 -78 -23 -114l-53 -197h160z" />
    <glyph glyph-name="Ccedilla.alt" horiz-adv-x="616" 
d="M455 -63l-131 -140h-160l106 140h185zM584 135v-132c-37 -9 -140 -20 -201 -20c-212 0 -334 78 -334 346v86c0 268 122 344 334 344c61 0 164 -11 201 -21v-185h-115l-9 59c-19 1 -39 2 -59 2c-110 0 -163 -37 -163 -199v-86c0 -163 53 -201 164 -201c63 0 135 4 182 7z
" />
    <glyph glyph-name="Eacute.alt" horiz-adv-x="628" 
d="M553 935l-166 -146h-163l132 146h197zM579 607h-319v-162h298v-129h-298v-181h319v-135h-506v612l-46 5v126h552v-136z" />
    <glyph glyph-name="Ecircumflex.alt" horiz-adv-x="628" 
d="M562 789h-153l-86 82l-87 -82h-152l135 146h208zM579 607h-319v-162h298v-129h-298v-181h319v-135h-506v612l-46 5v126h552v-136z" />
    <glyph glyph-name="Edieresis.alt" horiz-adv-x="628" 
d="M513 799h-140v127h140v-127zM259 926v-127h-140v127h140zM579 607h-319v-162h298v-129h-298v-181h319v-135h-506v612l-46 5v126h552v-136z" />
    <glyph glyph-name="Egrave.alt" horiz-adv-x="628" 
d="M423 789h-162l-167 146h198zM579 607h-319v-162h298v-129h-298v-181h319v-135h-506v612l-46 5v126h552v-136z" />
    <glyph glyph-name="Eth.alt" horiz-adv-x="738" 
d="M689 335c0 -238 -105 -344 -360 -344c-88 0 -170 2 -256 9v318h-50v126h50v167l-50 8v124c97 7 207 9 306 9c250 0 360 -106 360 -340v-77zM255 318v-187h76c125 0 174 46 174 204v77c0 158 -49 199 -174 199h-76v-167h110v-126h-110z" />
    <glyph glyph-name="Iacute.alt" horiz-adv-x="345" 
d="M392 935l-166 -146h-163l132 146h197zM313 0h-281v126l47 4v482l-47 5v126h281v-126l-47 -5v-482l47 -4v-126z" />
    <glyph glyph-name="Icircumflex.alt" horiz-adv-x="345" 
d="M414 789h-153l-86 82l-87 -82h-152l135 146h208zM313 0h-281v126l47 4v482l-47 5v126h281v-126l-47 -5v-482l47 -4v-126z" />
    <glyph glyph-name="Idieresis.alt" horiz-adv-x="345" 
d="M369 800h-140v127h140v-127zM115 927v-127h-141v127h141zM313 0h-281v126l47 4v482l-47 5v126h281v-126l-47 -5v-482l47 -4v-126z" />
    <glyph glyph-name="Igrave.alt" horiz-adv-x="345" 
d="M288 789h-162l-167 146h198zM313 0h-281v126l47 4v482l-47 5v126h281v-126l-47 -5v-482l47 -4v-126z" />
    <glyph glyph-name="Ntilde.alt" horiz-adv-x="776" 
d="M613 923c0 -101 -50 -139 -119 -139c-31 0 -63 9 -105 31l-47 26c-22 13 -37 20 -54 20c-24 0 -31 -16 -31 -47v-25h-99v25c0 100 53 138 123 138c34 0 58 -7 99 -29l47 -26c22 -12 38 -21 57 -21c25 0 31 15 31 47v24h98v-24zM703 0h-194l-215 386
c-18 32 -37 69 -52 102h-2c1 -39 3 -80 3 -120v-368h-170v612l-47 5v126h238l217 -379c18 -32 38 -72 53 -105h2c-2 35 -3 82 -3 127v357h170v-743z" />
    <glyph glyph-name="Scaron.alt" horiz-adv-x="646" 
d="M88 935h153l86 -82l87 82h152l-134 -146h-209zM65 7v121c72 -5 145 -11 235 -11c79 0 114 25 114 81c0 42 -17 59 -87 89l-108 46c-106 45 -173 98 -173 221c0 147 102 205 290 205c99 0 197 -15 241 -25v-168h-113l-12 57c-34 2 -74 3 -106 3c-76 0 -116 -15 -116 -66
c0 -38 16 -53 84 -81l105 -44c132 -55 181 -110 181 -227c0 -154 -104 -225 -278 -225c-105 0 -209 12 -257 24z" />
    <glyph glyph-name="Uacute.alt" horiz-adv-x="763" 
d="M612 935l-167 -146h-163l132 146h198zM695 301c0 -214 -114 -318 -313 -318s-314 104 -314 318v312l-47 4v126h232v-437c0 -132 28 -182 129 -182s130 50 130 182v437h183v-442z" />
    <glyph glyph-name="Ucircumflex.alt" horiz-adv-x="763" 
d="M620 789h-152l-87 82l-86 -82h-153l135 146h209zM695 301c0 -214 -114 -318 -313 -318s-314 104 -314 318v312l-47 4v126h232v-437c0 -132 28 -182 129 -182s130 50 130 182v437h183v-442z" />
    <glyph glyph-name="Udieresis.alt" horiz-adv-x="763" 
d="M579 800h-140v127h140v-127zM325 927v-127h-141v127h141zM695 301c0 -214 -114 -318 -313 -318s-314 104 -314 318v312l-47 4v126h232v-437c0 -132 28 -182 129 -182s130 50 130 182v437h183v-442z" />
    <glyph glyph-name="Ugrave.alt" horiz-adv-x="763" 
d="M476 789h-163l-166 146h197zM695 301c0 -214 -114 -318 -313 -318s-314 104 -314 318v312l-47 4v126h232v-437c0 -132 28 -182 129 -182s130 50 130 182v437h183v-442z" />
    <glyph glyph-name="Zcaron.alt" horiz-adv-x="658" 
d="M97 935h152l87 -82l86 82h153l-135 -146h-208zM607 139v-139h-556v142l331 462h-204l-9 -53h-109v192h538v-144l-330 -460h339z" />
    <glyph glyph-name="aacute.alt" horiz-adv-x="609" 
d="M539 777l-167 -146h-162l131 146h198zM547 0h-159v37c-37 -25 -103 -52 -179 -52c-108 0 -167 55 -167 163v23c0 152 116 170 278 170h53v31c0 70 -15 84 -105 84c-21 0 -40 0 -63 -1l-9 -45h-112v140c32 12 124 35 220 35c178 0 243 -58 243 -213v-372zM379 123v128h-58
c-79 0 -113 -9 -113 -74v-23c0 -45 27 -58 65 -58c45 0 89 17 106 27z" />
    <glyph glyph-name="acircumflex.alt" horiz-adv-x="609" 
d="M558 631h-152l-87 82l-86 -82h-153l135 146h208zM547 0h-159v37c-37 -25 -103 -52 -179 -52c-108 0 -167 55 -167 163v23c0 152 116 170 278 170h53v31c0 70 -15 84 -105 84c-21 0 -40 0 -63 -1l-9 -45h-112v140c32 12 124 35 220 35c178 0 243 -58 243 -213v-372z
M379 123v128h-58c-79 0 -113 -9 -113 -74v-23c0 -45 27 -58 65 -58c45 0 89 17 106 27z" />
    <glyph glyph-name="adieresis.alt" horiz-adv-x="609" 
d="M514 646h-140v127h140v-127zM260 773v-127h-140v127h140zM547 0h-159v37c-37 -25 -103 -52 -179 -52c-108 0 -167 55 -167 163v23c0 152 116 170 278 170h53v31c0 70 -15 84 -105 84c-21 0 -40 0 -63 -1l-9 -45h-112v140c32 12 124 35 220 35c178 0 243 -58 243 -213
v-372zM379 123v128h-58c-79 0 -113 -9 -113 -74v-23c0 -45 27 -58 65 -58c45 0 89 17 106 27z" />
    <glyph glyph-name="agrave.alt" horiz-adv-x="609" 
d="M433 631h-162l-167 146h198zM547 0h-159v37c-37 -25 -103 -52 -179 -52c-108 0 -167 55 -167 163v23c0 152 116 170 278 170h53v31c0 70 -15 84 -105 84c-21 0 -40 0 -63 -1l-9 -45h-112v140c32 12 124 35 220 35c178 0 243 -58 243 -213v-372zM379 123v128h-58
c-79 0 -113 -9 -113 -74v-23c0 -45 27 -58 65 -58c45 0 89 17 106 27z" />
    <glyph glyph-name="ampersand.alt" horiz-adv-x="831" 
d="M779 0h-176l-41 38c-45 -30 -119 -54 -224 -54c-157 0 -283 44 -283 200v5c0 86 38 147 143 200l-11 10c-63 62 -96 107 -96 175v9c0 124 92 176 266 176c175 0 261 -52 261 -176v-9c0 -80 -34 -141 -184 -213l142 -134c19 41 24 88 24 137v16h135v-16
c0 -74 -10 -160 -59 -231l103 -98v-35zM471 127l-167 162c-51 -27 -69 -59 -69 -101v-5c0 -63 54 -85 119 -85c51 0 89 10 117 29zM442 564v7c0 46 -30 58 -84 58s-89 -12 -89 -58v-7c0 -39 11 -56 64 -105l12 -11c82 49 97 75 97 116z" />
    <glyph glyph-name="aring.alt" horiz-adv-x="609" 
d="M460 738c0 -79 -60 -121 -141 -121c-82 0 -144 42 -144 121c0 80 62 122 144 122c81 0 141 -42 141 -122zM374 739c0 34 -24 48 -55 48c-33 0 -56 -14 -56 -48s23 -48 56 -48c31 0 55 14 55 48zM547 0h-159v37c-37 -25 -103 -52 -179 -52c-108 0 -167 55 -167 163v23
c0 152 116 170 278 170h53v31c0 70 -15 84 -105 84c-21 0 -40 0 -63 -1l-9 -45h-112v140c32 12 124 35 220 35c178 0 243 -58 243 -213v-372zM379 123v128h-58c-79 0 -113 -9 -113 -74v-23c0 -45 27 -58 65 -58c45 0 89 17 106 27z" />
    <glyph glyph-name="atilde.alt" horiz-adv-x="609" 
d="M544 767c0 -101 -50 -139 -119 -139c-31 0 -63 9 -104 31l-47 26c-22 13 -38 20 -55 20c-24 0 -31 -16 -31 -48v-24h-98v24c0 101 52 139 123 139c33 0 57 -7 98 -29l48 -26c22 -12 37 -21 57 -21c24 0 30 15 30 47v24h98v-24zM547 0h-159v37c-37 -25 -103 -52 -179 -52
c-108 0 -167 55 -167 163v23c0 152 116 170 278 170h53v31c0 70 -15 84 -105 84c-21 0 -40 0 -63 -1l-9 -45h-112v140c32 12 124 35 220 35c178 0 243 -58 243 -213v-372zM379 123v128h-58c-79 0 -113 -9 -113 -74v-23c0 -45 27 -58 65 -58c45 0 89 17 106 27z" />
    <glyph glyph-name="ccedilla.alt" horiz-adv-x="533" 
d="M401 -63l-131 -140h-159l105 140h185zM492 7c-33 -8 -100 -22 -191 -22c-175 0 -254 92 -254 268v64c0 180 79 268 254 268c91 0 166 -14 191 -22v-157h-108l-9 44c-14 1 -34 2 -45 2c-71 0 -110 -23 -110 -135v-64c0 -112 39 -136 114 -136c33 0 82 3 158 8v-118z" />
    <glyph glyph-name="dotlessi.alt" horiz-adv-x="318" 
d="M246 0h-174v441l-46 6v123h220v-570z" />
    <glyph glyph-name="iacute.alt" horiz-adv-x="318" 
d="M246 0h-174v441l-46 6v123h220v-570zM381 777l-166 -146h-163l132 146h197z" />
    <glyph glyph-name="icircumflex.alt" horiz-adv-x="318" 
d="M246 0h-174v441l-46 6v123h220v-570zM398 631h-152l-87 82l-86 -82h-153l135 146h209z" />
    <glyph glyph-name="idieresis.alt" horiz-adv-x="318" 
d="M246 0h-174v441l-46 6v123h220v-570zM355 645h-139v127h139v-127zM101 772v-127h-140v127h140z" />
    <glyph glyph-name="igrave.alt" horiz-adv-x="318" 
d="M246 0h-174v441l-46 6v123h220v-570zM271 631h-162l-167 146h198z" />
    <glyph glyph-name="lslash.alt" horiz-adv-x="328" 
d="M251 0h-174v266l-77 -68v132l77 68v253l-46 5v123h220v-228l77 68v-132l-77 -68v-419z" />
    <glyph glyph-name="ntilde.alt" horiz-adv-x="671" 
d="M568 767c0 -101 -50 -139 -118 -139c-31 0 -64 9 -105 31l-47 26c-22 13 -37 20 -54 20c-25 0 -31 -16 -31 -48v-24h-99v24c0 101 52 139 123 139c33 0 58 -7 98 -29l48 -26c22 -12 38 -21 57 -21c25 0 31 15 31 47v24h97v-24zM606 0h-174v361c0 69 -13 93 -68 93
c-32 0 -76 -13 -122 -32v-422h-174v441l-45 6v123h209v-46c58 36 122 61 187 61c172 0 187 -100 187 -224v-361z" />
    <glyph glyph-name="scaron.alt" horiz-adv-x="543" 
d="M41 777h152l87 -82l86 82h153l-135 -146h-208zM51 8v106c48 -5 124 -11 195 -11c70 0 93 16 93 51c0 34 -18 40 -90 68l-46 17c-106 41 -161 90 -161 184c0 125 89 162 235 162c84 0 175 -12 211 -23v-137h-113l-10 36c-23 1 -53 2 -72 2c-56 0 -84 -2 -84 -36
c0 -30 18 -37 78 -60l51 -19c126 -49 169 -86 169 -188c0 -115 -85 -174 -252 -174c-80 0 -172 13 -204 22z" />
    <glyph glyph-name="uacute.alt" 
d="M569 777l-167 -146h-162l131 146h198zM431 570h174v-570h-164v46c-60 -35 -125 -61 -200 -61c-156 0 -174 109 -174 224v233l-46 5v123h220v-361c0 -69 12 -93 68 -93c33 0 75 13 122 32v422z" />
    <glyph glyph-name="ucircumflex.alt" 
d="M576 631h-153l-86 82l-87 -82h-152l135 146h208zM431 570h174v-570h-164v46c-60 -35 -125 -61 -200 -61c-156 0 -174 109 -174 224v233l-46 5v123h220v-361c0 -69 12 -93 68 -93c33 0 75 13 122 32v422z" />
    <glyph glyph-name="udieresis.alt" 
d="M531 645h-139v127h139v-127zM277 772v-127h-140v127h140zM431 570h174v-570h-164v46c-60 -35 -125 -61 -200 -61c-156 0 -174 109 -174 224v233l-46 5v123h220v-361c0 -69 12 -93 68 -93c33 0 75 13 122 32v422z" />
    <glyph glyph-name="ugrave.alt" 
d="M444 631h-162l-167 146h198zM431 570h174v-570h-164v46c-60 -35 -125 -61 -200 -61c-156 0 -174 109 -174 224v233l-46 5v123h220v-361c0 -69 12 -93 68 -93c33 0 75 13 122 32v422z" />
    <glyph glyph-name="yacute.alt" 
d="M605 -15c0 -127 -60 -201 -269 -201c-109 0 -216 18 -236 23v104c65 -3 154 -8 222 -8c98 0 109 25 109 82v19c-19 -3 -60 -8 -91 -8c-175 0 -273 78 -273 265v309h173v-309c0 -99 29 -134 113 -134c29 0 66 3 79 5v438h173v-585zM570 777l-167 -146h-163l132 146h198z
" />
    <glyph glyph-name="ydieresis.alt" 
d="M605 -15c0 -127 -60 -201 -268 -201c-110 0 -217 18 -237 23v104c65 -3 154 -8 222 -8c98 0 109 25 109 82v19c-19 -3 -60 -8 -91 -8c-175 0 -273 78 -273 265l1 309h172v-309c0 -99 30 -134 113 -134c30 0 67 3 79 5v438h173v-585zM538 645h-140v127h140v-127zM284 772
v-127h-140v127h140z" />
    <glyph glyph-name="zcaron.alt" horiz-adv-x="548" 
d="M43 777h152l87 -82l86 82h153l-135 -146h-208zM505 123v-123h-465v128l269 317h-153l-8 -39h-99v164h455v-130l-267 -317h268z" />
    <glyph glyph-name="two.alt" horiz-adv-x="651" 
d="M589 137v-137h-537v92c0 183 58 251 224 338c118 62 137 81 137 129c0 51 -32 68 -133 68c-24 0 -62 -1 -97 -3l-9 -62h-113v166c51 16 165 31 250 31c203 0 292 -59 292 -190c0 -101 -52 -167 -206 -245c-141 -71 -162 -93 -162 -177v-10h354z" />
    <glyph glyph-name="three.alt" horiz-adv-x="652" 
d="M602 205c0 -162 -97 -222 -296 -222c-101 0 -205 19 -247 33v115c52 -4 151 -14 228 -14c88 0 129 15 129 96v17c0 54 -14 88 -110 88h-202v122h203c94 0 109 36 109 90v10c0 69 -29 86 -130 86c-33 0 -71 -1 -104 -3l-8 -61h-113v166c35 12 147 31 245 31
c188 0 296 -50 296 -205v-12c0 -65 -24 -128 -88 -162c66 -32 88 -94 88 -157v-18z" />
    <glyph glyph-name="five.alt" horiz-adv-x="641" 
d="M592 220c0 -174 -114 -237 -300 -237c-108 0 -204 19 -246 30v118c53 -6 143 -17 208 -17c111 0 152 24 152 104v20c0 73 -32 96 -148 96h-204l34 409h480v-184h-111l-8 50h-211l-13 -148h71c226 0 296 -68 296 -221v-20z" />
    <glyph glyph-name="six.alt" horiz-adv-x="688" 
d="M639 230c0 -190 -139 -247 -291 -247c-205 0 -299 88 -299 308v166c0 189 56 302 305 302c104 0 208 -18 248 -28v-168h-112l-9 60c-32 2 -70 3 -105 3c-130 0 -143 -47 -143 -143v-25c36 9 95 15 132 15c156 0 274 -36 274 -212v-31zM455 229v29c0 84 -36 101 -109 101
c-28 0 -73 -3 -113 -12v-86c0 -120 41 -151 116 -151c62 0 106 36 106 119z" />
    <glyph glyph-name="seven.alt" horiz-adv-x="650" 
d="M611 595l-327 -595h-198l341 609h-253l-7 -54h-112v188h556v-148z" />
    <glyph glyph-name="dotlessj" horiz-adv-x="318" 
d="M246 -35c0 -139 -52 -183 -184 -183c-40 0 -82 4 -98 8v110c19 0 37 -1 56 -1c45 0 52 15 52 66v605h174v-605z" />
    <glyph glyph-name="zero.tab" horiz-adv-x="718" 
d="M664 326c0 -221 -96 -343 -304 -343s-304 122 -304 343v90c0 221 96 343 304 343s304 -122 304 -343v-90zM476 326v90c0 162 -44 203 -116 203c-71 0 -116 -41 -116 -203v-90c0 -162 45 -203 116 -203c72 0 116 41 116 203z" />
    <glyph glyph-name="one.tab" horiz-adv-x="718" 
d="M635 0h-530v126l172 8v452l-173 -43v132l225 71h134v-612l172 -8v-126z" />
    <glyph glyph-name="two.tab" horiz-adv-x="718" 
d="M620 0h-537v92c0 183 58 246 224 334c117 61 136 85 136 133c0 51 -32 68 -133 68c-71 0 -168 -6 -213 -11v112c68 20 166 31 244 31c204 0 292 -59 292 -190c0 -101 -51 -164 -206 -242c-141 -71 -161 -96 -161 -180v-10h354v-137z" />
    <glyph glyph-name="three.tab" horiz-adv-x="718" 
d="M634 205c0 -162 -97 -222 -297 -222c-97 0 -204 19 -246 33v114c50 -5 144 -13 228 -13c88 0 129 15 129 96v17c0 54 -15 88 -110 88h-202v122h203c94 0 109 36 109 90v10c0 69 -29 86 -130 86c-85 0 -164 -6 -226 -11v113c36 12 148 31 245 31c189 0 297 -50 297 -205
v-12c0 -65 -24 -128 -88 -162c65 -32 88 -94 88 -157v-18z" />
    <glyph glyph-name="four.tab" horiz-adv-x="718" 
d="M671 169h-99v-169h-187v169h-341v128l369 446h159v-446h99v-128zM394 297v249l-201 -249h201z" />
    <glyph glyph-name="five.tab" horiz-adv-x="718" 
d="M633 220c0 -174 -115 -237 -300 -237c-111 0 -208 19 -246 29v116c47 -4 127 -14 208 -14c111 0 149 24 149 104v20c0 73 -29 96 -146 96h-204l35 409h480v-134h-330l-13 -148h70c226 0 297 -68 297 -221v-20z" />
    <glyph glyph-name="seven.tab" horiz-adv-x="718" 
d="M645 595l-327 -595h-198l341 609h-372v134h556v-148z" />
    <glyph glyph-name="six.tab" horiz-adv-x="718" 
d="M653 230c0 -190 -139 -247 -291 -247c-205 0 -299 88 -299 308v166c0 189 56 302 306 302c103 0 207 -18 247 -28v-117c-70 6 -141 12 -225 12c-131 0 -144 -47 -144 -143v-25c36 9 96 15 132 15c156 0 274 -36 274 -212v-31zM469 229v29c0 84 -35 101 -109 101
c-28 0 -73 -3 -113 -12v-86c0 -120 41 -151 116 -151c62 0 106 36 106 119z" />
    <glyph glyph-name="eight.tab" horiz-adv-x="718" 
d="M664 213c0 -207 -140 -230 -304 -230h-5c-164 0 -303 23 -303 230v7c0 78 27 127 82 163c-49 32 -79 79 -79 158v9c0 175 132 209 300 209h5c169 0 301 -34 301 -209v-9c0 -79 -30 -126 -79 -158c55 -36 82 -85 82 -163v-7zM480 215v7c0 74 -18 104 -80 104h-84
c-62 0 -80 -30 -80 -104v-7c0 -93 46 -110 119 -110h5c74 0 120 17 120 110zM478 535v9c0 74 -45 92 -118 92h-5c-72 0 -117 -18 -117 -92v-9c0 -58 16 -93 78 -93h84c62 0 78 35 78 93z" />
    <glyph glyph-name="nine.tab" horiz-adv-x="718" 
d="M646 288c0 -187 -56 -305 -306 -305c-103 0 -208 18 -247 28v117c57 -5 141 -13 229 -13c127 0 140 49 140 143v26c-36 -9 -96 -15 -132 -15c-156 0 -274 36 -274 212v31c0 188 139 247 291 247c205 0 299 -85 299 -303v-168zM462 394v87c0 120 -41 151 -116 151
c-63 0 -106 -36 -106 -119v-29c0 -84 35 -101 108 -101c28 0 74 3 114 11z" />
    <glyph glyph-name="uni2215" unicode="&#x2215;" horiz-adv-x="556" 
d="M600 745l-496 -745h-147l496 745h147z" />
    <glyph glyph-name="dieresisacute" horiz-adv-x="625" 
d="M137 646h-130v127h130v-127zM171 630l99 157h187l-132 -157h-154zM618 646h-130v127h130v-127z" />
    <glyph glyph-name="middot" horiz-adv-x="303" 
d="M234 286h-165v165h165v-165z" />
    <glyph glyph-name="dieresisgrave" horiz-adv-x="625" 
d="M618 646h-130v127h130v-127zM355 787l99 -157h-154l-133 157h188zM137 646h-130v127h130v-127z" />
    <glyph glyph-name="threequartersemdash" horiz-adv-x="750" 
d="M693 225h-636v112h636v-112z" />
    <glyph glyph-name="overscore" horiz-adv-x="647" 
d="M637 817h-628v89h628v-89z" />
    <glyph glyph-name="franc.taboldstyle" horiz-adv-x="653" 
d="M314 0h-186v99h-53v85h53v427h449v-133h-263v-106h255v-124h-255v-64h129v-85h-129v-99z" />
    <glyph glyph-name="lira.taboldstyle" horiz-adv-x="630" 
d="M550 597v-118c-50 3 -96 6 -139 6c-85 0 -101 -16 -101 -84v-18h161v-67h-161v-55h161v-67h-161v-10c0 -23 -7 -43 -17 -59h257v-125h-450v101c28 25 39 50 39 83v10h-61v67h61v55h-61v67h61v17c0 153 69 213 227 213c71 0 132 -6 184 -16z" />
    <glyph glyph-name="currency.taboldstyle" horiz-adv-x="656" 
d="M607 112l-79 -76l-80 79c-37 -21 -78 -32 -119 -32s-82 10 -119 32l-84 -80l-77 75l83 80c-22 35 -33 77 -33 117s10 79 33 114l-84 81l78 75l83 -80c37 22 79 33 120 33c42 0 83 -10 120 -33l80 78l78 -75l-82 -79c22 -35 35 -75 35 -115s-12 -80 -34 -116zM455 307
c0 74 -57 122 -126 122s-126 -48 -126 -122c0 -75 58 -123 126 -123c67 0 126 48 126 123z" />
    <glyph glyph-name="peseta.taboldstyle" horiz-adv-x="681" 
d="M253 0h-170v353h-49v105h49v144c76 8 153 12 225 12c150 0 266 -29 289 -156h52v-105h-53c-24 -125 -138 -157 -274 -157c-22 0 -45 1 -69 3v-199zM430 403v11c0 59 -40 71 -111 71c-20 0 -53 -2 -66 -3v-152c13 -1 46 -3 64 -3c71 0 113 18 113 76z" />
    <glyph glyph-name="commaaccent.alt" horiz-adv-x="491" 
d="M380 780l-67 -141h-180l95 141h152z" />
    <glyph glyph-name="undercommaaccent" horiz-adv-x="495" 
d="M358 -63l-97 -140h-153l69 140h181z" />
    <glyph glyph-name="DieresisAcute" horiz-adv-x="625" 
d="M137 807h-130v127h130v-127zM171 791l99 157h187l-132 -157h-154zM618 807h-130v127h130v-127z" />
    <glyph glyph-name="DieresisGrave" horiz-adv-x="625" 
d="M618 807h-130v127h130v-127zM355 948l99 -157h-154l-132 157h187zM137 807h-130v127h130v-127z" />
    <glyph glyph-name="cyrBreve" horiz-adv-x="513" 
d="M464 788c-13 -114 -107 -159 -208 -159c-100 0 -194 45 -207 159h101c8 -60 51 -77 106 -77c57 0 99 17 108 77h100z" />
    <glyph glyph-name="cyrFlex" horiz-adv-x="513" 
d="M464 630h-100c-9 60 -51 77 -108 77c-55 0 -98 -17 -106 -77h-101c13 114 107 159 207 159c101 0 195 -45 208 -159z" />
    <glyph glyph-name="dblGrave" horiz-adv-x="621" 
d="M120 631l-166 146h185l131 -146h-150zM236 777h184l133 -146h-151z" />
    <glyph glyph-name="cyrbreve" horiz-adv-x="513" 
d="M464 788c-13 -114 -107 -159 -208 -159c-100 0 -194 45 -207 159h101c8 -60 51 -77 106 -77c57 0 99 17 108 77h100z" />
    <glyph glyph-name="cyrflex" horiz-adv-x="513" 
d="M464 630h-100c-9 60 -51 77 -108 77c-55 0 -98 -17 -106 -77h-101c13 114 107 159 207 159c101 0 195 -45 208 -159z" />
    <glyph glyph-name="dblgrave" horiz-adv-x="621" 
d="M120 631l-166 146h185l131 -146h-150zM236 777h184l133 -146h-151z" />
    <glyph glyph-name="T_h.caron" horiz-adv-x="1213" 
d="M1146 0h-174v359c0 74 -19 94 -74 94c-44 0 -89 -14 -115 -26v-427h-175v606h-179v-606h-187v606h-216v137h757v-197c44 22 107 39 170 39c158 0 193 -92 193 -224v-361zM580 934l-135 -146h-208l-135 146h152l87 -82l86 82h153z" />
    <glyph glyph-name="T_h.commaaccent" horiz-adv-x="1213" 
d="M1146 0h-174v359c0 74 -19 94 -74 94c-44 0 -89 -14 -115 -26v-427h-175v606h-179v-606h-187v606h-216v137h757v-197c44 22 107 39 170 39c158 0 193 -92 193 -224v-361zM431 -63l-96 -140h-152l68 140h180z" />
    <glyph glyph-name="i.dot" horiz-adv-x="321" 
d="M247 0h-174v570h174v-570zM251 648h-181v131h181v-131z" />
    <glyph glyph-name="Amacron.alt" horiz-adv-x="748" 
d="M578 808h-409v100h409v-100zM21 0l175 611l-52 6v126h374l209 -743h-196l-53 187h-211l-54 -187h-192zM453 321l-54 197c-9 36 -17 76 -23 114h-7c-6 -38 -13 -78 -23 -114l-53 -197h160z" />
    <glyph glyph-name="Abreve.alt" horiz-adv-x="748" 
d="M581 944c-13 -114 -107 -160 -208 -160c-100 0 -194 46 -207 160h101c8 -60 51 -77 106 -77c56 0 99 17 107 77h101zM21 0l175 611l-52 6v126h374l209 -743h-196l-53 187h-211l-54 -187h-192zM453 321l-54 197c-9 36 -17 76 -23 114h-7c-6 -38 -13 -78 -23 -114l-53 -197
h160z" />
    <glyph glyph-name="Aringacute.alt" horiz-adv-x="748" 
d="M727 0h-196l-53 187h-211l-54 -187h-192l175 611l-52 6v126h374zM453 321l-54 197c-9 36 -17 76 -23 114h-7c-6 -38 -13 -78 -23 -114l-53 -197h160zM516 882c0 -79 -60 -121 -141 -121c-82 0 -144 42 -144 121c0 80 62 122 144 122c81 0 141 -42 141 -122zM430 883
c0 34 -23 48 -55 48s-56 -14 -56 -48s23 -49 56 -49c32 0 55 15 55 49zM611 1166l-167 -146h-162l131 146h198z" />
    <glyph glyph-name="Aogonek.alt" horiz-adv-x="748" 
d="M727 -200c-23 -7 -75 -17 -141 -17c-100 0 -144 38 -144 102c0 43 29 88 87 120l-51 182h-211l-54 -187h-192l175 611l-52 6v126h374l209 -743c-115 -42 -137 -67 -137 -89c0 -23 14 -35 53 -35c29 0 58 3 84 5v-81zM453 321l-54 197c-9 36 -17 76 -23 114h-7
c-6 -38 -13 -78 -23 -114l-53 -197h160z" />
    <glyph glyph-name="AE.alt" horiz-adv-x="1032" 
d="M984 0h-506v187h-195l-53 -187h-190l170 609l-51 5v129h825v-136h-319v-162h298v-129h-298v-181h319v-135zM478 320v310h-90c-9 -35 -16 -74 -25 -109l-54 -201h169z" />
    <glyph glyph-name="AEacute.alt" horiz-adv-x="1032" 
d="M984 0h-506v187h-195l-53 -187h-190l170 609l-51 5v129h825v-136h-319v-162h298v-129h-298v-181h319v-135zM478 320v310h-90c-9 -35 -16 -74 -25 -109l-54 -201h169zM809 935l-167 -146h-162l131 146h198z" />
    <glyph glyph-name="Cacute.alt" horiz-adv-x="616" 
d="M587 935l-166 -146h-163l132 146h197zM584 135v-132c-37 -9 -140 -20 -201 -20c-212 0 -334 78 -334 346v86c0 268 122 344 334 344c61 0 164 -11 201 -21v-185h-115l-9 59c-19 1 -39 2 -59 2c-110 0 -163 -37 -163 -199v-86c0 -163 53 -201 164 -201c63 0 135 4 182 7z
" />
    <glyph glyph-name="Ccircumflex.alt" horiz-adv-x="616" 
d="M585 789h-152l-87 82l-86 -82h-153l135 146h209zM584 135v-132c-37 -9 -140 -20 -201 -20c-212 0 -334 78 -334 346v86c0 268 122 344 334 344c61 0 164 -11 201 -21v-185h-115l-9 59c-19 1 -39 2 -59 2c-110 0 -163 -37 -163 -199v-86c0 -163 53 -201 164 -201
c63 0 135 4 182 7z" />
    <glyph glyph-name="Ccaron.alt" horiz-adv-x="616" 
d="M114 935h153l86 -82l87 82h152l-134 -146h-209zM584 135v-132c-37 -9 -140 -20 -201 -20c-212 0 -334 78 -334 346v86c0 268 122 344 334 344c61 0 164 -11 201 -21v-185h-115l-9 59c-19 1 -39 2 -59 2c-110 0 -163 -37 -163 -199v-86c0 -163 53 -201 164 -201
c63 0 135 4 182 7z" />
    <glyph glyph-name="Cdotaccent.alt" horiz-adv-x="616" 
d="M443 800h-180v127h180v-127zM584 135v-132c-37 -9 -140 -20 -201 -20c-212 0 -334 78 -334 346v86c0 268 122 344 334 344c61 0 164 -11 201 -21v-185h-115l-9 59c-19 1 -39 2 -59 2c-110 0 -163 -37 -163 -199v-86c0 -163 53 -201 164 -201c63 0 135 4 182 7z" />
    <glyph glyph-name="Dcaron.alt" horiz-adv-x="738" 
d="M73 0v611l-50 8v124c96 7 204 9 306 9c250 0 360 -106 360 -340v-77c0 -238 -105 -344 -360 -344c-97 0 -160 2 -256 9zM505 335v77c0 158 -49 199 -174 199h-76v-480h76c125 0 174 46 174 204zM120 935h152l87 -82l86 82h153l-135 -146h-208z" />
    <glyph glyph-name="Dcroat.alt" horiz-adv-x="738" 
d="M689 335c0 -238 -105 -344 -360 -344c-88 0 -170 2 -256 9v318h-50v126h50v167l-50 8v124c97 7 207 9 306 9c250 0 360 -106 360 -340v-77zM505 335v77c0 158 -49 199 -174 199h-76v-167h110v-126h-110v-187h76c125 0 174 46 174 204z" />
    <glyph glyph-name="Ecaron.alt" horiz-adv-x="628" 
d="M87 935h153l86 -82l87 82h152l-134 -146h-209zM579 607h-319v-162h298v-129h-298v-181h319v-135h-506v612l-46 5v126h552v-136z" />
    <glyph glyph-name="Emacron.alt" horiz-adv-x="628" 
d="M518 808h-408v100h408v-100zM579 607h-319v-162h298v-129h-298v-181h319v-135h-506v612l-46 5v126h552v-136z" />
    <glyph glyph-name="Ebreve.alt" horiz-adv-x="628" 
d="M526 944c-13 -114 -107 -160 -208 -160s-194 46 -208 160h102c8 -60 51 -77 106 -77c56 0 98 17 107 77h101zM579 607h-319v-162h298v-129h-298v-181h319v-135h-506v612l-46 5v126h552v-136z" />
    <glyph glyph-name="Edotaccent.alt" horiz-adv-x="628" 
d="M410 800h-180v127h180v-127zM579 607h-319v-162h298v-129h-298v-181h319v-135h-506v612l-46 5v126h552v-136z" />
    <glyph glyph-name="Eogonek.alt" horiz-adv-x="628" 
d="M579 -200c-23 -7 -75 -17 -135 -17c-96 0 -150 33 -150 99c0 47 39 90 123 118h-344v612l-46 5v126h552v-136h-319v-162h298v-129h-298v-181h319v-135c-114 -42 -136 -67 -136 -89c0 -23 13 -35 53 -35c29 0 58 3 83 5v-81z" />
    <glyph glyph-name="Gcircumflex.alt" horiz-adv-x="705" 
d="M601 789h-152l-87 82l-86 -82h-153l135 146h208zM644 7c-52 -10 -156 -24 -267 -24c-177 0 -328 62 -328 345v88c0 298 170 343 332 343c110 0 225 -18 260 -27v-179h-113l-10 58c-28 1 -69 3 -102 3c-116 0 -182 -24 -182 -198v-88c0 -159 48 -200 151 -200
c30 0 61 0 85 2v157l-79 8v106h253v-394z" />
    <glyph glyph-name="Gbreve.alt" horiz-adv-x="705" 
d="M579 948c-13 -114 -107 -159 -208 -159c-100 0 -194 45 -207 159h101c8 -60 51 -77 106 -77c57 0 99 17 108 77h100zM644 7c-52 -10 -156 -24 -267 -24c-177 0 -328 62 -328 345v88c0 298 170 343 332 343c110 0 225 -18 260 -27v-179h-113l-10 58c-28 1 -69 3 -102 3
c-116 0 -182 -24 -182 -198v-88c0 -159 48 -200 151 -200c30 0 61 0 85 2v157l-79 8v106h253v-394z" />
    <glyph glyph-name="Gdotaccent.alt" horiz-adv-x="705" 
d="M459 800h-179v127h179v-127zM644 7c-52 -10 -156 -24 -267 -24c-177 0 -328 62 -328 345v88c0 298 170 343 332 343c110 0 225 -18 260 -27v-179h-113l-10 58c-28 1 -69 3 -102 3c-116 0 -182 -24 -182 -198v-88c0 -159 48 -200 151 -200c30 0 61 0 85 2v157l-79 8v106
h253v-394z" />
    <glyph glyph-name="Gcommaaccent.alt" horiz-adv-x="705" 
d="M477 -63l-96 -140h-152l68 140h180zM644 7c-52 -10 -156 -24 -267 -24c-177 0 -328 62 -328 345v88c0 298 170 343 332 343c110 0 225 -18 260 -27v-179h-113l-10 58c-28 1 -69 3 -102 3c-116 0 -182 -24 -182 -198v-88c0 -159 48 -200 151 -200c30 0 61 0 85 2v157
l-79 8v106h253v-394z" />
    <glyph glyph-name="Hbar.alt" horiz-adv-x="800" 
d="M12 576h61v36l-47 5v126h235v-167h279v167h187v-167h61v-80h-61v-496h-187v313h-279v-313h-188v496h-61v80zM261 455h279v41h-279v-41z" />
    <glyph glyph-name="Hcircumflex.alt" horiz-adv-x="800" 
d="M637 789h-152l-87 82l-86 -82h-152l135 146h208zM727 0h-187v313h-279v-313h-188v612l-47 5v126h235v-288h279v288h187v-743z" />
    <glyph glyph-name="Itilde.alt" horiz-adv-x="345" 
d="M399 923c0 -101 -49 -139 -118 -139c-31 0 -63 9 -105 31l-47 26c-22 13 -37 20 -54 20c-25 0 -31 -16 -31 -47v-25h-99v25c0 100 53 138 123 138c34 0 58 -7 99 -29l47 -26c22 -12 38 -21 57 -21c25 0 31 15 31 47v24h97v-24zM313 0h-281v126l47 4v482l-47 5v126h281
v-126l-47 -5v-482l47 -4v-126z" />
    <glyph glyph-name="Imacron.alt" horiz-adv-x="345" 
d="M376 808h-409v100h409v-100zM313 0h-281v126l47 4v482l-47 5v126h281v-126l-47 -5v-482l47 -4v-126z" />
    <glyph glyph-name="Ibreve.alt" horiz-adv-x="345" 
d="M380 944c-13 -114 -107 -160 -208 -160s-194 46 -208 160h102c8 -60 51 -77 106 -77c56 0 98 17 107 77h101zM313 0h-281v126l47 4v482l-47 5v126h281v-126l-47 -5v-482l47 -4v-126z" />
    <glyph glyph-name="Idotaccent.alt" horiz-adv-x="345" 
d="M263 800h-180v127h180v-127zM313 0h-281v126l47 4v482l-47 5v126h281v-126l-47 -5v-482l47 -4v-126z" />
    <glyph glyph-name="Iogonek.alt" horiz-adv-x="345" 
d="M313 0c-118 -42 -140 -67 -140 -89c0 -23 14 -35 53 -35c29 0 58 3 84 5v-81c-23 -7 -75 -17 -135 -17c-97 0 -150 33 -150 99c0 47 38 90 122 118h-115v126l47 4v482l-47 5v126h281v-126l-47 -5v-482l47 -4v-126z" />
    <glyph glyph-name="IJ.alt" 
d="M641 617l-47 -5v-635c0 -137 -60 -192 -198 -192c-32 0 -77 4 -99 9v112h54c51 0 57 17 57 64v642l-48 5v126h281v-126zM313 0h-281v126l47 4v482l-47 5v126h281v-126l-47 -5v-482l47 -4v-126z" />
    <glyph glyph-name="Jcircumflex.alt" horiz-adv-x="345" 
d="M313 617l-47 -5v-635c0 -137 -61 -192 -198 -192c-33 0 -77 4 -99 9v112h53c51 0 57 17 57 64v642l-47 5v126h281v-126zM411 789h-152l-87 82l-86 -82h-153l135 146h208z" />
    <glyph glyph-name="Kcommaaccent.alt" horiz-adv-x="738" 
d="M473 -63l-95 -140h-152l67 140h180zM731 0h-226l-241 345v-345h-188v612l-46 5v126h234v-344l254 344h216l-277 -367z" />
    <glyph glyph-name="Nacute.alt" horiz-adv-x="776" 
d="M611 935l-167 -146h-162l131 146h198zM703 0h-194l-215 386c-18 32 -37 69 -52 102h-2c1 -39 3 -80 3 -120v-368h-170v612l-47 5v126h238l217 -379c18 -32 38 -72 53 -105h2c-2 35 -3 82 -3 127v357h170v-743z" />
    <glyph glyph-name="Ncaron.alt" horiz-adv-x="776" 
d="M148 935h152l87 -82l86 82h153l-135 -146h-208zM703 0h-194l-215 386c-18 32 -37 69 -52 102h-2c1 -39 3 -80 3 -120v-368h-170v612l-47 5v126h238l217 -379c18 -32 38 -72 53 -105h2c-2 35 -3 82 -3 127v357h170v-743z" />
    <glyph glyph-name="Ncommaaccent.alt" horiz-adv-x="776" 
d="M494 -63l-95 -140h-152l67 140h180zM703 0h-194l-215 386c-18 32 -37 69 -52 102h-2c1 -39 3 -80 3 -120v-368h-170v612l-47 5v126h238l217 -379c18 -32 38 -72 53 -105h2c-2 35 -3 82 -3 127v357h170v-743z" />
    <glyph glyph-name="Racute.alt" horiz-adv-x="718" 
d="M704 0h-188l-147 265h-116v-265h-180v612l-47 5v126c70 4 176 9 287 9c187 0 345 -36 345 -240v-7c0 -110 -44 -169 -118 -205zM253 395h68c111 0 156 26 156 107v7c0 84 -48 103 -158 103c-28 0 -33 0 -66 -1v-216zM556 935l-167 -146h-162l131 146h198z" />
    <glyph glyph-name="Rcaron.alt" horiz-adv-x="718" 
d="M704 0h-188l-147 265h-116v-265h-180v612l-47 5v126c70 4 176 9 287 9c187 0 345 -36 345 -240v-7c0 -110 -44 -169 -118 -205zM253 395h68c111 0 156 26 156 107v7c0 84 -48 103 -158 103c-28 0 -33 0 -66 -1v-216zM108 935h152l87 -82l86 82h153l-135 -146h-208z" />
    <glyph glyph-name="Rcommaaccent.alt" horiz-adv-x="718" 
d="M704 0h-188l-147 265h-116v-265h-180v612l-47 5v126c70 4 176 9 287 9c187 0 345 -36 345 -240v-7c0 -110 -44 -169 -118 -205zM253 395h68c111 0 156 26 156 107v7c0 84 -48 103 -158 103c-28 0 -33 0 -66 -1v-216zM470 -63l-95 -140h-152l67 140h180z" />
    <glyph glyph-name="Sacute.alt" horiz-adv-x="646" 
d="M547 935l-167 -146h-163l132 146h198zM65 7v121c72 -5 145 -11 235 -11c79 0 114 25 114 81c0 42 -17 59 -87 89l-108 46c-106 45 -173 98 -173 221c0 147 102 205 290 205c99 0 197 -15 241 -25v-168h-113l-12 57c-34 2 -74 3 -106 3c-76 0 -116 -15 -116 -66
c0 -38 16 -53 84 -81l105 -44c132 -55 181 -110 181 -227c0 -154 -104 -225 -278 -225c-105 0 -209 12 -257 24z" />
    <glyph glyph-name="Scircumflex.alt" horiz-adv-x="646" 
d="M560 789h-152l-87 82l-86 -82h-153l135 146h209zM65 7v121c72 -5 145 -11 235 -11c79 0 114 25 114 81c0 42 -17 59 -87 89l-108 46c-106 45 -173 98 -173 221c0 147 102 205 290 205c99 0 197 -15 241 -25v-168h-113l-12 57c-34 2 -74 3 -106 3c-76 0 -116 -15 -116 -66
c0 -38 16 -53 84 -81l105 -44c132 -55 181 -110 181 -227c0 -154 -104 -225 -278 -225c-105 0 -209 12 -257 24z" />
    <glyph glyph-name="Scedilla.alt" horiz-adv-x="646" 
d="M435 -63l-131 -140h-160l105 140h186zM65 7v121c72 -5 145 -11 235 -11c79 0 114 25 114 81c0 42 -17 59 -87 89l-108 46c-106 45 -173 98 -173 221c0 147 102 205 290 205c99 0 197 -15 241 -25v-168h-113l-12 57c-34 2 -74 3 -106 3c-76 0 -116 -15 -116 -66
c0 -38 16 -53 84 -81l105 -44c132 -55 181 -110 181 -227c0 -154 -104 -225 -278 -225c-105 0 -209 12 -257 24z" />
    <glyph glyph-name="Scommaaccent.alt" horiz-adv-x="646" 
d="M447 -63l-95 -140h-152l67 140h180zM65 7v121c72 -5 145 -11 235 -11c79 0 114 25 114 81c0 42 -17 59 -87 89l-108 46c-106 45 -173 98 -173 221c0 147 102 205 290 205c99 0 197 -15 241 -25v-168h-113l-12 57c-34 2 -74 3 -106 3c-76 0 -116 -15 -116 -66
c0 -38 16 -53 84 -81l105 -44c132 -55 181 -110 181 -227c0 -154 -104 -225 -278 -225c-105 0 -209 12 -257 24z" />
    <glyph glyph-name="Utilde.alt" horiz-adv-x="763" 
d="M609 923c0 -101 -50 -139 -119 -139c-31 0 -63 9 -105 31l-47 26c-22 13 -37 20 -54 20c-24 0 -31 -16 -31 -47v-25h-98v25c0 100 52 138 122 138c34 0 58 -7 99 -29l48 -26c21 -12 37 -21 57 -21c24 0 30 15 30 47v24h98v-24zM695 301c0 -214 -114 -318 -313 -318
s-314 104 -314 318v312l-47 4v126h232v-437c0 -132 28 -182 129 -182s130 50 130 182v437h183v-442z" />
    <glyph glyph-name="Umacron.alt" horiz-adv-x="763" 
d="M585 808h-408v100h408v-100zM695 301c0 -214 -114 -318 -313 -318s-314 104 -314 318v312l-47 4v126h232v-437c0 -132 28 -182 129 -182s130 50 130 182v437h183v-442z" />
    <glyph glyph-name="Ubreve.alt" horiz-adv-x="763" 
d="M589 944c-13 -114 -107 -160 -208 -160c-100 0 -194 46 -207 160h101c8 -60 51 -77 106 -77c57 0 99 17 108 77h100zM695 301c0 -214 -114 -318 -313 -318s-314 104 -314 318v312l-47 4v126h232v-437c0 -132 28 -182 129 -182s130 50 130 182v437h183v-442z" />
    <glyph glyph-name="Uring.alt" horiz-adv-x="763" 
d="M524 896c0 -80 -60 -122 -141 -122c-82 0 -144 42 -144 122c0 79 62 122 144 122c81 0 141 -43 141 -122zM438 896c0 34 -23 48 -55 48s-56 -14 -56 -48c0 -33 23 -48 56 -48c32 0 55 15 55 48zM695 301c0 -214 -114 -318 -313 -318s-314 104 -314 318v312l-47 4v126h232
v-437c0 -132 28 -182 129 -182s130 50 130 182v437h183v-442z" />
    <glyph glyph-name="Uhungarumlaut.alt" horiz-adv-x="763" 
d="M755 935l-167 -146h-150l132 146h185zM294 935h185l-167 -146h-150zM695 301c0 -214 -114 -318 -313 -318s-314 104 -314 318v312l-47 4v126h232v-437c0 -132 28 -182 129 -182s130 50 130 182v437h183v-442z" />
    <glyph glyph-name="Uogonek.alt" horiz-adv-x="763" 
d="M524 -200c-23 -7 -75 -17 -135 -17c-97 0 -151 32 -151 102c0 38 24 76 73 103c-157 22 -243 125 -243 313v312l-47 4v126h232v-437c0 -132 28 -182 129 -182s130 50 130 182v437h183v-442c0 -176 -77 -277 -215 -308c-80 -35 -93 -62 -93 -82s12 -35 53 -35
c29 0 58 3 84 5v-81z" />
    <glyph glyph-name="Zacute.alt" horiz-adv-x="658" 
d="M563 935l-166 -146h-163l132 146h197zM607 139v-139h-556v142l331 462h-204l-9 -53h-109v192h538v-144l-330 -460h339z" />
    <glyph glyph-name="Zdotaccent.alt" horiz-adv-x="658" 
d="M419 800h-180v127h180v-127zM607 139v-139h-556v142l331 462h-204l-9 -53h-109v192h538v-144l-330 -460h339z" />
    <glyph glyph-name="Eng.alt" horiz-adv-x="776" 
d="M703 -23c0 -137 -61 -192 -198 -192c-32 0 -77 4 -99 9v112h54c50 0 56 17 56 64v56l-222 360c-24 39 -37 69 -52 102h-2c1 -38 3 -79 3 -118v-370h-170v612l-47 5v126h238l217 -344c24 -39 38 -72 53 -106h2c-2 36 -3 83 -3 128v322h170v-766z" />
    <glyph glyph-name="amacron.alt" horiz-adv-x="609" 
d="M519 653h-409v99h409v-99zM547 0h-159v37c-37 -25 -103 -52 -179 -52c-108 0 -167 55 -167 163v23c0 152 116 170 278 170h53v31c0 70 -15 84 -105 84c-21 0 -40 0 -63 -1l-9 -45h-112v140c32 12 124 35 220 35c178 0 243 -58 243 -213v-372zM379 123v128h-58
c-79 0 -113 -9 -113 -74v-23c0 -45 27 -58 65 -58c45 0 89 17 106 27z" />
    <glyph glyph-name="abreve.alt" horiz-adv-x="609" 
d="M527 788c-13 -114 -107 -159 -208 -159c-100 0 -194 45 -207 159h101c8 -60 51 -77 106 -77c57 0 99 17 108 77h100zM547 0h-159v37c-37 -25 -103 -52 -179 -52c-108 0 -167 55 -167 163v23c0 152 116 170 278 170h53v31c0 70 -15 84 -105 84c-21 0 -40 0 -63 -1l-9 -45
h-112v140c32 12 124 35 220 35c178 0 243 -58 243 -213v-372zM379 123v128h-58c-79 0 -113 -9 -113 -74v-23c0 -45 27 -58 65 -58c45 0 89 17 106 27z" />
    <glyph glyph-name="aringacute.alt" horiz-adv-x="609" 
d="M547 0h-159v37c-37 -25 -103 -52 -179 -52c-108 0 -167 55 -167 163v23c0 152 116 170 278 170h53v31c0 70 -15 84 -105 84c-21 0 -40 0 -63 -1l-9 -45h-112v140c32 12 124 35 220 35c178 0 243 -58 243 -213v-372zM379 123v128h-58c-79 0 -113 -9 -113 -74v-23
c0 -45 27 -58 65 -58c45 0 89 17 106 27zM456 727c0 -79 -60 -121 -142 -121s-143 42 -143 121c0 80 61 122 143 122s142 -42 142 -122zM369 728c0 34 -23 48 -55 48s-55 -14 -55 -48s22 -48 55 -48c32 0 55 14 55 48zM550 1013l-167 -146h-162l131 146h198z" />
    <glyph glyph-name="aogonek.alt" horiz-adv-x="609" 
d="M547 -200c-23 -7 -75 -17 -138 -17c-100 0 -147 33 -147 99c0 53 48 90 126 120v39c-37 -25 -103 -56 -179 -56c-108 0 -167 55 -167 163v23c0 152 116 170 278 170h53v31c0 70 -15 84 -105 84c-21 0 -40 0 -63 -1l-9 -45h-112v140c32 12 124 35 220 35
c178 0 243 -58 243 -213v-372c-114 -42 -136 -67 -136 -89c0 -23 13 -35 53 -35c29 0 58 3 83 5v-81zM379 127v124h-58c-79 0 -113 -9 -113 -74v-23c0 -45 27 -58 65 -58c45 0 89 21 106 31z" />
    <glyph glyph-name="ae.alt" horiz-adv-x="963" 
d="M920 238h-374v-8c0 -74 9 -121 132 -121c67 0 157 4 215 11v-111c-45 -11 -136 -23 -231 -23c-101 0 -176 20 -220 67c-74 -51 -143 -67 -233 -67c-108 0 -167 54 -167 162v23c0 152 116 170 278 170h53v31c0 63 -13 84 -97 84c-24 0 -46 0 -71 -1l-9 -45h-112v140
c32 12 123 35 220 35c95 0 142 -16 175 -45c41 28 94 44 169 44c213 0 272 -138 272 -284v-62zM750 333v8c0 63 -13 120 -102 120c-87 0 -101 -58 -101 -120v-8h203zM379 123v128h-58c-79 0 -113 -9 -113 -74v-23c0 -45 26 -58 65 -58c44 0 88 17 106 27z" />
    <glyph glyph-name="aeacute.alt" horiz-adv-x="963" 
d="M920 238h-374v-8c0 -74 9 -121 132 -121c67 0 157 4 215 11v-111c-45 -11 -136 -23 -231 -23c-101 0 -176 20 -220 67c-74 -51 -143 -67 -233 -67c-108 0 -167 54 -167 162v23c0 152 116 170 278 170h53v31c0 63 -13 84 -97 84c-24 0 -46 0 -71 -1l-9 -45h-112v140
c32 12 123 35 220 35c95 0 142 -16 175 -45c41 28 94 44 169 44c213 0 272 -138 272 -284v-62zM750 333v8c0 63 -13 120 -102 120c-87 0 -101 -58 -101 -120v-8h203zM379 123v128h-58c-79 0 -113 -9 -113 -74v-23c0 -45 26 -58 65 -58c44 0 88 17 106 27zM730 777l-166 -146
h-163l132 146h197z" />
    <glyph glyph-name="cacute.alt" horiz-adv-x="533" 
d="M530 777l-166 -146h-163l132 146h197zM492 7c-33 -8 -100 -22 -191 -22c-175 0 -254 92 -254 268v64c0 180 79 268 254 268c91 0 166 -14 191 -22v-157h-108l-9 44c-14 1 -34 2 -45 2c-71 0 -110 -23 -110 -135v-64c0 -112 39 -136 114 -136c33 0 82 3 158 8v-118z" />
    <glyph glyph-name="ccircumflex.alt" horiz-adv-x="533" 
d="M533 631h-152l-87 82l-86 -82h-153l135 146h208zM492 7c-33 -8 -100 -22 -191 -22c-175 0 -254 92 -254 268v64c0 180 79 268 254 268c91 0 166 -14 191 -22v-157h-108l-9 44c-14 1 -34 2 -45 2c-71 0 -110 -23 -110 -135v-64c0 -112 39 -136 114 -136c33 0 82 3 158 8
v-118z" />
    <glyph glyph-name="ccaron.alt" horiz-adv-x="533" 
d="M64 777h152l86 -82l87 82h152l-134 -146h-208zM492 7c-33 -8 -100 -22 -191 -22c-175 0 -254 92 -254 268v64c0 180 79 268 254 268c91 0 166 -14 191 -22v-157h-108l-9 44c-14 1 -34 2 -45 2c-71 0 -110 -23 -110 -135v-64c0 -112 39 -136 114 -136c33 0 82 3 158 8
v-118z" />
    <glyph glyph-name="cdotaccent.alt" horiz-adv-x="533" 
d="M385 651h-180v127h180v-127zM492 7c-33 -8 -100 -22 -191 -22c-175 0 -254 92 -254 268v64c0 180 79 268 254 268c91 0 166 -14 191 -22v-157h-108l-9 44c-14 1 -34 2 -45 2c-71 0 -110 -23 -110 -135v-64c0 -112 39 -136 114 -136c33 0 82 3 158 8v-118z" />
    <glyph glyph-name="dcaron.alt" horiz-adv-x="833" 
d="M853 779l-95 -256h-121l60 256h156zM587 0h-161v29c-39 -24 -93 -44 -161 -44c-136 0 -216 83 -216 262v70c0 200 99 268 259 268c41 0 73 -4 105 -9v94l-50 5v104h224v-779zM415 137v309c-31 5 -64 8 -86 8c-71 0 -106 -21 -106 -137v-70c0 -96 25 -130 98 -130
c33 0 65 8 94 20z" />
    <glyph glyph-name="dcroat.alt" horiz-adv-x="656" 
d="M587 0h-161v29c-39 -24 -93 -44 -161 -44c-136 0 -216 83 -216 262v70c0 200 99 268 259 268c41 0 73 -4 105 -9v22h-168v55h168v17l-50 5v104h224v-126h55v-55h-55v-598zM415 137v309c-31 5 -64 8 -86 8c-71 0 -106 -21 -106 -137v-70c0 -96 25 -130 98 -130
c33 0 65 8 94 20z" />
    <glyph glyph-name="gcircumflex.alt" horiz-adv-x="629" 
d="M596 -33c0 -133 -103 -184 -286 -184c-181 0 -276 51 -276 179c0 40 18 84 52 114c-30 21 -44 50 -44 80c0 43 23 76 61 100c-30 28 -47 72 -47 133c0 113 45 196 261 196h281v-87l-49 -13c10 -14 27 -47 27 -96c0 -145 -103 -195 -261 -195c-42 0 -83 5 -113 14
c-13 -10 -23 -23 -23 -39c0 -21 15 -27 46 -27h86c188 0 285 -26 285 -175zM429 -37c0 57 -21 72 -118 72h-90c-14 -14 -24 -40 -24 -71c0 -54 21 -77 114 -77c91 0 118 24 118 76zM411 389c0 56 -15 86 -96 86s-93 -32 -93 -86c0 -55 15 -86 93 -86c81 0 96 31 96 86z
M563 631h-153l-86 82l-87 -82h-152l135 146h208z" />
    <glyph glyph-name="gbreve.alt" horiz-adv-x="629" 
d="M529 788c-13 -114 -107 -159 -208 -159c-100 0 -194 45 -207 159h101c8 -60 51 -77 106 -77c57 0 99 17 108 77h100zM596 -33c0 -133 -103 -184 -286 -184c-181 0 -276 51 -276 179c0 40 18 84 52 114c-30 21 -44 50 -44 80c0 43 23 76 61 100c-30 28 -47 72 -47 133
c0 113 45 196 261 196h281v-87l-49 -13c10 -14 27 -47 27 -96c0 -145 -103 -195 -261 -195c-42 0 -83 5 -113 14c-13 -10 -23 -23 -23 -39c0 -21 15 -27 46 -27h86c188 0 285 -26 285 -175zM429 -37c0 57 -21 72 -118 72h-90c-14 -14 -24 -40 -24 -71c0 -54 21 -77 114 -77
c91 0 118 24 118 76zM411 389c0 56 -15 86 -96 86s-93 -32 -93 -86c0 -55 15 -86 93 -86c81 0 96 31 96 86z" />
    <glyph glyph-name="gdotaccent.alt" horiz-adv-x="629" 
d="M410 647h-179v127h179v-127zM596 -33c0 -133 -103 -184 -286 -184c-181 0 -276 51 -276 179c0 40 18 84 52 114c-30 21 -44 50 -44 80c0 43 23 76 61 100c-30 28 -47 72 -47 133c0 113 45 196 261 196h281v-87l-49 -13c10 -14 27 -47 27 -96c0 -145 -103 -195 -261 -195
c-42 0 -83 5 -113 14c-13 -10 -23 -23 -23 -39c0 -21 15 -27 46 -27h86c188 0 285 -26 285 -175zM429 -37c0 57 -21 72 -118 72h-90c-14 -14 -24 -40 -24 -71c0 -54 21 -77 114 -77c91 0 118 24 118 76zM411 389c0 56 -15 86 -96 86s-93 -32 -93 -86c0 -55 15 -86 93 -86
c81 0 96 31 96 86z" />
    <glyph glyph-name="gcommaaccent.alt" horiz-adv-x="629" 
d="M596 -33c0 -133 -103 -184 -286 -184c-181 0 -276 51 -276 179c0 40 18 84 52 114c-30 21 -44 50 -44 80c0 43 23 76 61 100c-30 28 -47 72 -47 133c0 113 45 196 261 196h281v-87l-49 -13c10 -14 27 -47 27 -96c0 -145 -103 -195 -261 -195c-42 0 -83 5 -113 14
c-13 -10 -23 -23 -23 -39c0 -21 15 -27 46 -27h86c188 0 285 -26 285 -175zM429 -37c0 57 -21 72 -118 72h-90c-14 -14 -24 -40 -24 -71c0 -54 21 -77 114 -77c91 0 118 24 118 76zM411 389c0 56 -15 86 -96 86s-93 -32 -93 -86c0 -55 15 -86 93 -86c81 0 96 31 96 86z
M225 631l96 141h152l-68 -141h-180z" />
    <glyph glyph-name="hbar.alt" 
d="M420 601h-178v-56c44 22 107 40 171 40c158 0 193 -92 193 -224v-361h-174v359c0 74 -19 95 -75 95c-44 0 -89 -15 -115 -27v-427h-174v601h-45v35h45v15l-45 5v123h219v-143h178v-35z" />
    <glyph glyph-name="hcircumflex.alt" 
d="M576 798h-152l-87 82l-86 -82h-152l135 146h208zM606 0h-174v359c0 74 -19 95 -75 95c-44 0 -89 -15 -115 -27v-427h-174v651l-45 5v123h219v-234c44 22 107 40 171 40c158 0 193 -92 193 -224v-361z" />
    <glyph glyph-name="itilde.alt" horiz-adv-x="318" 
d="M246 0h-174v441l-46 6v123h220v-570zM384 766c0 -101 -50 -139 -119 -139c-31 0 -63 8 -104 30l-47 26c-22 13 -38 21 -55 21c-24 0 -31 -17 -31 -48v-24h-98v24c0 101 52 139 123 139c33 0 57 -7 98 -29l48 -26c22 -12 37 -21 57 -21c24 0 30 15 30 47v24h98v-24z" />
    <glyph glyph-name="imacron.alt" horiz-adv-x="318" 
d="M246 0h-174v441l-46 6v123h220v-570zM364 653h-409v99h409v-99z" />
    <glyph glyph-name="ibreve.alt" horiz-adv-x="318" 
d="M246 0h-174v441l-46 6v123h220v-570zM365 788c-13 -114 -106 -159 -207 -159s-195 45 -208 159h101c9 -60 51 -77 107 -77s98 17 107 77h100z" />
    <glyph glyph-name="iogonek.alt" horiz-adv-x="318" 
d="M301 -200c-23 -7 -78 -17 -135 -17c-100 0 -150 33 -150 104c0 46 22 83 56 115v439l-46 6v123h220v-570c-73 -36 -82 -67 -82 -89c0 -23 14 -35 54 -35c31 0 57 3 83 5v-81zM250 648h-181v131h181v-131z" />
    <glyph glyph-name="ij.alt" horiz-adv-x="645" 
d="M246 0h-174v441l-46 6v123h220v-570zM250 648h-181v131h181v-131zM572 -35c0 -139 -52 -183 -184 -183c-41 0 -82 4 -98 8v110c19 0 36 -1 56 -1c44 0 51 15 51 66v477l-45 5v123h220v-605zM575 648h-180v131h180v-131z" />
    <glyph glyph-name="ij.alt2" horiz-adv-x="645" 
d="M246 0h-174v441l-46 6v123h220v-570zM250 648h-181v131h181v-131zM572 -35c0 -139 -52 -183 -184 -183c-40 0 -82 4 -98 8v110c19 0 37 -1 56 -1c45 0 52 15 52 66v605h174v-605zM576 648h-181v131h181v-131z" />
    <glyph glyph-name="jcircumflex.alt" horiz-adv-x="318" 
d="M246 -35c0 -139 -52 -183 -184 -183c-40 0 -82 5 -98 9v110c19 -1 37 -1 56 -1c45 0 52 14 52 65v477l-46 5v123h220v-605zM399 631h-153l-86 82l-87 -82h-152l135 146h208z" />
    <glyph glyph-name="kcommaaccent.alt" horiz-adv-x="624" 
d="M422 -63l-95 -140h-152l67 140h180zM615 0h-197l-176 264v-264h-174v651l-45 5v123h219v-461l179 252h186l-198 -274z" />
    <glyph glyph-name="kgreenlandic.alt" horiz-adv-x="624" 
d="M615 0h-197l-176 264v-264h-174v442l-45 5v123h219v-252l179 252h186l-198 -274z" />
    <glyph glyph-name="lacute.alt" horiz-adv-x="317" 
d="M391 955l-166 -146h-163l132 146h197zM246 0h-174v651l-46 5v123h220v-779z" />
    <glyph glyph-name="lcaron.alt" horiz-adv-x="492" 
d="M512 779l-95 -256h-121l60 256h156zM246 0h-174v651l-46 5v123h220v-779z" />
    <glyph glyph-name="lcommaaccent.alt" horiz-adv-x="317" 
d="M251 -63l-95 -140h-152l67 140h180zM246 0h-174v651l-46 5v123h220v-779z" />
    <glyph glyph-name="ldot.alt" horiz-adv-x="489" 
d="M479 286h-165v165h165v-165zM246 0h-174v651l-46 5v123h220v-779z" />
    <glyph glyph-name="nacute.alt" horiz-adv-x="671" 
d="M550 777l-167 -146h-163l132 146h198zM606 0h-174v361c0 69 -13 93 -68 93c-32 0 -76 -13 -122 -32v-422h-174v441l-45 6v123h209v-46c58 36 122 61 187 61c172 0 187 -100 187 -224v-361z" />
    <glyph glyph-name="ncaron.alt" horiz-adv-x="671" 
d="M99 777h152l87 -82l86 82h153l-135 -146h-208zM606 0h-174v361c0 69 -13 93 -68 93c-32 0 -76 -13 -122 -32v-422h-174v441l-45 6v123h209v-46c58 36 122 61 187 61c172 0 187 -100 187 -224v-361z" />
    </font>
</defs>
</svg>
